%TF.GenerationSoftware,KiCad,Pcbnew,(5.1.7-5-ga3172d643f)-1*%
%TF.CreationDate,2020-10-31T15:28:04-04:00*%
%TF.ProjectId,board,626f6172-642e-46b6-9963-61645f706362,rev?*%
%TF.SameCoordinates,Original*%
%TF.FileFunction,Soldermask,Bot*%
%TF.FilePolarity,Negative*%
%FSLAX46Y46*%
G04 Gerber Fmt 4.6, Leading zero omitted, Abs format (unit mm)*
G04 Created by KiCad (PCBNEW (5.1.7-5-ga3172d643f)-1) date 2020-10-31 15:28:04*
%MOMM*%
%LPD*%
G01*
G04 APERTURE LIST*
%ADD10R,4.000000X4.000000*%
%ADD11O,1.700000X1.700000*%
%ADD12R,1.700000X1.700000*%
%ADD13C,2.000000*%
%ADD14C,5.000000*%
%ADD15R,1.000000X1.000000*%
%ADD16C,1.800000*%
%ADD17O,1.600000X1.600000*%
%ADD18R,1.600000X1.600000*%
%ADD19C,2.600000*%
%ADD20R,2.600000X2.600000*%
%ADD21O,1.717500X1.800000*%
%ADD22R,1.717500X1.800000*%
G04 APERTURE END LIST*
D10*
%TO.C,TP98*%
X182800000Y-70800000D03*
%TD*%
D11*
%TO.C,J2.8*%
X101800000Y-75520000D03*
X101800000Y-72980000D03*
X101800000Y-70440000D03*
D12*
X101800000Y-67900000D03*
%TD*%
D11*
%TO.C,J2.5*%
X101800000Y-63620000D03*
X101800000Y-61080000D03*
X101800000Y-58540000D03*
D12*
X101800000Y-56000000D03*
%TD*%
D11*
%TO.C,J2.6*%
X104900000Y-63520000D03*
X104900000Y-60980000D03*
X104900000Y-58440000D03*
D12*
X104900000Y-55900000D03*
%TD*%
D11*
%TO.C,J2.7*%
X104800000Y-75480000D03*
X104800000Y-72940000D03*
X104800000Y-70400000D03*
D12*
X104800000Y-67860000D03*
%TD*%
D13*
%TO.C,SW1.3*%
X140600000Y-130500000D03*
X140600000Y-135000000D03*
X134100000Y-130500000D03*
X134100000Y-135000000D03*
%TD*%
%TO.C,SW1.2*%
X130200000Y-130500000D03*
X130200000Y-135000000D03*
X123700000Y-130500000D03*
X123700000Y-135000000D03*
%TD*%
D11*
%TO.C,J37*%
X157940000Y-115700000D03*
X160480000Y-115700000D03*
X163020000Y-115700000D03*
X165560000Y-115700000D03*
D12*
X168100000Y-115700000D03*
%TD*%
D11*
%TO.C,J1.36*%
X105800000Y-119920000D03*
X105800000Y-117380000D03*
X105800000Y-114840000D03*
D12*
X105800000Y-112300000D03*
%TD*%
D10*
%TO.C,TP96*%
X189400000Y-92900000D03*
%TD*%
%TO.C,TP95*%
X180600000Y-92900000D03*
%TD*%
%TO.C,TP93*%
X117100000Y-134100000D03*
%TD*%
%TO.C,TP92*%
X103900000Y-134100000D03*
%TD*%
%TO.C,TP90*%
X164400000Y-128800000D03*
%TD*%
%TO.C,TP89*%
X185000000Y-92900000D03*
%TD*%
%TO.C,TP86*%
X110300000Y-125300000D03*
%TD*%
%TO.C,TP85*%
X116600000Y-58500000D03*
%TD*%
%TO.C,TP83*%
X164400000Y-133200000D03*
%TD*%
%TO.C,TP82*%
X160000000Y-128800000D03*
%TD*%
%TO.C,TP78*%
X110300000Y-129700000D03*
%TD*%
%TO.C,TP77*%
X112700000Y-134100000D03*
%TD*%
%TO.C,TP75*%
X160000000Y-133200000D03*
%TD*%
%TO.C,TP70*%
X182800000Y-75200000D03*
%TD*%
%TO.C,TP69*%
X145100000Y-62900000D03*
%TD*%
%TO.C,TP67*%
X160100000Y-95800000D03*
%TD*%
%TO.C,TP62*%
X182800000Y-79700000D03*
%TD*%
%TO.C,TP61*%
X108300000Y-134100000D03*
%TD*%
%TO.C,TP60*%
X164500000Y-95800000D03*
%TD*%
%TO.C,TP59*%
X162400000Y-100200000D03*
%TD*%
%TO.C,TP55*%
X182800000Y-84100000D03*
%TD*%
%TO.C,TP54*%
X146500000Y-133800000D03*
%TD*%
%TO.C,TP53*%
X118700000Y-54100000D03*
%TD*%
%TO.C,TP52*%
X168900000Y-95800000D03*
%TD*%
%TO.C,TP51*%
X166800000Y-100200000D03*
%TD*%
%TO.C,TP48*%
X182800000Y-88500000D03*
%TD*%
%TO.C,TP47*%
X118700000Y-62900000D03*
%TD*%
%TO.C,TP46*%
X121000000Y-49700000D03*
%TD*%
%TO.C,TP45*%
X125400000Y-49700000D03*
%TD*%
%TO.C,TP44*%
X160100000Y-104600000D03*
%TD*%
%TO.C,TP43*%
X164500000Y-104600000D03*
%TD*%
%TO.C,TP41*%
X176200000Y-92900000D03*
%TD*%
%TO.C,TP40*%
X123100000Y-62900000D03*
%TD*%
%TO.C,TP39*%
X116600000Y-49700000D03*
%TD*%
%TO.C,TP38*%
X129800000Y-49700000D03*
%TD*%
%TO.C,TP36*%
X168900000Y-104600000D03*
%TD*%
%TO.C,TP35*%
X166500000Y-109000000D03*
%TD*%
%TO.C,TP34*%
X150900000Y-133800000D03*
%TD*%
%TO.C,TP33*%
X127500000Y-62900000D03*
%TD*%
%TO.C,TP31*%
X134200000Y-49700000D03*
%TD*%
%TO.C,TP30*%
X127500000Y-54100000D03*
%TD*%
%TO.C,TP29*%
X125400000Y-58500000D03*
%TD*%
%TO.C,TP28*%
X162100000Y-109000000D03*
%TD*%
%TO.C,TP27*%
X163200000Y-91400000D03*
%TD*%
%TO.C,TP26*%
X131900000Y-62900000D03*
%TD*%
%TO.C,TP24*%
X138600000Y-49700000D03*
%TD*%
%TO.C,TP23*%
X131900000Y-54100000D03*
%TD*%
%TO.C,TP22*%
X129800000Y-58500000D03*
%TD*%
%TO.C,TP21*%
X169250000Y-91400000D03*
%TD*%
%TO.C,TP20*%
X136300000Y-62900000D03*
%TD*%
%TO.C,TP19*%
X143000000Y-49700000D03*
%TD*%
%TO.C,TP17*%
X136300000Y-54100000D03*
%TD*%
%TO.C,TP16*%
X134200000Y-58500000D03*
%TD*%
%TO.C,TP15*%
X140700000Y-62900000D03*
%TD*%
%TO.C,TP14*%
X140700000Y-54100000D03*
%TD*%
%TO.C,TP13*%
X123100000Y-54100000D03*
%TD*%
%TO.C,TP11*%
X138600000Y-58500000D03*
%TD*%
%TO.C,TP10*%
X143000000Y-58500000D03*
%TD*%
%TO.C,TP6*%
X121000000Y-58500000D03*
%TD*%
D14*
%TO.C,H7*%
X168300000Y-76300000D03*
%TD*%
%TO.C,H6*%
X103700000Y-125700000D03*
%TD*%
%TO.C,H5*%
X103800000Y-50400000D03*
%TD*%
D15*
%TO.C,J1.35*%
X169900000Y-134200000D03*
%TD*%
%TO.C,J1.30*%
X169900000Y-126700000D03*
%TD*%
%TO.C,J1.31*%
X169900000Y-128200000D03*
%TD*%
%TO.C,J1.32*%
X169900000Y-129700000D03*
%TD*%
%TO.C,J1.33*%
X169900000Y-131200000D03*
%TD*%
%TO.C,J1.34*%
X169900000Y-132700000D03*
%TD*%
%TO.C,J1.29*%
X169900000Y-125200000D03*
%TD*%
%TO.C,J1.28*%
X169900000Y-123700000D03*
%TD*%
%TO.C,J1.26*%
X169900000Y-120700000D03*
%TD*%
%TO.C,J1.25*%
X169900000Y-119200000D03*
%TD*%
%TO.C,J1.24*%
X169900000Y-117700000D03*
%TD*%
%TO.C,J1.23*%
X169900000Y-116200000D03*
%TD*%
%TO.C,J1.27*%
X169900000Y-122200000D03*
%TD*%
%TO.C,J1.13*%
X156200000Y-120800000D03*
%TD*%
%TO.C,J1.15*%
X156200000Y-123800000D03*
%TD*%
%TO.C,J1.16*%
X156200000Y-125300000D03*
%TD*%
%TO.C,J1.11*%
X156200000Y-117800000D03*
%TD*%
%TO.C,J1.12*%
X156200000Y-119300000D03*
%TD*%
%TO.C,J1.17*%
X156200000Y-126800000D03*
%TD*%
%TO.C,J1.22*%
X156200000Y-134300000D03*
%TD*%
%TO.C,J1.14*%
X156200000Y-122300000D03*
%TD*%
%TO.C,J1.20*%
X156200000Y-131300000D03*
%TD*%
%TO.C,J1.19*%
X156200000Y-129800000D03*
%TD*%
%TO.C,J1.18*%
X156200000Y-128300000D03*
%TD*%
%TO.C,J1.21*%
X156200000Y-132800000D03*
%TD*%
D11*
%TO.C,J1.3*%
X152400000Y-88900000D03*
X152400000Y-91440000D03*
X152400000Y-93980000D03*
X152400000Y-96520000D03*
X152400000Y-99060000D03*
X152400000Y-101600000D03*
X152400000Y-104140000D03*
X152400000Y-106680000D03*
X152400000Y-109220000D03*
X152400000Y-111760000D03*
X152400000Y-114300000D03*
X152400000Y-116840000D03*
X152400000Y-119380000D03*
X152400000Y-121920000D03*
X152400000Y-124460000D03*
D12*
X152400000Y-127000000D03*
%TD*%
D11*
%TO.C,J1.7*%
X115824000Y-127000000D03*
X115824000Y-124460000D03*
X115824000Y-121920000D03*
D12*
X115824000Y-119380000D03*
%TD*%
D11*
%TO.C,J3.5*%
X129159000Y-69088000D03*
X126619000Y-69088000D03*
X124079000Y-69088000D03*
X121539000Y-69088000D03*
X118999000Y-69088000D03*
D12*
X116459000Y-69088000D03*
%TD*%
D11*
%TO.C,J3.6*%
X145415000Y-69088000D03*
X142875000Y-69088000D03*
X140335000Y-69088000D03*
X137795000Y-69088000D03*
X135255000Y-69088000D03*
D12*
X132715000Y-69088000D03*
%TD*%
D11*
%TO.C,J1.2*%
X105918000Y-95351600D03*
X105918000Y-92811600D03*
X105918000Y-90271600D03*
X105918000Y-87731600D03*
X105918000Y-85191600D03*
D12*
X105918000Y-82651600D03*
%TD*%
D11*
%TO.C,J1.4*%
X124968000Y-85344000D03*
X127508000Y-85344000D03*
X130048000Y-85344000D03*
X132588000Y-85344000D03*
X135128000Y-85344000D03*
X137668000Y-85344000D03*
X140208000Y-85344000D03*
X142748000Y-85344000D03*
X145288000Y-85344000D03*
X147828000Y-85344000D03*
D12*
X150368000Y-85344000D03*
%TD*%
D11*
%TO.C,J1.5*%
X120904000Y-119380000D03*
X120904000Y-116840000D03*
X120904000Y-114300000D03*
X120904000Y-111760000D03*
X120904000Y-109220000D03*
X120904000Y-106680000D03*
X120904000Y-104140000D03*
X120904000Y-101600000D03*
X120904000Y-99060000D03*
X120904000Y-96520000D03*
X120904000Y-93980000D03*
X120904000Y-91440000D03*
D12*
X120904000Y-88900000D03*
%TD*%
D11*
%TO.C,J1.6*%
X148844000Y-125984000D03*
X146304000Y-125984000D03*
X143764000Y-125984000D03*
X141224000Y-125984000D03*
X138684000Y-125984000D03*
X136144000Y-125984000D03*
X133604000Y-125984000D03*
X131064000Y-125984000D03*
X128524000Y-125984000D03*
X125984000Y-125984000D03*
D12*
X123444000Y-125984000D03*
%TD*%
D16*
%TO.C,RV3*%
X112268000Y-43053000D03*
X109768000Y-43053000D03*
X107268000Y-43053000D03*
%TD*%
%TO.C,RV2*%
X127000000Y-43053000D03*
X124500000Y-43053000D03*
X122000000Y-43053000D03*
%TD*%
%TO.C,RV1*%
X141732000Y-43053000D03*
X139232000Y-43053000D03*
X136732000Y-43053000D03*
%TD*%
D13*
%TO.C,H4*%
X109093000Y-56642000D03*
%TD*%
%TO.C,H3*%
X109093000Y-74549000D03*
%TD*%
%TO.C,H2*%
X149098000Y-74549000D03*
%TD*%
%TO.C,H1*%
X149098000Y-56642000D03*
%TD*%
D11*
%TO.C,J2.4*%
X172212000Y-84328000D03*
D12*
X172212000Y-86868000D03*
%TD*%
D17*
%TO.C,U3.2*%
X188925200Y-47802800D03*
X181305200Y-65582800D03*
X188925200Y-50342800D03*
X181305200Y-63042800D03*
X188925200Y-52882800D03*
X181305200Y-60502800D03*
X188925200Y-55422800D03*
X181305200Y-57962800D03*
X188925200Y-57962800D03*
X181305200Y-55422800D03*
X188925200Y-60502800D03*
X181305200Y-52882800D03*
X188925200Y-63042800D03*
X181305200Y-50342800D03*
X188925200Y-65582800D03*
D18*
X181305200Y-47802800D03*
%TD*%
D19*
%TO.C,J3.3*%
X176305200Y-40690800D03*
D20*
X181305200Y-40690800D03*
%TD*%
D19*
%TO.C,J3.4*%
X188497200Y-40690800D03*
D20*
X193497200Y-40690800D03*
%TD*%
D19*
%TO.C,J3.2*%
X163859200Y-40690800D03*
D20*
X168859200Y-40690800D03*
%TD*%
D19*
%TO.C,J3.1*%
X151667200Y-40690800D03*
D20*
X156667200Y-40690800D03*
%TD*%
D17*
%TO.C,U3.1*%
X164033200Y-48056800D03*
X156413200Y-65836800D03*
X164033200Y-50596800D03*
X156413200Y-63296800D03*
X164033200Y-53136800D03*
X156413200Y-60756800D03*
X164033200Y-55676800D03*
X156413200Y-58216800D03*
X164033200Y-58216800D03*
X156413200Y-55676800D03*
X164033200Y-60756800D03*
X156413200Y-53136800D03*
X164033200Y-63296800D03*
X156413200Y-50596800D03*
X164033200Y-65836800D03*
D18*
X156413200Y-48056800D03*
%TD*%
D13*
%TO.C,SW1*%
X106172000Y-105407600D03*
X101672000Y-105407600D03*
X106172000Y-98907600D03*
X101672000Y-98907600D03*
%TD*%
D19*
%TO.C,J2.3*%
X197612000Y-92202000D03*
D20*
X197612000Y-87122000D03*
%TD*%
D19*
%TO.C,J2.1*%
X197612000Y-79756000D03*
D20*
X197612000Y-74676000D03*
%TD*%
D19*
%TO.C,J2.2*%
X197612000Y-68580000D03*
D20*
X197612000Y-63500000D03*
%TD*%
D11*
%TO.C,J1.1*%
X102108000Y-82651600D03*
X102108000Y-85191600D03*
X102108000Y-87731600D03*
D12*
X102108000Y-90271600D03*
%TD*%
D17*
%TO.C,A2.1*%
X175768000Y-86868000D03*
X188468000Y-69088000D03*
X175768000Y-84328000D03*
X188468000Y-71628000D03*
X175768000Y-81788000D03*
X188468000Y-74168000D03*
X175768000Y-79248000D03*
X188468000Y-76708000D03*
X175768000Y-76708000D03*
X188468000Y-79248000D03*
X175768000Y-74168000D03*
X188468000Y-81788000D03*
X175768000Y-71628000D03*
X188468000Y-84328000D03*
X175768000Y-69088000D03*
D18*
X188468000Y-86868000D03*
%TD*%
D21*
%TO.C,Q3*%
X173732000Y-124714000D03*
X176022000Y-124714000D03*
D22*
X178312000Y-124714000D03*
%TD*%
D21*
%TO.C,Q1*%
X178566000Y-108017333D03*
X176276000Y-108017333D03*
D22*
X173986000Y-108017333D03*
%TD*%
D19*
%TO.C,J2*%
X197612000Y-132508000D03*
D20*
X197612000Y-127508000D03*
%TD*%
D19*
%TO.C,J1*%
X197612000Y-104568000D03*
D20*
X197612000Y-99568000D03*
%TD*%
D11*
%TO.C,J3*%
X198374000Y-122428000D03*
X198374000Y-119888000D03*
X198374000Y-117348000D03*
X198374000Y-114808000D03*
X198374000Y-112268000D03*
D12*
X198374000Y-109728000D03*
%TD*%
M02*
