M48
; DRILL file {KiCad (5.1.7-5-ga3172d643f)-1} date 10/31/20 15:28:08
; FORMAT={-:-/ absolute / inch / decimal}
; #@! TF.CreationDate,2020-10-31T15:28:08-04:00
; #@! TF.GenerationSoftware,Kicad,Pcbnew,(5.1.7-5-ga3172d643f)-1
; #@! TF.FileFunction,Plated,1,2,PTH
FMAT,2
INCH
T1C0.0157
T2C0.0197
T3C0.0236
T4C0.0315
T5C0.0394
T6C0.0433
T7C0.0512
T8C0.0984
%
G90
G05
T1
X4.2598Y-3.622
X4.2717Y-4.1102
X4.3071Y-3.9449
X4.3436Y-3.2244
X4.3583Y-3.7795
X4.376Y-3.628
X4.3819Y-3.1969
X4.419Y-4.27
X4.4213Y-3.2362
X4.4232Y-2.6791
X4.437Y-2.5827
X4.4528Y-2.5118
X4.5433Y-4.0748
X4.6024Y-4.4449
X4.625Y-3.415
X4.64Y-3.485
X4.64Y-3.56
X4.64Y-3.85
X4.645Y-3.785
X4.6535Y-3.937
X4.6654Y-4.1535
X4.67Y-4.01
X4.78Y-2.935
X5.0206Y-3.8394
X5.075Y-2.94
X5.08Y-4.35
X5.15Y-4.215
X5.16Y-3.9095
X5.16Y-3.995
X5.185Y-5.035
X5.2Y-3.8
X5.25Y-4.55
X5.2824Y-4.2921
X5.32Y-2.935
X5.32Y-3.27
X5.33Y-4.2904
X5.345Y-3.59
X5.51Y-3.655
X5.6382Y-4.5682
X5.67Y-3.28
X5.72Y-2.935
X5.8176Y-2.1516
X6.2717Y-4.3346
X6.748Y-1.982
X6.84Y-4.55
X6.878Y-2.372
X6.95Y-4.5
X7.0236Y-4.4843
X7.0394Y-4.5709
X7.0525Y-2.2025
X7.055Y-2.25
X7.055Y-2.2994
X7.0551Y-4.5079
X7.06Y-2.45
X7.16Y-4.74
X7.17Y-4.58
X7.189Y-4.5079
X7.189Y-4.5433
X7.2Y-2.23
X7.2Y-2.44
X7.205Y-4.455
X7.2074Y-4.3824
X7.22Y-4.58
X7.225Y-4.69
X7.26Y-4.655
X7.3Y-4.41
X7.3046Y-4.3596
X7.4Y-4.46
X7.405Y-4.525
X7.41Y-4.64
X7.44Y-4.34
X7.445Y-4.675
X7.45Y-4.57
X7.5Y-4.34
X7.53Y-4.9
X7.54Y-4.34
X7.5987Y-4.6813
X7.6117Y-4.54
X7.69Y-4.715
X7.725Y-4.78
X7.7275Y-4.6225
X7.73Y-4.43
X7.7984Y-2.0924
T2
X6.1496Y-4.874
X6.1496Y-4.9921
X6.1496Y-4.6969
X6.689Y-5.0472
X6.689Y-4.9291
X6.689Y-4.752
X6.689Y-4.6929
X6.689Y-4.6339
X6.689Y-4.8701
X6.689Y-4.811
X6.1496Y-4.815
X6.1496Y-5.1693
X6.689Y-5.2244
X6.1496Y-4.7559
X6.689Y-4.9882
X6.1496Y-5.1102
X6.1496Y-5.0512
X6.689Y-4.5748
X6.1496Y-4.9331
X6.1496Y-4.6378
X6.689Y-5.2835
X6.1496Y-5.2283
X6.689Y-5.1654
X6.1496Y-5.2874
X6.689Y-5.1063
T3
X4.0906Y-5.2795
X4.74Y-3.32
X4.99Y-4.49
X6.21Y-3.23
X6.26Y-3.23
X6.2677Y-4.626
X6.328Y-2.222
X6.328Y-2.272
X6.4331Y-3.5984
X6.6575Y-3.5525
X6.69Y-3.585
X6.77Y-4.445
X6.77Y-4.485
X7.0302Y-4.1802
X7.0572Y-4.6172
X7.0978Y-4.6172
X7.1Y-4.69
X7.26Y-3.97
X7.2664Y-5.0864
X7.2664Y-5.1964
X7.2764Y-4.0936
X7.278Y-2.192
X7.278Y-2.242
X7.4972Y-3.8872
X7.4978Y-5.2878
X7.5Y-4.19
X7.5Y-4.99
X7.515Y-4.465
X7.55Y-4.59
X7.555Y-4.465
X7.59Y-4.59
X7.61Y-4.22
T4
X6.158Y-1.892
X6.158Y-1.992
X6.158Y-2.092
X6.158Y-2.192
X6.158Y-2.292
X6.158Y-2.392
X6.158Y-2.492
X6.158Y-2.592
X6.458Y-1.892
X6.458Y-1.992
X6.458Y-2.092
X6.458Y-2.192
X6.458Y-2.292
X6.458Y-2.392
X6.458Y-2.492
X6.458Y-2.592
X7.138Y-1.882
X7.138Y-1.982
X7.138Y-2.082
X7.138Y-2.182
X7.138Y-2.282
X7.138Y-2.382
X7.138Y-2.482
X7.138Y-2.582
X7.438Y-1.882
X7.438Y-1.982
X7.438Y-2.082
X7.438Y-2.182
X7.438Y-2.282
X7.438Y-2.382
X7.438Y-2.482
X7.438Y-2.582
X6.92Y-2.72
X6.92Y-2.82
X6.92Y-2.92
X6.92Y-3.02
X6.92Y-3.12
X6.92Y-3.22
X6.92Y-3.32
X6.92Y-3.42
X7.42Y-2.72
X7.42Y-2.82
X7.42Y-2.92
X7.42Y-3.02
X7.42Y-3.12
X7.42Y-3.22
X7.42Y-3.32
X7.42Y-3.42
T5
X6.78Y-3.32
X6.78Y-3.42
X6.0Y-3.5
X6.0Y-3.6
X6.0Y-3.7
X6.0Y-3.8
X6.0Y-3.9
X6.0Y-4.0
X6.0Y-4.1
X6.0Y-4.2
X6.0Y-4.3
X6.0Y-4.4
X6.0Y-4.5
X6.0Y-4.6
X6.0Y-4.7
X6.0Y-4.8
X6.0Y-4.9
X6.0Y-5.0
X4.56Y-4.7
X4.56Y-4.8
X4.56Y-4.9
X4.56Y-5.0
X4.585Y-2.72
X4.685Y-2.72
X4.785Y-2.72
X4.885Y-2.72
X4.985Y-2.72
X5.085Y-2.72
X5.225Y-2.72
X5.325Y-2.72
X5.425Y-2.72
X5.525Y-2.72
X5.625Y-2.72
X5.725Y-2.72
X4.2231Y-1.695
X4.3216Y-1.695
X4.42Y-1.695
X4.86Y-4.96
X4.96Y-4.96
X5.06Y-4.96
X5.16Y-4.96
X5.26Y-4.96
X5.36Y-4.96
X5.46Y-4.96
X5.56Y-4.96
X5.66Y-4.96
X5.76Y-4.96
X5.86Y-4.96
X4.17Y-3.254
X4.17Y-3.354
X4.17Y-3.454
X4.17Y-3.554
X4.17Y-3.654
X4.17Y-3.754
X4.92Y-3.36
X5.02Y-3.36
X5.12Y-3.36
X5.22Y-3.36
X5.32Y-3.36
X5.42Y-3.36
X5.52Y-3.36
X5.62Y-3.36
X5.72Y-3.36
X5.82Y-3.36
X5.92Y-3.36
X4.8031Y-1.695
X4.9016Y-1.695
X5.0Y-1.695
X5.3831Y-1.695
X5.4816Y-1.695
X5.58Y-1.695
X4.295Y-2.23
X4.295Y-2.935
X5.87Y-2.935
X5.87Y-2.23
X4.76Y-3.5
X4.76Y-3.6
X4.76Y-3.7
X4.76Y-3.8
X4.76Y-3.9
X4.76Y-4.0
X4.76Y-4.1
X4.76Y-4.2
X4.76Y-4.3
X4.76Y-4.4
X4.76Y-4.5
X4.76Y-4.6
X4.76Y-4.7
X7.81Y-4.32
X7.81Y-4.42
X7.81Y-4.52
X7.81Y-4.62
X7.81Y-4.72
X7.81Y-4.82
X4.02Y-3.254
X4.02Y-3.354
X4.02Y-3.454
X4.02Y-3.554
X4.126Y-2.6717
X4.126Y-2.7717
X4.126Y-2.8717
X4.126Y-2.9717
X4.0079Y-2.6732
X4.0079Y-2.7732
X4.0079Y-2.8732
X4.0079Y-2.9732
X4.1299Y-2.2008
X4.1299Y-2.3008
X4.1299Y-2.4008
X4.1299Y-2.5008
X4.0079Y-2.2047
X4.0079Y-2.3047
X4.0079Y-2.4047
X4.0079Y-2.5047
X6.2181Y-4.5551
X6.3181Y-4.5551
X6.4181Y-4.5551
X6.5181Y-4.5551
X6.6181Y-4.5551
X4.1654Y-4.4213
X4.1654Y-4.5213
X4.1654Y-4.6213
X4.1654Y-4.7213
T6
X6.8498Y-4.2527
X6.94Y-4.2527
X7.0302Y-4.2527
X6.8398Y-4.91
X6.93Y-4.91
X7.0202Y-4.91
X4.0028Y-3.894
X4.0028Y-4.1499
X4.18Y-3.894
X4.18Y-4.1499
X5.2795Y-5.1378
X5.2795Y-5.315
X5.5354Y-5.1378
X5.5354Y-5.315
X4.8701Y-5.1378
X4.8701Y-5.315
X5.126Y-5.1378
X5.126Y-5.315
T7
X6.9411Y-1.602
X7.138Y-1.602
X6.4511Y-1.602
X6.648Y-1.602
X5.9711Y-1.602
X6.168Y-1.602
X7.4211Y-1.602
X7.618Y-1.602
X7.78Y-2.94
X7.78Y-3.14
X7.78Y-3.92
X7.78Y-4.1169
X7.78Y-3.43
X7.78Y-3.63
X7.78Y-2.5
X7.78Y-2.7
X7.78Y-5.02
X7.78Y-5.2169
T8
X6.626Y-3.0039
X4.0866Y-1.9843
X4.0827Y-4.9488
T0
M30
