%TF.GenerationSoftware,KiCad,Pcbnew,(5.1.7-5-ga3172d643f)-1*%
%TF.CreationDate,2020-10-31T15:28:03-04:00*%
%TF.ProjectId,board,626f6172-642e-46b6-9963-61645f706362,rev?*%
%TF.SameCoordinates,Original*%
%TF.FileFunction,Copper,L1,Top*%
%TF.FilePolarity,Positive*%
%FSLAX46Y46*%
G04 Gerber Fmt 4.6, Leading zero omitted, Abs format (unit mm)*
G04 Created by KiCad (PCBNEW (5.1.7-5-ga3172d643f)-1) date 2020-10-31 15:28:03*
%MOMM*%
%LPD*%
G01*
G04 APERTURE LIST*
%TA.AperFunction,SMDPad,CuDef*%
%ADD10R,4.000000X4.000000*%
%TD*%
%TA.AperFunction,ComponentPad*%
%ADD11O,1.700000X1.700000*%
%TD*%
%TA.AperFunction,ComponentPad*%
%ADD12R,1.700000X1.700000*%
%TD*%
%TA.AperFunction,ComponentPad*%
%ADD13C,2.000000*%
%TD*%
%TA.AperFunction,SMDPad,CuDef*%
%ADD14R,0.900000X0.800000*%
%TD*%
%TA.AperFunction,SMDPad,CuDef*%
%ADD15C,0.100000*%
%TD*%
%TA.AperFunction,ComponentPad*%
%ADD16C,5.000000*%
%TD*%
%TA.AperFunction,ComponentPad*%
%ADD17R,1.000000X1.000000*%
%TD*%
%TA.AperFunction,ComponentPad*%
%ADD18C,1.800000*%
%TD*%
%TA.AperFunction,ComponentPad*%
%ADD19O,1.600000X1.600000*%
%TD*%
%TA.AperFunction,ComponentPad*%
%ADD20R,1.600000X1.600000*%
%TD*%
%TA.AperFunction,ComponentPad*%
%ADD21C,2.600000*%
%TD*%
%TA.AperFunction,ComponentPad*%
%ADD22R,2.600000X2.600000*%
%TD*%
%TA.AperFunction,SMDPad,CuDef*%
%ADD23R,3.500000X2.400000*%
%TD*%
%TA.AperFunction,SMDPad,CuDef*%
%ADD24R,0.550000X1.500000*%
%TD*%
%TA.AperFunction,SMDPad,CuDef*%
%ADD25R,1.500000X0.550000*%
%TD*%
%TA.AperFunction,ComponentPad*%
%ADD26O,1.717500X1.800000*%
%TD*%
%TA.AperFunction,ComponentPad*%
%ADD27R,1.717500X1.800000*%
%TD*%
%TA.AperFunction,SMDPad,CuDef*%
%ADD28R,5.700000X6.200000*%
%TD*%
%TA.AperFunction,SMDPad,CuDef*%
%ADD29R,0.800000X0.900000*%
%TD*%
%TA.AperFunction,SMDPad,CuDef*%
%ADD30R,0.550000X1.600000*%
%TD*%
%TA.AperFunction,SMDPad,CuDef*%
%ADD31R,1.600000X0.550000*%
%TD*%
%TA.AperFunction,SMDPad,CuDef*%
%ADD32R,0.800000X1.800000*%
%TD*%
%TA.AperFunction,ViaPad*%
%ADD33C,1.000000*%
%TD*%
%TA.AperFunction,ViaPad*%
%ADD34C,0.800000*%
%TD*%
%TA.AperFunction,Conductor*%
%ADD35C,0.250000*%
%TD*%
%TA.AperFunction,Conductor*%
%ADD36C,2.000000*%
%TD*%
%TA.AperFunction,Conductor*%
%ADD37C,1.000000*%
%TD*%
%TA.AperFunction,Conductor*%
%ADD38C,1.500000*%
%TD*%
%TA.AperFunction,Conductor*%
%ADD39C,0.500000*%
%TD*%
%TA.AperFunction,Conductor*%
%ADD40C,5.000000*%
%TD*%
%TA.AperFunction,Conductor*%
%ADD41C,0.254000*%
%TD*%
%TA.AperFunction,Conductor*%
%ADD42C,0.100000*%
%TD*%
G04 APERTURE END LIST*
D10*
%TO.P,TP102,1*%
%TO.N,Net-(TP102-Pad1)*%
X110300000Y-129700000D03*
%TD*%
%TO.P,TP101,1*%
%TO.N,Net-(TP101-Pad1)*%
X108300000Y-134100000D03*
%TD*%
%TO.P,TP100,1*%
%TO.N,Net-(TP100-Pad1)*%
X110300000Y-125300000D03*
%TD*%
%TO.P,TP99,1*%
%TO.N,Net-(TP99-Pad1)*%
X112700000Y-134100000D03*
%TD*%
%TO.P,TP97,1*%
%TO.N,GND*%
X103900000Y-134100000D03*
%TD*%
D11*
%TO.P,J2.8,4*%
%TO.N,5V*%
X101800000Y-75520000D03*
%TO.P,J2.8,3*%
%TO.N,Net-(J2.8-Pad2)*%
X101800000Y-72980000D03*
%TO.P,J2.8,2*%
X101800000Y-70440000D03*
D12*
%TO.P,J2.8,1*%
%TO.N,GND*%
X101800000Y-67900000D03*
%TD*%
D11*
%TO.P,J2.5,4*%
%TO.N,5V*%
X101800000Y-63620000D03*
%TO.P,J2.5,3*%
%TO.N,Net-(J2.5-Pad2)*%
X101800000Y-61080000D03*
%TO.P,J2.5,2*%
X101800000Y-58540000D03*
D12*
%TO.P,J2.5,1*%
%TO.N,GND*%
X101800000Y-56000000D03*
%TD*%
D11*
%TO.P,J2.6,4*%
%TO.N,5V*%
X104900000Y-63520000D03*
%TO.P,J2.6,3*%
%TO.N,Net-(J2.6-Pad2)*%
X104900000Y-60980000D03*
%TO.P,J2.6,2*%
X104900000Y-58440000D03*
D12*
%TO.P,J2.6,1*%
%TO.N,GND*%
X104900000Y-55900000D03*
%TD*%
D11*
%TO.P,J2.7,4*%
%TO.N,5V*%
X104800000Y-75480000D03*
%TO.P,J2.7,3*%
%TO.N,Net-(J2.7-Pad2)*%
X104800000Y-72940000D03*
%TO.P,J2.7,2*%
X104800000Y-70400000D03*
D12*
%TO.P,J2.7,1*%
%TO.N,GND*%
X104800000Y-67860000D03*
%TD*%
D13*
%TO.P,SW1.3,1*%
%TO.N,PG4*%
X140600000Y-130500000D03*
%TO.P,SW1.3,2*%
%TO.N,GND*%
X140600000Y-135000000D03*
%TO.P,SW1.3,1*%
%TO.N,PG4*%
X134100000Y-130500000D03*
%TO.P,SW1.3,2*%
%TO.N,GND*%
X134100000Y-135000000D03*
%TD*%
%TO.P,SW1.2,1*%
%TO.N,PG3*%
X130200000Y-130500000D03*
%TO.P,SW1.2,2*%
%TO.N,GND*%
X130200000Y-135000000D03*
%TO.P,SW1.2,1*%
%TO.N,PG3*%
X123700000Y-130500000D03*
%TO.P,SW1.2,2*%
%TO.N,GND*%
X123700000Y-135000000D03*
%TD*%
%TO.P,R1.14,2*%
%TO.N,5V*%
%TA.AperFunction,SMDPad,CuDef*%
G36*
G01*
X119500000Y-132349999D02*
X119500000Y-133250001D01*
G75*
G02*
X119250001Y-133500000I-249999J0D01*
G01*
X118549999Y-133500000D01*
G75*
G02*
X118300000Y-133250001I0J249999D01*
G01*
X118300000Y-132349999D01*
G75*
G02*
X118549999Y-132100000I249999J0D01*
G01*
X119250001Y-132100000D01*
G75*
G02*
X119500000Y-132349999I0J-249999D01*
G01*
G37*
%TD.AperFunction*%
%TO.P,R1.14,1*%
%TO.N,PG4*%
%TA.AperFunction,SMDPad,CuDef*%
G36*
G01*
X121500000Y-132349999D02*
X121500000Y-133250001D01*
G75*
G02*
X121250001Y-133500000I-249999J0D01*
G01*
X120549999Y-133500000D01*
G75*
G02*
X120300000Y-133250001I0J249999D01*
G01*
X120300000Y-132349999D01*
G75*
G02*
X120549999Y-132100000I249999J0D01*
G01*
X121250001Y-132100000D01*
G75*
G02*
X121500000Y-132349999I0J-249999D01*
G01*
G37*
%TD.AperFunction*%
%TD*%
%TO.P,R1.13,2*%
%TO.N,5V*%
%TA.AperFunction,SMDPad,CuDef*%
G36*
G01*
X119500000Y-130149999D02*
X119500000Y-131050001D01*
G75*
G02*
X119250001Y-131300000I-249999J0D01*
G01*
X118549999Y-131300000D01*
G75*
G02*
X118300000Y-131050001I0J249999D01*
G01*
X118300000Y-130149999D01*
G75*
G02*
X118549999Y-129900000I249999J0D01*
G01*
X119250001Y-129900000D01*
G75*
G02*
X119500000Y-130149999I0J-249999D01*
G01*
G37*
%TD.AperFunction*%
%TO.P,R1.13,1*%
%TO.N,PG3*%
%TA.AperFunction,SMDPad,CuDef*%
G36*
G01*
X121500000Y-130149999D02*
X121500000Y-131050001D01*
G75*
G02*
X121250001Y-131300000I-249999J0D01*
G01*
X120549999Y-131300000D01*
G75*
G02*
X120300000Y-131050001I0J249999D01*
G01*
X120300000Y-130149999D01*
G75*
G02*
X120549999Y-129900000I249999J0D01*
G01*
X121250001Y-129900000D01*
G75*
G02*
X121500000Y-130149999I0J-249999D01*
G01*
G37*
%TD.AperFunction*%
%TD*%
%TO.P,R1.8,2*%
%TO.N,5V*%
%TA.AperFunction,SMDPad,CuDef*%
G36*
G01*
X166500000Y-108850001D02*
X166500000Y-107949999D01*
G75*
G02*
X166749999Y-107700000I249999J0D01*
G01*
X167450001Y-107700000D01*
G75*
G02*
X167700000Y-107949999I0J-249999D01*
G01*
X167700000Y-108850001D01*
G75*
G02*
X167450001Y-109100000I-249999J0D01*
G01*
X166749999Y-109100000D01*
G75*
G02*
X166500000Y-108850001I0J249999D01*
G01*
G37*
%TD.AperFunction*%
%TO.P,R1.8,1*%
%TO.N,Net-(Q1.1-Pad1)*%
%TA.AperFunction,SMDPad,CuDef*%
G36*
G01*
X164500000Y-108850001D02*
X164500000Y-107949999D01*
G75*
G02*
X164749999Y-107700000I249999J0D01*
G01*
X165450001Y-107700000D01*
G75*
G02*
X165700000Y-107949999I0J-249999D01*
G01*
X165700000Y-108850001D01*
G75*
G02*
X165450001Y-109100000I-249999J0D01*
G01*
X164749999Y-109100000D01*
G75*
G02*
X164500000Y-108850001I0J249999D01*
G01*
G37*
%TD.AperFunction*%
%TD*%
%TO.P,R1.9,2*%
%TO.N,Net-(Q1.1-Pad1)*%
%TA.AperFunction,SMDPad,CuDef*%
G36*
G01*
X162400000Y-110550001D02*
X162400000Y-109649999D01*
G75*
G02*
X162649999Y-109400000I249999J0D01*
G01*
X163350001Y-109400000D01*
G75*
G02*
X163600000Y-109649999I0J-249999D01*
G01*
X163600000Y-110550001D01*
G75*
G02*
X163350001Y-110800000I-249999J0D01*
G01*
X162649999Y-110800000D01*
G75*
G02*
X162400000Y-110550001I0J249999D01*
G01*
G37*
%TD.AperFunction*%
%TO.P,R1.9,1*%
%TO.N,GND*%
%TA.AperFunction,SMDPad,CuDef*%
G36*
G01*
X160400000Y-110550001D02*
X160400000Y-109649999D01*
G75*
G02*
X160649999Y-109400000I249999J0D01*
G01*
X161350001Y-109400000D01*
G75*
G02*
X161600000Y-109649999I0J-249999D01*
G01*
X161600000Y-110550001D01*
G75*
G02*
X161350001Y-110800000I-249999J0D01*
G01*
X160649999Y-110800000D01*
G75*
G02*
X160400000Y-110550001I0J249999D01*
G01*
G37*
%TD.AperFunction*%
%TD*%
%TO.P,R1.12,2*%
%TO.N,3.3V*%
%TA.AperFunction,SMDPad,CuDef*%
G36*
G01*
X162400000Y-112950001D02*
X162400000Y-112049999D01*
G75*
G02*
X162649999Y-111800000I249999J0D01*
G01*
X163350001Y-111800000D01*
G75*
G02*
X163600000Y-112049999I0J-249999D01*
G01*
X163600000Y-112950001D01*
G75*
G02*
X163350001Y-113200000I-249999J0D01*
G01*
X162649999Y-113200000D01*
G75*
G02*
X162400000Y-112950001I0J249999D01*
G01*
G37*
%TD.AperFunction*%
%TO.P,R1.12,1*%
%TO.N,GND*%
%TA.AperFunction,SMDPad,CuDef*%
G36*
G01*
X160400000Y-112950001D02*
X160400000Y-112049999D01*
G75*
G02*
X160649999Y-111800000I249999J0D01*
G01*
X161350001Y-111800000D01*
G75*
G02*
X161600000Y-112049999I0J-249999D01*
G01*
X161600000Y-112950001D01*
G75*
G02*
X161350001Y-113200000I-249999J0D01*
G01*
X160649999Y-113200000D01*
G75*
G02*
X160400000Y-112950001I0J249999D01*
G01*
G37*
%TD.AperFunction*%
%TD*%
%TO.P,R1.11,2*%
%TO.N,Net-(J37-Pad3)*%
%TA.AperFunction,SMDPad,CuDef*%
G36*
G01*
X163500000Y-123749999D02*
X163500000Y-124650001D01*
G75*
G02*
X163250001Y-124900000I-249999J0D01*
G01*
X162549999Y-124900000D01*
G75*
G02*
X162300000Y-124650001I0J249999D01*
G01*
X162300000Y-123749999D01*
G75*
G02*
X162549999Y-123500000I249999J0D01*
G01*
X163250001Y-123500000D01*
G75*
G02*
X163500000Y-123749999I0J-249999D01*
G01*
G37*
%TD.AperFunction*%
%TO.P,R1.11,1*%
%TO.N,GND*%
%TA.AperFunction,SMDPad,CuDef*%
G36*
G01*
X165500000Y-123749999D02*
X165500000Y-124650001D01*
G75*
G02*
X165250001Y-124900000I-249999J0D01*
G01*
X164549999Y-124900000D01*
G75*
G02*
X164300000Y-124650001I0J249999D01*
G01*
X164300000Y-123749999D01*
G75*
G02*
X164549999Y-123500000I249999J0D01*
G01*
X165250001Y-123500000D01*
G75*
G02*
X165500000Y-123749999I0J-249999D01*
G01*
G37*
%TD.AperFunction*%
%TD*%
%TO.P,R1.10,2*%
%TO.N,B_RXD*%
%TA.AperFunction,SMDPad,CuDef*%
G36*
G01*
X159600000Y-123749999D02*
X159600000Y-124650001D01*
G75*
G02*
X159350001Y-124900000I-249999J0D01*
G01*
X158649999Y-124900000D01*
G75*
G02*
X158400000Y-124650001I0J249999D01*
G01*
X158400000Y-123749999D01*
G75*
G02*
X158649999Y-123500000I249999J0D01*
G01*
X159350001Y-123500000D01*
G75*
G02*
X159600000Y-123749999I0J-249999D01*
G01*
G37*
%TD.AperFunction*%
%TO.P,R1.10,1*%
%TO.N,Net-(J37-Pad3)*%
%TA.AperFunction,SMDPad,CuDef*%
G36*
G01*
X161600000Y-123749999D02*
X161600000Y-124650001D01*
G75*
G02*
X161350001Y-124900000I-249999J0D01*
G01*
X160649999Y-124900000D01*
G75*
G02*
X160400000Y-124650001I0J249999D01*
G01*
X160400000Y-123749999D01*
G75*
G02*
X160649999Y-123500000I249999J0D01*
G01*
X161350001Y-123500000D01*
G75*
G02*
X161600000Y-123749999I0J-249999D01*
G01*
G37*
%TD.AperFunction*%
%TD*%
D14*
%TO.P,Q1.1,3*%
%TO.N,5V*%
X167100000Y-111600000D03*
%TO.P,Q1.1,2*%
%TO.N,3.3V*%
X165100000Y-112550000D03*
%TO.P,Q1.1,1*%
%TO.N,Net-(Q1.1-Pad1)*%
X165100000Y-110650000D03*
%TD*%
D11*
%TO.P,J37,5*%
%TO.N,B_STAT*%
X157940000Y-115700000D03*
%TO.P,J37,4*%
%TO.N,B_TXD*%
X160480000Y-115700000D03*
%TO.P,J37,3*%
%TO.N,Net-(J37-Pad3)*%
X163020000Y-115700000D03*
%TO.P,J37,2*%
%TO.N,3.3V*%
X165560000Y-115700000D03*
D12*
%TO.P,J37,1*%
%TO.N,GND*%
X168100000Y-115700000D03*
%TD*%
%TO.P,R1.6,2*%
%TO.N,Net-(J1.36-Pad2)*%
%TA.AperFunction,SMDPad,CuDef*%
G36*
G01*
X113049999Y-99300000D02*
X113950001Y-99300000D01*
G75*
G02*
X114200000Y-99549999I0J-249999D01*
G01*
X114200000Y-100250001D01*
G75*
G02*
X113950001Y-100500000I-249999J0D01*
G01*
X113049999Y-100500000D01*
G75*
G02*
X112800000Y-100250001I0J249999D01*
G01*
X112800000Y-99549999D01*
G75*
G02*
X113049999Y-99300000I249999J0D01*
G01*
G37*
%TD.AperFunction*%
%TO.P,R1.6,1*%
%TO.N,Net-(D1.4-Pad2)*%
%TA.AperFunction,SMDPad,CuDef*%
G36*
G01*
X113049999Y-97300000D02*
X113950001Y-97300000D01*
G75*
G02*
X114200000Y-97549999I0J-249999D01*
G01*
X114200000Y-98250001D01*
G75*
G02*
X113950001Y-98500000I-249999J0D01*
G01*
X113049999Y-98500000D01*
G75*
G02*
X112800000Y-98250001I0J249999D01*
G01*
X112800000Y-97549999D01*
G75*
G02*
X113049999Y-97300000I249999J0D01*
G01*
G37*
%TD.AperFunction*%
%TD*%
%TO.P,R1.5,2*%
%TO.N,Net-(J1.36-Pad3)*%
%TA.AperFunction,SMDPad,CuDef*%
G36*
G01*
X113049999Y-95300000D02*
X113950001Y-95300000D01*
G75*
G02*
X114200000Y-95549999I0J-249999D01*
G01*
X114200000Y-96250001D01*
G75*
G02*
X113950001Y-96500000I-249999J0D01*
G01*
X113049999Y-96500000D01*
G75*
G02*
X112800000Y-96250001I0J249999D01*
G01*
X112800000Y-95549999D01*
G75*
G02*
X113049999Y-95300000I249999J0D01*
G01*
G37*
%TD.AperFunction*%
%TO.P,R1.5,1*%
%TO.N,Net-(D1.3-Pad2)*%
%TA.AperFunction,SMDPad,CuDef*%
G36*
G01*
X113049999Y-93300000D02*
X113950001Y-93300000D01*
G75*
G02*
X114200000Y-93549999I0J-249999D01*
G01*
X114200000Y-94250001D01*
G75*
G02*
X113950001Y-94500000I-249999J0D01*
G01*
X113049999Y-94500000D01*
G75*
G02*
X112800000Y-94250001I0J249999D01*
G01*
X112800000Y-93549999D01*
G75*
G02*
X113049999Y-93300000I249999J0D01*
G01*
G37*
%TD.AperFunction*%
%TD*%
%TO.P,R1.4,2*%
%TO.N,Net-(J1.36-Pad4)*%
%TA.AperFunction,SMDPad,CuDef*%
G36*
G01*
X113149999Y-91400000D02*
X114050001Y-91400000D01*
G75*
G02*
X114300000Y-91649999I0J-249999D01*
G01*
X114300000Y-92350001D01*
G75*
G02*
X114050001Y-92600000I-249999J0D01*
G01*
X113149999Y-92600000D01*
G75*
G02*
X112900000Y-92350001I0J249999D01*
G01*
X112900000Y-91649999D01*
G75*
G02*
X113149999Y-91400000I249999J0D01*
G01*
G37*
%TD.AperFunction*%
%TO.P,R1.4,1*%
%TO.N,Net-(D1.2-Pad2)*%
%TA.AperFunction,SMDPad,CuDef*%
G36*
G01*
X113149999Y-89400000D02*
X114050001Y-89400000D01*
G75*
G02*
X114300000Y-89649999I0J-249999D01*
G01*
X114300000Y-90350001D01*
G75*
G02*
X114050001Y-90600000I-249999J0D01*
G01*
X113149999Y-90600000D01*
G75*
G02*
X112900000Y-90350001I0J249999D01*
G01*
X112900000Y-89649999D01*
G75*
G02*
X113149999Y-89400000I249999J0D01*
G01*
G37*
%TD.AperFunction*%
%TD*%
%TO.P,R1.7,2*%
%TO.N,Net-(J1.36-Pad1)*%
%TA.AperFunction,SMDPad,CuDef*%
G36*
G01*
X112949999Y-103300000D02*
X113850001Y-103300000D01*
G75*
G02*
X114100000Y-103549999I0J-249999D01*
G01*
X114100000Y-104250001D01*
G75*
G02*
X113850001Y-104500000I-249999J0D01*
G01*
X112949999Y-104500000D01*
G75*
G02*
X112700000Y-104250001I0J249999D01*
G01*
X112700000Y-103549999D01*
G75*
G02*
X112949999Y-103300000I249999J0D01*
G01*
G37*
%TD.AperFunction*%
%TO.P,R1.7,1*%
%TO.N,Net-(D1.5-Pad2)*%
%TA.AperFunction,SMDPad,CuDef*%
G36*
G01*
X112949999Y-101300000D02*
X113850001Y-101300000D01*
G75*
G02*
X114100000Y-101549999I0J-249999D01*
G01*
X114100000Y-102250001D01*
G75*
G02*
X113850001Y-102500000I-249999J0D01*
G01*
X112949999Y-102500000D01*
G75*
G02*
X112700000Y-102250001I0J249999D01*
G01*
X112700000Y-101549999D01*
G75*
G02*
X112949999Y-101300000I249999J0D01*
G01*
G37*
%TD.AperFunction*%
%TD*%
%TA.AperFunction,SMDPad,CuDef*%
D15*
%TO.P,JP1.1,1*%
%TO.N,Net-(J1.36-Pad4)*%
G36*
X109550000Y-120500000D02*
G01*
X109050000Y-121250000D01*
X108050000Y-121250000D01*
X108050000Y-119750000D01*
X109050000Y-119750000D01*
X109550000Y-120500000D01*
G37*
%TD.AperFunction*%
%TA.AperFunction,SMDPad,CuDef*%
%TO.P,JP1.1,2*%
%TO.N,PB3*%
G36*
X110500000Y-121250000D02*
G01*
X109350000Y-121250000D01*
X109850000Y-120500000D01*
X109350000Y-119750000D01*
X110500000Y-119750000D01*
X110500000Y-121250000D01*
G37*
%TD.AperFunction*%
%TD*%
%TA.AperFunction,SMDPad,CuDef*%
%TO.P,JP1.4,1*%
%TO.N,Net-(J1.36-Pad1)*%
G36*
X109550000Y-112000000D02*
G01*
X109050000Y-112750000D01*
X108050000Y-112750000D01*
X108050000Y-111250000D01*
X109050000Y-111250000D01*
X109550000Y-112000000D01*
G37*
%TD.AperFunction*%
%TA.AperFunction,SMDPad,CuDef*%
%TO.P,JP1.4,2*%
%TO.N,PE7*%
G36*
X110500000Y-112750000D02*
G01*
X109350000Y-112750000D01*
X109850000Y-112000000D01*
X109350000Y-111250000D01*
X110500000Y-111250000D01*
X110500000Y-112750000D01*
G37*
%TD.AperFunction*%
%TD*%
%TA.AperFunction,SMDPad,CuDef*%
%TO.P,JP1.3,1*%
%TO.N,Net-(J1.36-Pad2)*%
G36*
X109700000Y-114800000D02*
G01*
X109200000Y-115550000D01*
X108200000Y-115550000D01*
X108200000Y-114050000D01*
X109200000Y-114050000D01*
X109700000Y-114800000D01*
G37*
%TD.AperFunction*%
%TA.AperFunction,SMDPad,CuDef*%
%TO.P,JP1.3,2*%
%TO.N,PB0*%
G36*
X110650000Y-115550000D02*
G01*
X109500000Y-115550000D01*
X110000000Y-114800000D01*
X109500000Y-114050000D01*
X110650000Y-114050000D01*
X110650000Y-115550000D01*
G37*
%TD.AperFunction*%
%TD*%
%TA.AperFunction,SMDPad,CuDef*%
%TO.P,JP1.2,1*%
%TO.N,Net-(J1.36-Pad3)*%
G36*
X109675000Y-117700000D02*
G01*
X109175000Y-118450000D01*
X108175000Y-118450000D01*
X108175000Y-116950000D01*
X109175000Y-116950000D01*
X109675000Y-117700000D01*
G37*
%TD.AperFunction*%
%TA.AperFunction,SMDPad,CuDef*%
%TO.P,JP1.2,2*%
%TO.N,PB2*%
G36*
X110625000Y-118450000D02*
G01*
X109475000Y-118450000D01*
X109975000Y-117700000D01*
X109475000Y-116950000D01*
X110625000Y-116950000D01*
X110625000Y-118450000D01*
G37*
%TD.AperFunction*%
%TD*%
D11*
%TO.P,J1.36,4*%
%TO.N,Net-(J1.36-Pad4)*%
X105800000Y-119920000D03*
%TO.P,J1.36,3*%
%TO.N,Net-(J1.36-Pad3)*%
X105800000Y-117380000D03*
%TO.P,J1.36,2*%
%TO.N,Net-(J1.36-Pad2)*%
X105800000Y-114840000D03*
D12*
%TO.P,J1.36,1*%
%TO.N,Net-(J1.36-Pad1)*%
X105800000Y-112300000D03*
%TD*%
%TO.P,D1.4,2*%
%TO.N,Net-(D1.4-Pad2)*%
%TA.AperFunction,SMDPad,CuDef*%
G36*
G01*
X111050000Y-98550001D02*
X111050000Y-97649999D01*
G75*
G02*
X111299999Y-97400000I249999J0D01*
G01*
X111950001Y-97400000D01*
G75*
G02*
X112200000Y-97649999I0J-249999D01*
G01*
X112200000Y-98550001D01*
G75*
G02*
X111950001Y-98800000I-249999J0D01*
G01*
X111299999Y-98800000D01*
G75*
G02*
X111050000Y-98550001I0J249999D01*
G01*
G37*
%TD.AperFunction*%
%TO.P,D1.4,1*%
%TO.N,GND*%
%TA.AperFunction,SMDPad,CuDef*%
G36*
G01*
X109000000Y-98550001D02*
X109000000Y-97649999D01*
G75*
G02*
X109249999Y-97400000I249999J0D01*
G01*
X109900001Y-97400000D01*
G75*
G02*
X110150000Y-97649999I0J-249999D01*
G01*
X110150000Y-98550001D01*
G75*
G02*
X109900001Y-98800000I-249999J0D01*
G01*
X109249999Y-98800000D01*
G75*
G02*
X109000000Y-98550001I0J249999D01*
G01*
G37*
%TD.AperFunction*%
%TD*%
%TO.P,D1.3,2*%
%TO.N,Net-(D1.3-Pad2)*%
%TA.AperFunction,SMDPad,CuDef*%
G36*
G01*
X110975000Y-94450001D02*
X110975000Y-93549999D01*
G75*
G02*
X111224999Y-93300000I249999J0D01*
G01*
X111875001Y-93300000D01*
G75*
G02*
X112125000Y-93549999I0J-249999D01*
G01*
X112125000Y-94450001D01*
G75*
G02*
X111875001Y-94700000I-249999J0D01*
G01*
X111224999Y-94700000D01*
G75*
G02*
X110975000Y-94450001I0J249999D01*
G01*
G37*
%TD.AperFunction*%
%TO.P,D1.3,1*%
%TO.N,GND*%
%TA.AperFunction,SMDPad,CuDef*%
G36*
G01*
X108925000Y-94450001D02*
X108925000Y-93549999D01*
G75*
G02*
X109174999Y-93300000I249999J0D01*
G01*
X109825001Y-93300000D01*
G75*
G02*
X110075000Y-93549999I0J-249999D01*
G01*
X110075000Y-94450001D01*
G75*
G02*
X109825001Y-94700000I-249999J0D01*
G01*
X109174999Y-94700000D01*
G75*
G02*
X108925000Y-94450001I0J249999D01*
G01*
G37*
%TD.AperFunction*%
%TD*%
%TO.P,D1.2,2*%
%TO.N,Net-(D1.2-Pad2)*%
%TA.AperFunction,SMDPad,CuDef*%
G36*
G01*
X111150000Y-90650001D02*
X111150000Y-89749999D01*
G75*
G02*
X111399999Y-89500000I249999J0D01*
G01*
X112050001Y-89500000D01*
G75*
G02*
X112300000Y-89749999I0J-249999D01*
G01*
X112300000Y-90650001D01*
G75*
G02*
X112050001Y-90900000I-249999J0D01*
G01*
X111399999Y-90900000D01*
G75*
G02*
X111150000Y-90650001I0J249999D01*
G01*
G37*
%TD.AperFunction*%
%TO.P,D1.2,1*%
%TO.N,GND*%
%TA.AperFunction,SMDPad,CuDef*%
G36*
G01*
X109100000Y-90650001D02*
X109100000Y-89749999D01*
G75*
G02*
X109349999Y-89500000I249999J0D01*
G01*
X110000001Y-89500000D01*
G75*
G02*
X110250000Y-89749999I0J-249999D01*
G01*
X110250000Y-90650001D01*
G75*
G02*
X110000001Y-90900000I-249999J0D01*
G01*
X109349999Y-90900000D01*
G75*
G02*
X109100000Y-90650001I0J249999D01*
G01*
G37*
%TD.AperFunction*%
%TD*%
%TO.P,D1.5,2*%
%TO.N,Net-(D1.5-Pad2)*%
%TA.AperFunction,SMDPad,CuDef*%
G36*
G01*
X110950000Y-102850001D02*
X110950000Y-101949999D01*
G75*
G02*
X111199999Y-101700000I249999J0D01*
G01*
X111850001Y-101700000D01*
G75*
G02*
X112100000Y-101949999I0J-249999D01*
G01*
X112100000Y-102850001D01*
G75*
G02*
X111850001Y-103100000I-249999J0D01*
G01*
X111199999Y-103100000D01*
G75*
G02*
X110950000Y-102850001I0J249999D01*
G01*
G37*
%TD.AperFunction*%
%TO.P,D1.5,1*%
%TO.N,GND*%
%TA.AperFunction,SMDPad,CuDef*%
G36*
G01*
X108900000Y-102850001D02*
X108900000Y-101949999D01*
G75*
G02*
X109149999Y-101700000I249999J0D01*
G01*
X109800001Y-101700000D01*
G75*
G02*
X110050000Y-101949999I0J-249999D01*
G01*
X110050000Y-102850001D01*
G75*
G02*
X109800001Y-103100000I-249999J0D01*
G01*
X109149999Y-103100000D01*
G75*
G02*
X108900000Y-102850001I0J249999D01*
G01*
G37*
%TD.AperFunction*%
%TD*%
D10*
%TO.P,TP94,1*%
%TO.N,Net-(TP94-Pad1)*%
X134200000Y-49700000D03*
%TD*%
%TO.P,TP91,1*%
%TO.N,Net-(TP91-Pad1)*%
X164400000Y-133200000D03*
%TD*%
%TO.P,TP88,1*%
%TO.N,Net-(TP88-Pad1)*%
X129800000Y-49700000D03*
%TD*%
%TO.P,TP87,1*%
%TO.N,Net-(TP87-Pad1)*%
X118700000Y-54100000D03*
%TD*%
%TO.P,TP84,1*%
%TO.N,Net-(TP84-Pad1)*%
X164400000Y-128800000D03*
%TD*%
%TO.P,TP81,1*%
%TO.N,Net-(TP81-Pad1)*%
X125400000Y-49700000D03*
%TD*%
%TO.P,TP80,1*%
%TO.N,Net-(TP80-Pad1)*%
X125400000Y-58500000D03*
%TD*%
%TO.P,TP79,1*%
%TO.N,Net-(TP79-Pad1)*%
X131900000Y-54100000D03*
%TD*%
%TO.P,TP76,1*%
%TO.N,Net-(TP76-Pad1)*%
X150900000Y-133800000D03*
%TD*%
%TO.P,TP74,1*%
%TO.N,Net-(TP74-Pad1)*%
X116600000Y-49700000D03*
%TD*%
%TO.P,TP73,1*%
%TO.N,Net-(TP73-Pad1)*%
X134200000Y-58500000D03*
%TD*%
%TO.P,TP72,1*%
%TO.N,Net-(TP72-Pad1)*%
X127500000Y-54100000D03*
%TD*%
%TO.P,TP71,1*%
%TO.N,Net-(TP71-Pad1)*%
X129800000Y-58500000D03*
%TD*%
%TO.P,TP68,1*%
%TO.N,Net-(TP68-Pad1)*%
X146500000Y-133800000D03*
%TD*%
%TO.P,TP66,1*%
%TO.N,Net-(TP66-Pad1)*%
X121000000Y-49700000D03*
%TD*%
%TO.P,TP65,1*%
%TO.N,Net-(TP65-Pad1)*%
X123100000Y-54100000D03*
%TD*%
%TO.P,TP64,1*%
%TO.N,Net-(TP64-Pad1)*%
X121000000Y-58500000D03*
%TD*%
%TO.P,TP63,1*%
%TO.N,Net-(TP63-Pad1)*%
X143000000Y-58500000D03*
%TD*%
%TO.P,TP58,1*%
%TO.N,Net-(TP58-Pad1)*%
X143000000Y-49700000D03*
%TD*%
%TO.P,TP57,1*%
%TO.N,Net-(TP57-Pad1)*%
X140700000Y-54100000D03*
%TD*%
%TO.P,TP56,1*%
%TO.N,Net-(TP56-Pad1)*%
X138600000Y-58500000D03*
%TD*%
%TO.P,TP50,1*%
%TO.N,Net-(TP50-Pad1)*%
X136300000Y-54100000D03*
%TD*%
%TO.P,TP49,1*%
%TO.N,Net-(TP49-Pad1)*%
X138600000Y-49700000D03*
%TD*%
%TO.P,TP42,1*%
%TO.N,Net-(TP42-Pad1)*%
X116600000Y-58500000D03*
%TD*%
%TO.P,TP37,1*%
%TO.N,Net-(TP37-Pad1)*%
X160100000Y-95800000D03*
%TD*%
%TO.P,TP32,1*%
%TO.N,5V*%
X116300000Y-80800000D03*
%TD*%
%TO.P,TP25,1*%
%TO.N,Net-(TP25-Pad1)*%
X160100000Y-104600000D03*
%TD*%
%TO.P,TP18,1*%
%TO.N,Net-(TP18-Pad1)*%
X160000000Y-128800000D03*
%TD*%
%TO.P,TP12,1*%
%TO.N,Net-(TP12-Pad1)*%
X164500000Y-95800000D03*
%TD*%
%TO.P,TP9,1*%
%TO.N,Net-(TP9-Pad1)*%
X168900000Y-95800000D03*
%TD*%
%TO.P,TP8,1*%
%TO.N,Net-(TP8-Pad1)*%
X166800000Y-100200000D03*
%TD*%
%TO.P,TP7,1*%
%TO.N,Net-(TP7-Pad1)*%
X162400000Y-100200000D03*
%TD*%
%TO.P,TP5,1*%
%TO.N,Net-(TP5-Pad1)*%
X164500000Y-104600000D03*
%TD*%
%TO.P,TP4,1*%
%TO.N,Net-(TP4-Pad1)*%
X160000000Y-133200000D03*
%TD*%
%TO.P,TP3,1*%
%TO.N,Net-(TP3-Pad1)*%
X168900000Y-104600000D03*
%TD*%
%TO.P,TP2,1*%
%TO.N,GND*%
X163200000Y-91400000D03*
%TD*%
%TO.P,TP1,1*%
%TO.N,5V*%
X169300000Y-91400000D03*
%TD*%
D16*
%TO.P,H7,1*%
%TO.N,N/C*%
X168300000Y-76300000D03*
%TD*%
%TO.P,H6,1*%
%TO.N,N/C*%
X103700000Y-125700000D03*
%TD*%
%TO.P,H5,1*%
%TO.N,N/C*%
X103800000Y-50400000D03*
%TD*%
D17*
%TO.P,J1.35,1*%
%TO.N,Net-(J1.35-Pad1)*%
X169900000Y-134200000D03*
%TD*%
%TO.P,J1.30,1*%
%TO.N,Net-(J1.30-Pad1)*%
X169900000Y-126700000D03*
%TD*%
%TO.P,J1.31,1*%
%TO.N,Net-(J1.31-Pad1)*%
X169900000Y-128200000D03*
%TD*%
%TO.P,J1.32,1*%
%TO.N,Net-(J1.32-Pad1)*%
X169900000Y-129700000D03*
%TD*%
%TO.P,J1.33,1*%
%TO.N,Net-(J1.33-Pad1)*%
X169900000Y-131200000D03*
%TD*%
%TO.P,J1.34,1*%
%TO.N,Net-(J1.34-Pad1)*%
X169900000Y-132700000D03*
%TD*%
%TO.P,J1.29,1*%
%TO.N,Net-(J1.29-Pad1)*%
X169900000Y-125200000D03*
%TD*%
%TO.P,J1.28,1*%
%TO.N,Net-(J1.28-Pad1)*%
X169900000Y-123700000D03*
%TD*%
%TO.P,J1.26,1*%
%TO.N,Net-(J1.26-Pad1)*%
X169900000Y-120700000D03*
%TD*%
%TO.P,J1.25,1*%
%TO.N,Net-(J1.25-Pad1)*%
X169900000Y-119200000D03*
%TD*%
%TO.P,J1.24,1*%
%TO.N,Net-(J1.24-Pad1)*%
X169900000Y-117700000D03*
%TD*%
%TO.P,J1.23,1*%
%TO.N,Net-(J1.23-Pad1)*%
X169900000Y-116200000D03*
%TD*%
%TO.P,J1.27,1*%
%TO.N,Net-(J1.27-Pad1)*%
X169900000Y-122200000D03*
%TD*%
%TO.P,J1.13,1*%
%TO.N,Net-(J1.13-Pad1)*%
X156200000Y-120800000D03*
%TD*%
%TO.P,J1.15,1*%
%TO.N,Net-(J1.15-Pad1)*%
X156200000Y-123800000D03*
%TD*%
%TO.P,J1.16,1*%
%TO.N,Net-(J1.16-Pad1)*%
X156200000Y-125300000D03*
%TD*%
%TO.P,J1.11,1*%
%TO.N,Net-(J1.11-Pad1)*%
X156200000Y-117800000D03*
%TD*%
%TO.P,J1.12,1*%
%TO.N,Net-(J1.12-Pad1)*%
X156200000Y-119300000D03*
%TD*%
%TO.P,J1.17,1*%
%TO.N,Net-(J1.17-Pad1)*%
X156200000Y-126800000D03*
%TD*%
%TO.P,J1.22,1*%
%TO.N,Net-(J1.22-Pad1)*%
X156200000Y-134300000D03*
%TD*%
%TO.P,J1.14,1*%
%TO.N,Net-(J1.14-Pad1)*%
X156200000Y-122300000D03*
%TD*%
%TO.P,J1.20,1*%
%TO.N,Net-(J1.20-Pad1)*%
X156200000Y-131300000D03*
%TD*%
%TO.P,J1.19,1*%
%TO.N,Net-(J1.19-Pad1)*%
X156200000Y-129800000D03*
%TD*%
%TO.P,J1.18,1*%
%TO.N,Net-(J1.18-Pad1)*%
X156200000Y-128300000D03*
%TD*%
%TO.P,J1.21,1*%
%TO.N,Net-(J1.21-Pad1)*%
X156200000Y-132800000D03*
%TD*%
D11*
%TO.P,J1.3,16*%
%TO.N,M1B*%
X152400000Y-88900000D03*
%TO.P,J1.3,15*%
%TO.N,M1A*%
X152400000Y-91440000D03*
%TO.P,J1.3,14*%
%TO.N,M2B*%
X152400000Y-93980000D03*
%TO.P,J1.3,13*%
%TO.N,M2A*%
X152400000Y-96520000D03*
%TO.P,J1.3,12*%
%TO.N,M3B*%
X152400000Y-99060000D03*
%TO.P,J1.3,11*%
%TO.N,M3A*%
X152400000Y-101600000D03*
%TO.P,J1.3,10*%
%TO.N,M4B*%
X152400000Y-104140000D03*
%TO.P,J1.3,9*%
%TO.N,M4A*%
X152400000Y-106680000D03*
%TO.P,J1.3,8*%
%TO.N,PC5*%
X152400000Y-109220000D03*
%TO.P,J1.3,7*%
%TO.N,PC4*%
X152400000Y-111760000D03*
%TO.P,J1.3,6*%
%TO.N,PC3*%
X152400000Y-114300000D03*
%TO.P,J1.3,5*%
%TO.N,B_STAT*%
X152400000Y-116840000D03*
%TO.P,J1.3,4*%
%TO.N,PC1*%
X152400000Y-119380000D03*
%TO.P,J1.3,3*%
%TO.N,PC0*%
X152400000Y-121920000D03*
%TO.P,J1.3,2*%
%TO.N,PG1*%
X152400000Y-124460000D03*
D12*
%TO.P,J1.3,1*%
%TO.N,PG0*%
X152400000Y-127000000D03*
%TD*%
D11*
%TO.P,J1.7,4*%
%TO.N,PD1*%
X115824000Y-127000000D03*
%TO.P,J1.7,3*%
%TO.N,PD0*%
X115824000Y-124460000D03*
%TO.P,J1.7,2*%
%TO.N,5V*%
X115824000Y-121920000D03*
D12*
%TO.P,J1.7,1*%
%TO.N,GND*%
X115824000Y-119380000D03*
%TD*%
%TA.AperFunction,SMDPad,CuDef*%
D15*
%TO.P,JP3.15,1*%
%TO.N,M3PWM*%
G36*
X135128000Y-71988000D02*
G01*
X135878000Y-72488000D01*
X135878000Y-73488000D01*
X134378000Y-73488000D01*
X134378000Y-72488000D01*
X135128000Y-71988000D01*
G37*
%TD.AperFunction*%
%TA.AperFunction,SMDPad,CuDef*%
%TO.P,JP3.15,2*%
%TO.N,Net-(J3.6-Pad2)*%
G36*
X135878000Y-71038000D02*
G01*
X135878000Y-72188000D01*
X135128000Y-71688000D01*
X134378000Y-72188000D01*
X134378000Y-71038000D01*
X135878000Y-71038000D01*
G37*
%TD.AperFunction*%
%TD*%
%TA.AperFunction,SMDPad,CuDef*%
%TO.P,JP3.14,1*%
%TO.N,M3A*%
G36*
X137668000Y-71988000D02*
G01*
X138418000Y-72488000D01*
X138418000Y-73488000D01*
X136918000Y-73488000D01*
X136918000Y-72488000D01*
X137668000Y-71988000D01*
G37*
%TD.AperFunction*%
%TA.AperFunction,SMDPad,CuDef*%
%TO.P,JP3.14,2*%
%TO.N,Net-(J3.6-Pad3)*%
G36*
X138418000Y-71038000D02*
G01*
X138418000Y-72188000D01*
X137668000Y-71688000D01*
X136918000Y-72188000D01*
X136918000Y-71038000D01*
X138418000Y-71038000D01*
G37*
%TD.AperFunction*%
%TD*%
%TA.AperFunction,SMDPad,CuDef*%
%TO.P,JP3.13,1*%
%TO.N,M4B*%
G36*
X140208000Y-71951000D02*
G01*
X140958000Y-72451000D01*
X140958000Y-73451000D01*
X139458000Y-73451000D01*
X139458000Y-72451000D01*
X140208000Y-71951000D01*
G37*
%TD.AperFunction*%
%TA.AperFunction,SMDPad,CuDef*%
%TO.P,JP3.13,2*%
%TO.N,Net-(J3.6-Pad4)*%
G36*
X140958000Y-71001000D02*
G01*
X140958000Y-72151000D01*
X140208000Y-71651000D01*
X139458000Y-72151000D01*
X139458000Y-71001000D01*
X140958000Y-71001000D01*
G37*
%TD.AperFunction*%
%TD*%
%TA.AperFunction,SMDPad,CuDef*%
%TO.P,JP3.12,1*%
%TO.N,M4A*%
G36*
X142875000Y-72025000D02*
G01*
X143625000Y-72525000D01*
X143625000Y-73525000D01*
X142125000Y-73525000D01*
X142125000Y-72525000D01*
X142875000Y-72025000D01*
G37*
%TD.AperFunction*%
%TA.AperFunction,SMDPad,CuDef*%
%TO.P,JP3.12,2*%
%TO.N,Net-(J3.6-Pad5)*%
G36*
X143625000Y-71075000D02*
G01*
X143625000Y-72225000D01*
X142875000Y-71725000D01*
X142125000Y-72225000D01*
X142125000Y-71075000D01*
X143625000Y-71075000D01*
G37*
%TD.AperFunction*%
%TD*%
%TA.AperFunction,SMDPad,CuDef*%
%TO.P,JP3.10,1*%
%TO.N,M1B*%
G36*
X116332000Y-71951000D02*
G01*
X117082000Y-72451000D01*
X117082000Y-73451000D01*
X115582000Y-73451000D01*
X115582000Y-72451000D01*
X116332000Y-71951000D01*
G37*
%TD.AperFunction*%
%TA.AperFunction,SMDPad,CuDef*%
%TO.P,JP3.10,2*%
%TO.N,Net-(J3.5-Pad1)*%
G36*
X117082000Y-71001000D02*
G01*
X117082000Y-72151000D01*
X116332000Y-71651000D01*
X115582000Y-72151000D01*
X115582000Y-71001000D01*
X117082000Y-71001000D01*
G37*
%TD.AperFunction*%
%TD*%
%TA.AperFunction,SMDPad,CuDef*%
%TO.P,JP3.9,1*%
%TO.N,M1A*%
G36*
X118872000Y-71951000D02*
G01*
X119622000Y-72451000D01*
X119622000Y-73451000D01*
X118122000Y-73451000D01*
X118122000Y-72451000D01*
X118872000Y-71951000D01*
G37*
%TD.AperFunction*%
%TA.AperFunction,SMDPad,CuDef*%
%TO.P,JP3.9,2*%
%TO.N,Net-(J3.5-Pad2)*%
G36*
X119622000Y-71001000D02*
G01*
X119622000Y-72151000D01*
X118872000Y-71651000D01*
X118122000Y-72151000D01*
X118122000Y-71001000D01*
X119622000Y-71001000D01*
G37*
%TD.AperFunction*%
%TD*%
%TA.AperFunction,SMDPad,CuDef*%
%TO.P,JP3.8,1*%
%TO.N,M1PWM*%
G36*
X121412000Y-71951000D02*
G01*
X122162000Y-72451000D01*
X122162000Y-73451000D01*
X120662000Y-73451000D01*
X120662000Y-72451000D01*
X121412000Y-71951000D01*
G37*
%TD.AperFunction*%
%TA.AperFunction,SMDPad,CuDef*%
%TO.P,JP3.8,2*%
%TO.N,Net-(J3.5-Pad3)*%
G36*
X122162000Y-71001000D02*
G01*
X122162000Y-72151000D01*
X121412000Y-71651000D01*
X120662000Y-72151000D01*
X120662000Y-71001000D01*
X122162000Y-71001000D01*
G37*
%TD.AperFunction*%
%TD*%
%TA.AperFunction,SMDPad,CuDef*%
%TO.P,JP3.11,1*%
%TO.N,M4PWM*%
G36*
X145288000Y-72025000D02*
G01*
X146038000Y-72525000D01*
X146038000Y-73525000D01*
X144538000Y-73525000D01*
X144538000Y-72525000D01*
X145288000Y-72025000D01*
G37*
%TD.AperFunction*%
%TA.AperFunction,SMDPad,CuDef*%
%TO.P,JP3.11,2*%
%TO.N,Net-(J3.6-Pad6)*%
G36*
X146038000Y-71075000D02*
G01*
X146038000Y-72225000D01*
X145288000Y-71725000D01*
X144538000Y-72225000D01*
X144538000Y-71075000D01*
X146038000Y-71075000D01*
G37*
%TD.AperFunction*%
%TD*%
%TA.AperFunction,SMDPad,CuDef*%
%TO.P,JP3.7,1*%
%TO.N,M2B*%
G36*
X123952000Y-71951000D02*
G01*
X124702000Y-72451000D01*
X124702000Y-73451000D01*
X123202000Y-73451000D01*
X123202000Y-72451000D01*
X123952000Y-71951000D01*
G37*
%TD.AperFunction*%
%TA.AperFunction,SMDPad,CuDef*%
%TO.P,JP3.7,2*%
%TO.N,Net-(J3.5-Pad4)*%
G36*
X124702000Y-71001000D02*
G01*
X124702000Y-72151000D01*
X123952000Y-71651000D01*
X123202000Y-72151000D01*
X123202000Y-71001000D01*
X124702000Y-71001000D01*
G37*
%TD.AperFunction*%
%TD*%
%TA.AperFunction,SMDPad,CuDef*%
%TO.P,JP3.16,1*%
%TO.N,M3B*%
G36*
X132588000Y-71988000D02*
G01*
X133338000Y-72488000D01*
X133338000Y-73488000D01*
X131838000Y-73488000D01*
X131838000Y-72488000D01*
X132588000Y-71988000D01*
G37*
%TD.AperFunction*%
%TA.AperFunction,SMDPad,CuDef*%
%TO.P,JP3.16,2*%
%TO.N,Net-(J3.6-Pad1)*%
G36*
X133338000Y-71038000D02*
G01*
X133338000Y-72188000D01*
X132588000Y-71688000D01*
X131838000Y-72188000D01*
X131838000Y-71038000D01*
X133338000Y-71038000D01*
G37*
%TD.AperFunction*%
%TD*%
%TA.AperFunction,SMDPad,CuDef*%
%TO.P,JP3.6,1*%
%TO.N,M2A*%
G36*
X126492000Y-71898000D02*
G01*
X127242000Y-72398000D01*
X127242000Y-73398000D01*
X125742000Y-73398000D01*
X125742000Y-72398000D01*
X126492000Y-71898000D01*
G37*
%TD.AperFunction*%
%TA.AperFunction,SMDPad,CuDef*%
%TO.P,JP3.6,2*%
%TO.N,Net-(J3.5-Pad5)*%
G36*
X127242000Y-70948000D02*
G01*
X127242000Y-72098000D01*
X126492000Y-71598000D01*
X125742000Y-72098000D01*
X125742000Y-70948000D01*
X127242000Y-70948000D01*
G37*
%TD.AperFunction*%
%TD*%
%TA.AperFunction,SMDPad,CuDef*%
%TO.P,JP3.5,1*%
%TO.N,M2PWM*%
G36*
X128905000Y-71988000D02*
G01*
X129655000Y-72488000D01*
X129655000Y-73488000D01*
X128155000Y-73488000D01*
X128155000Y-72488000D01*
X128905000Y-71988000D01*
G37*
%TD.AperFunction*%
%TA.AperFunction,SMDPad,CuDef*%
%TO.P,JP3.5,2*%
%TO.N,Net-(J3.5-Pad6)*%
G36*
X129655000Y-71038000D02*
G01*
X129655000Y-72188000D01*
X128905000Y-71688000D01*
X128155000Y-72188000D01*
X128155000Y-71038000D01*
X129655000Y-71038000D01*
G37*
%TD.AperFunction*%
%TD*%
D11*
%TO.P,J3.5,6*%
%TO.N,Net-(J3.5-Pad6)*%
X129159000Y-69088000D03*
%TO.P,J3.5,5*%
%TO.N,Net-(J3.5-Pad5)*%
X126619000Y-69088000D03*
%TO.P,J3.5,4*%
%TO.N,Net-(J3.5-Pad4)*%
X124079000Y-69088000D03*
%TO.P,J3.5,3*%
%TO.N,Net-(J3.5-Pad3)*%
X121539000Y-69088000D03*
%TO.P,J3.5,2*%
%TO.N,Net-(J3.5-Pad2)*%
X118999000Y-69088000D03*
D12*
%TO.P,J3.5,1*%
%TO.N,Net-(J3.5-Pad1)*%
X116459000Y-69088000D03*
%TD*%
D11*
%TO.P,J3.6,6*%
%TO.N,Net-(J3.6-Pad6)*%
X145415000Y-69088000D03*
%TO.P,J3.6,5*%
%TO.N,Net-(J3.6-Pad5)*%
X142875000Y-69088000D03*
%TO.P,J3.6,4*%
%TO.N,Net-(J3.6-Pad4)*%
X140335000Y-69088000D03*
%TO.P,J3.6,3*%
%TO.N,Net-(J3.6-Pad3)*%
X137795000Y-69088000D03*
%TO.P,J3.6,2*%
%TO.N,Net-(J3.6-Pad2)*%
X135255000Y-69088000D03*
D12*
%TO.P,J3.6,1*%
%TO.N,Net-(J3.6-Pad1)*%
X132715000Y-69088000D03*
%TD*%
D11*
%TO.P,J1.2,6*%
%TO.N,5V*%
X105918000Y-95351600D03*
%TO.P,J1.2,5*%
%TO.N,/atmega128/RESET*%
X105918000Y-92811600D03*
%TO.P,J1.2,4*%
%TO.N,PB1*%
X105918000Y-90271600D03*
%TO.P,J1.2,3*%
%TO.N,/atmega128/PDO*%
X105918000Y-87731600D03*
%TO.P,J1.2,2*%
%TO.N,/atmega128/PDI*%
X105918000Y-85191600D03*
D12*
%TO.P,J1.2,1*%
%TO.N,GND*%
X105918000Y-82651600D03*
%TD*%
%TO.P,C105,2*%
%TO.N,5V*%
%TA.AperFunction,SMDPad,CuDef*%
G36*
G01*
X134333000Y-113088000D02*
X133383000Y-113088000D01*
G75*
G02*
X133133000Y-112838000I0J250000D01*
G01*
X133133000Y-112163000D01*
G75*
G02*
X133383000Y-111913000I250000J0D01*
G01*
X134333000Y-111913000D01*
G75*
G02*
X134583000Y-112163000I0J-250000D01*
G01*
X134583000Y-112838000D01*
G75*
G02*
X134333000Y-113088000I-250000J0D01*
G01*
G37*
%TD.AperFunction*%
%TO.P,C105,1*%
%TO.N,GND*%
%TA.AperFunction,SMDPad,CuDef*%
G36*
G01*
X134333000Y-115163000D02*
X133383000Y-115163000D01*
G75*
G02*
X133133000Y-114913000I0J250000D01*
G01*
X133133000Y-114238000D01*
G75*
G02*
X133383000Y-113988000I250000J0D01*
G01*
X134333000Y-113988000D01*
G75*
G02*
X134583000Y-114238000I0J-250000D01*
G01*
X134583000Y-114913000D01*
G75*
G02*
X134333000Y-115163000I-250000J0D01*
G01*
G37*
%TD.AperFunction*%
%TD*%
%TO.P,C104,2*%
%TO.N,5V*%
%TA.AperFunction,SMDPad,CuDef*%
G36*
G01*
X126804000Y-88425000D02*
X126804000Y-89375000D01*
G75*
G02*
X126554000Y-89625000I-250000J0D01*
G01*
X125879000Y-89625000D01*
G75*
G02*
X125629000Y-89375000I0J250000D01*
G01*
X125629000Y-88425000D01*
G75*
G02*
X125879000Y-88175000I250000J0D01*
G01*
X126554000Y-88175000D01*
G75*
G02*
X126804000Y-88425000I0J-250000D01*
G01*
G37*
%TD.AperFunction*%
%TO.P,C104,1*%
%TO.N,GND*%
%TA.AperFunction,SMDPad,CuDef*%
G36*
G01*
X128879000Y-88425000D02*
X128879000Y-89375000D01*
G75*
G02*
X128629000Y-89625000I-250000J0D01*
G01*
X127954000Y-89625000D01*
G75*
G02*
X127704000Y-89375000I0J250000D01*
G01*
X127704000Y-88425000D01*
G75*
G02*
X127954000Y-88175000I250000J0D01*
G01*
X128629000Y-88175000D01*
G75*
G02*
X128879000Y-88425000I0J-250000D01*
G01*
G37*
%TD.AperFunction*%
%TD*%
D11*
%TO.P,J1.4,11*%
%TO.N,PF0*%
X124968000Y-85344000D03*
%TO.P,J1.4,10*%
%TO.N,PF1*%
X127508000Y-85344000D03*
%TO.P,J1.4,9*%
%TO.N,PF2*%
X130048000Y-85344000D03*
%TO.P,J1.4,8*%
%TO.N,PF3*%
X132588000Y-85344000D03*
%TO.P,J1.4,7*%
%TO.N,PF4*%
X135128000Y-85344000D03*
%TO.P,J1.4,6*%
%TO.N,PF5*%
X137668000Y-85344000D03*
%TO.P,J1.4,5*%
%TO.N,PF6*%
X140208000Y-85344000D03*
%TO.P,J1.4,4*%
%TO.N,PF7*%
X142748000Y-85344000D03*
%TO.P,J1.4,3*%
%TO.N,PA0*%
X145288000Y-85344000D03*
%TO.P,J1.4,2*%
%TO.N,PA1*%
X147828000Y-85344000D03*
D12*
%TO.P,J1.4,1*%
%TO.N,PA2*%
X150368000Y-85344000D03*
%TD*%
D11*
%TO.P,J1.5,13*%
%TO.N,PB6*%
X120904000Y-119380000D03*
%TO.P,J1.5,12*%
%TO.N,PB5*%
X120904000Y-116840000D03*
%TO.P,J1.5,11*%
%TO.N,M4PWM*%
X120904000Y-114300000D03*
%TO.P,J1.5,10*%
%TO.N,PB3*%
X120904000Y-111760000D03*
%TO.P,J1.5,9*%
%TO.N,PB2*%
X120904000Y-109220000D03*
%TO.P,J1.5,8*%
%TO.N,PB1*%
X120904000Y-106680000D03*
%TO.P,J1.5,7*%
%TO.N,PB0*%
X120904000Y-104140000D03*
%TO.P,J1.5,6*%
%TO.N,PE7*%
X120904000Y-101600000D03*
%TO.P,J1.5,5*%
%TO.N,PE6*%
X120904000Y-99060000D03*
%TO.P,J1.5,4*%
%TO.N,M3PWM*%
X120904000Y-96520000D03*
%TO.P,J1.5,3*%
%TO.N,M2PWM*%
X120904000Y-93980000D03*
%TO.P,J1.5,2*%
%TO.N,M1PWM*%
X120904000Y-91440000D03*
D12*
%TO.P,J1.5,1*%
%TO.N,PE2*%
X120904000Y-88900000D03*
%TD*%
D11*
%TO.P,J1.6,11*%
%TO.N,PD7*%
X148844000Y-125984000D03*
%TO.P,J1.6,10*%
%TO.N,PD6*%
X146304000Y-125984000D03*
%TO.P,J1.6,9*%
%TO.N,PD5*%
X143764000Y-125984000D03*
%TO.P,J1.6,8*%
%TO.N,PD4*%
X141224000Y-125984000D03*
%TO.P,J1.6,7*%
%TO.N,B_RXD*%
X138684000Y-125984000D03*
%TO.P,J1.6,6*%
%TO.N,B_TXD*%
X136144000Y-125984000D03*
%TO.P,J1.6,5*%
%TO.N,PD1*%
X133604000Y-125984000D03*
%TO.P,J1.6,4*%
%TO.N,PD0*%
X131064000Y-125984000D03*
%TO.P,J1.6,3*%
%TO.N,PG4*%
X128524000Y-125984000D03*
%TO.P,J1.6,2*%
%TO.N,PG3*%
X125984000Y-125984000D03*
D12*
%TO.P,J1.6,1*%
%TO.N,PB7*%
X123444000Y-125984000D03*
%TD*%
%TO.P,C101,2*%
%TO.N,GND*%
%TA.AperFunction,SMDPad,CuDef*%
G36*
G01*
X129090000Y-90711000D02*
X129090000Y-91661000D01*
G75*
G02*
X128840000Y-91911000I-250000J0D01*
G01*
X128165000Y-91911000D01*
G75*
G02*
X127915000Y-91661000I0J250000D01*
G01*
X127915000Y-90711000D01*
G75*
G02*
X128165000Y-90461000I250000J0D01*
G01*
X128840000Y-90461000D01*
G75*
G02*
X129090000Y-90711000I0J-250000D01*
G01*
G37*
%TD.AperFunction*%
%TO.P,C101,1*%
%TO.N,Net-(C101-Pad1)*%
%TA.AperFunction,SMDPad,CuDef*%
G36*
G01*
X131165000Y-90711000D02*
X131165000Y-91661000D01*
G75*
G02*
X130915000Y-91911000I-250000J0D01*
G01*
X130240000Y-91911000D01*
G75*
G02*
X129990000Y-91661000I0J250000D01*
G01*
X129990000Y-90711000D01*
G75*
G02*
X130240000Y-90461000I250000J0D01*
G01*
X130915000Y-90461000D01*
G75*
G02*
X131165000Y-90711000I0J-250000D01*
G01*
G37*
%TD.AperFunction*%
%TD*%
D18*
%TO.P,RV3,1*%
%TO.N,5V*%
X112268000Y-43053000D03*
%TO.P,RV3,2*%
%TO.N,PF0*%
X109768000Y-43053000D03*
%TO.P,RV3,3*%
%TO.N,GND*%
X107268000Y-43053000D03*
%TD*%
%TO.P,RV2,1*%
%TO.N,5V*%
X127000000Y-43053000D03*
%TO.P,RV2,2*%
%TO.N,PF1*%
X124500000Y-43053000D03*
%TO.P,RV2,3*%
%TO.N,GND*%
X122000000Y-43053000D03*
%TD*%
%TO.P,RV1,1*%
%TO.N,5V*%
X141732000Y-43053000D03*
%TO.P,RV1,2*%
%TO.N,PF2*%
X139232000Y-43053000D03*
%TO.P,RV1,3*%
%TO.N,GND*%
X136732000Y-43053000D03*
%TD*%
D13*
%TO.P,H4,1*%
%TO.N,GND*%
X109093000Y-56642000D03*
%TD*%
%TO.P,H3,1*%
%TO.N,5V*%
X109093000Y-74549000D03*
%TD*%
%TO.P,H2,1*%
%TO.N,V_MOT*%
X149098000Y-74549000D03*
%TD*%
%TO.P,H1,1*%
%TO.N,GND*%
X149098000Y-56642000D03*
%TD*%
%TA.AperFunction,SMDPad,CuDef*%
D15*
%TO.P,JP2.1,1*%
%TO.N,PC1*%
G36*
X169185000Y-84328000D02*
G01*
X168685000Y-85078000D01*
X167685000Y-85078000D01*
X167685000Y-83578000D01*
X168685000Y-83578000D01*
X169185000Y-84328000D01*
G37*
%TD.AperFunction*%
%TA.AperFunction,SMDPad,CuDef*%
%TO.P,JP2.1,2*%
%TO.N,Net-(A2.1-Pad15)*%
G36*
X170135000Y-85078000D02*
G01*
X168985000Y-85078000D01*
X169485000Y-84328000D01*
X168985000Y-83578000D01*
X170135000Y-83578000D01*
X170135000Y-85078000D01*
G37*
%TD.AperFunction*%
%TD*%
%TA.AperFunction,SMDPad,CuDef*%
%TO.P,JP2.2,1*%
%TO.N,PC0*%
G36*
X168931000Y-87376000D02*
G01*
X168431000Y-88126000D01*
X167431000Y-88126000D01*
X167431000Y-86626000D01*
X168431000Y-86626000D01*
X168931000Y-87376000D01*
G37*
%TD.AperFunction*%
%TA.AperFunction,SMDPad,CuDef*%
%TO.P,JP2.2,2*%
%TO.N,Net-(A2.1-Pad16)*%
G36*
X169881000Y-88126000D02*
G01*
X168731000Y-88126000D01*
X169231000Y-87376000D01*
X168731000Y-86626000D01*
X169881000Y-86626000D01*
X169881000Y-88126000D01*
G37*
%TD.AperFunction*%
%TD*%
D11*
%TO.P,J2.4,2*%
%TO.N,Net-(A2.1-Pad15)*%
X172212000Y-84328000D03*
D12*
%TO.P,J2.4,1*%
%TO.N,Net-(A2.1-Pad16)*%
X172212000Y-86868000D03*
%TD*%
D19*
%TO.P,U3.2,16*%
%TO.N,V_MOT*%
X188925200Y-47802800D03*
%TO.P,U3.2,8*%
X181305200Y-65582800D03*
%TO.P,U3.2,15*%
%TO.N,Net-(J3.6-Pad4)*%
X188925200Y-50342800D03*
%TO.P,U3.2,7*%
%TO.N,Net-(J3.6-Pad1)*%
X181305200Y-63042800D03*
%TO.P,U3.2,14*%
%TO.N,Net-(J3.4-Pad2)*%
X188925200Y-52882800D03*
%TO.P,U3.2,6*%
%TO.N,Net-(J3.3-Pad2)*%
X181305200Y-60502800D03*
%TO.P,U3.2,13*%
%TO.N,GND*%
X188925200Y-55422800D03*
%TO.P,U3.2,5*%
X181305200Y-57962800D03*
%TO.P,U3.2,12*%
X188925200Y-57962800D03*
%TO.P,U3.2,4*%
X181305200Y-55422800D03*
%TO.P,U3.2,11*%
%TO.N,Net-(J3.4-Pad1)*%
X188925200Y-60502800D03*
%TO.P,U3.2,3*%
%TO.N,Net-(J3.3-Pad1)*%
X181305200Y-52882800D03*
%TO.P,U3.2,10*%
%TO.N,Net-(J3.6-Pad5)*%
X188925200Y-63042800D03*
%TO.P,U3.2,2*%
%TO.N,Net-(J3.6-Pad3)*%
X181305200Y-50342800D03*
%TO.P,U3.2,9*%
%TO.N,Net-(J3.6-Pad6)*%
X188925200Y-65582800D03*
D20*
%TO.P,U3.2,1*%
%TO.N,Net-(J3.6-Pad2)*%
X181305200Y-47802800D03*
%TD*%
%TO.P,R3.5,2*%
%TO.N,Net-(D3.5-Pad2)*%
%TA.AperFunction,SMDPad,CuDef*%
G36*
G01*
X168513200Y-58158801D02*
X168513200Y-57258799D01*
G75*
G02*
X168763199Y-57008800I249999J0D01*
G01*
X169463201Y-57008800D01*
G75*
G02*
X169713200Y-57258799I0J-249999D01*
G01*
X169713200Y-58158801D01*
G75*
G02*
X169463201Y-58408800I-249999J0D01*
G01*
X168763199Y-58408800D01*
G75*
G02*
X168513200Y-58158801I0J249999D01*
G01*
G37*
%TD.AperFunction*%
%TO.P,R3.5,1*%
%TO.N,Net-(J3.5-Pad4)*%
%TA.AperFunction,SMDPad,CuDef*%
G36*
G01*
X166513200Y-58158801D02*
X166513200Y-57258799D01*
G75*
G02*
X166763199Y-57008800I249999J0D01*
G01*
X167463201Y-57008800D01*
G75*
G02*
X167713200Y-57258799I0J-249999D01*
G01*
X167713200Y-58158801D01*
G75*
G02*
X167463201Y-58408800I-249999J0D01*
G01*
X166763199Y-58408800D01*
G75*
G02*
X166513200Y-58158801I0J249999D01*
G01*
G37*
%TD.AperFunction*%
%TD*%
%TO.P,R3.4,2*%
%TO.N,Net-(D3.4-Pad2)*%
%TA.AperFunction,SMDPad,CuDef*%
G36*
G01*
X168497200Y-60698801D02*
X168497200Y-59798799D01*
G75*
G02*
X168747199Y-59548800I249999J0D01*
G01*
X169447201Y-59548800D01*
G75*
G02*
X169697200Y-59798799I0J-249999D01*
G01*
X169697200Y-60698801D01*
G75*
G02*
X169447201Y-60948800I-249999J0D01*
G01*
X168747199Y-60948800D01*
G75*
G02*
X168497200Y-60698801I0J249999D01*
G01*
G37*
%TD.AperFunction*%
%TO.P,R3.4,1*%
%TO.N,Net-(J3.5-Pad5)*%
%TA.AperFunction,SMDPad,CuDef*%
G36*
G01*
X166497200Y-60698801D02*
X166497200Y-59798799D01*
G75*
G02*
X166747199Y-59548800I249999J0D01*
G01*
X167447201Y-59548800D01*
G75*
G02*
X167697200Y-59798799I0J-249999D01*
G01*
X167697200Y-60698801D01*
G75*
G02*
X167447201Y-60948800I-249999J0D01*
G01*
X166747199Y-60948800D01*
G75*
G02*
X166497200Y-60698801I0J249999D01*
G01*
G37*
%TD.AperFunction*%
%TD*%
%TO.P,R3.3,2*%
%TO.N,Net-(D3.3-Pad2)*%
%TA.AperFunction,SMDPad,CuDef*%
G36*
G01*
X152457200Y-47606799D02*
X152457200Y-48506801D01*
G75*
G02*
X152207201Y-48756800I-249999J0D01*
G01*
X151507199Y-48756800D01*
G75*
G02*
X151257200Y-48506801I0J249999D01*
G01*
X151257200Y-47606799D01*
G75*
G02*
X151507199Y-47356800I249999J0D01*
G01*
X152207201Y-47356800D01*
G75*
G02*
X152457200Y-47606799I0J-249999D01*
G01*
G37*
%TD.AperFunction*%
%TO.P,R3.3,1*%
%TO.N,Net-(J3.5-Pad3)*%
%TA.AperFunction,SMDPad,CuDef*%
G36*
G01*
X154457200Y-47606799D02*
X154457200Y-48506801D01*
G75*
G02*
X154207201Y-48756800I-249999J0D01*
G01*
X153507199Y-48756800D01*
G75*
G02*
X153257200Y-48506801I0J249999D01*
G01*
X153257200Y-47606799D01*
G75*
G02*
X153507199Y-47356800I249999J0D01*
G01*
X154207201Y-47356800D01*
G75*
G02*
X154457200Y-47606799I0J-249999D01*
G01*
G37*
%TD.AperFunction*%
%TD*%
%TO.P,R3.1,2*%
%TO.N,Net-(D3.1-Pad2)*%
%TA.AperFunction,SMDPad,CuDef*%
G36*
G01*
X152457200Y-50146799D02*
X152457200Y-51046801D01*
G75*
G02*
X152207201Y-51296800I-249999J0D01*
G01*
X151507199Y-51296800D01*
G75*
G02*
X151257200Y-51046801I0J249999D01*
G01*
X151257200Y-50146799D01*
G75*
G02*
X151507199Y-49896800I249999J0D01*
G01*
X152207201Y-49896800D01*
G75*
G02*
X152457200Y-50146799I0J-249999D01*
G01*
G37*
%TD.AperFunction*%
%TO.P,R3.1,1*%
%TO.N,Net-(J3.5-Pad2)*%
%TA.AperFunction,SMDPad,CuDef*%
G36*
G01*
X154457200Y-50146799D02*
X154457200Y-51046801D01*
G75*
G02*
X154207201Y-51296800I-249999J0D01*
G01*
X153507199Y-51296800D01*
G75*
G02*
X153257200Y-51046801I0J249999D01*
G01*
X153257200Y-50146799D01*
G75*
G02*
X153507199Y-49896800I249999J0D01*
G01*
X154207201Y-49896800D01*
G75*
G02*
X154457200Y-50146799I0J-249999D01*
G01*
G37*
%TD.AperFunction*%
%TD*%
%TO.P,R3.2,2*%
%TO.N,Net-(D3.2-Pad2)*%
%TA.AperFunction,SMDPad,CuDef*%
G36*
G01*
X152457200Y-52686799D02*
X152457200Y-53586801D01*
G75*
G02*
X152207201Y-53836800I-249999J0D01*
G01*
X151507199Y-53836800D01*
G75*
G02*
X151257200Y-53586801I0J249999D01*
G01*
X151257200Y-52686799D01*
G75*
G02*
X151507199Y-52436800I249999J0D01*
G01*
X152207201Y-52436800D01*
G75*
G02*
X152457200Y-52686799I0J-249999D01*
G01*
G37*
%TD.AperFunction*%
%TO.P,R3.2,1*%
%TO.N,Net-(J3.5-Pad1)*%
%TA.AperFunction,SMDPad,CuDef*%
G36*
G01*
X154457200Y-52686799D02*
X154457200Y-53586801D01*
G75*
G02*
X154207201Y-53836800I-249999J0D01*
G01*
X153507199Y-53836800D01*
G75*
G02*
X153257200Y-53586801I0J249999D01*
G01*
X153257200Y-52686799D01*
G75*
G02*
X153507199Y-52436800I249999J0D01*
G01*
X154207201Y-52436800D01*
G75*
G02*
X154457200Y-52686799I0J-249999D01*
G01*
G37*
%TD.AperFunction*%
%TD*%
%TO.P,R3.12,2*%
%TO.N,Net-(D3.12-Pad2)*%
%TA.AperFunction,SMDPad,CuDef*%
G36*
G01*
X193389200Y-59936801D02*
X193389200Y-59036799D01*
G75*
G02*
X193639199Y-58786800I249999J0D01*
G01*
X194339201Y-58786800D01*
G75*
G02*
X194589200Y-59036799I0J-249999D01*
G01*
X194589200Y-59936801D01*
G75*
G02*
X194339201Y-60186800I-249999J0D01*
G01*
X193639199Y-60186800D01*
G75*
G02*
X193389200Y-59936801I0J249999D01*
G01*
G37*
%TD.AperFunction*%
%TO.P,R3.12,1*%
%TO.N,Net-(J3.6-Pad6)*%
%TA.AperFunction,SMDPad,CuDef*%
G36*
G01*
X191389200Y-59936801D02*
X191389200Y-59036799D01*
G75*
G02*
X191639199Y-58786800I249999J0D01*
G01*
X192339201Y-58786800D01*
G75*
G02*
X192589200Y-59036799I0J-249999D01*
G01*
X192589200Y-59936801D01*
G75*
G02*
X192339201Y-60186800I-249999J0D01*
G01*
X191639199Y-60186800D01*
G75*
G02*
X191389200Y-59936801I0J249999D01*
G01*
G37*
%TD.AperFunction*%
%TD*%
%TO.P,R3.7,2*%
%TO.N,Net-(D3.7-Pad2)*%
%TA.AperFunction,SMDPad,CuDef*%
G36*
G01*
X177603200Y-49892799D02*
X177603200Y-50792801D01*
G75*
G02*
X177353201Y-51042800I-249999J0D01*
G01*
X176653199Y-51042800D01*
G75*
G02*
X176403200Y-50792801I0J249999D01*
G01*
X176403200Y-49892799D01*
G75*
G02*
X176653199Y-49642800I249999J0D01*
G01*
X177353201Y-49642800D01*
G75*
G02*
X177603200Y-49892799I0J-249999D01*
G01*
G37*
%TD.AperFunction*%
%TO.P,R3.7,1*%
%TO.N,Net-(J3.6-Pad3)*%
%TA.AperFunction,SMDPad,CuDef*%
G36*
G01*
X179603200Y-49892799D02*
X179603200Y-50792801D01*
G75*
G02*
X179353201Y-51042800I-249999J0D01*
G01*
X178653199Y-51042800D01*
G75*
G02*
X178403200Y-50792801I0J249999D01*
G01*
X178403200Y-49892799D01*
G75*
G02*
X178653199Y-49642800I249999J0D01*
G01*
X179353201Y-49642800D01*
G75*
G02*
X179603200Y-49892799I0J-249999D01*
G01*
G37*
%TD.AperFunction*%
%TD*%
%TO.P,R3.8,2*%
%TO.N,Net-(D3.8-Pad2)*%
%TA.AperFunction,SMDPad,CuDef*%
G36*
G01*
X177095200Y-52432799D02*
X177095200Y-53332801D01*
G75*
G02*
X176845201Y-53582800I-249999J0D01*
G01*
X176145199Y-53582800D01*
G75*
G02*
X175895200Y-53332801I0J249999D01*
G01*
X175895200Y-52432799D01*
G75*
G02*
X176145199Y-52182800I249999J0D01*
G01*
X176845201Y-52182800D01*
G75*
G02*
X177095200Y-52432799I0J-249999D01*
G01*
G37*
%TD.AperFunction*%
%TO.P,R3.8,1*%
%TO.N,Net-(J3.6-Pad1)*%
%TA.AperFunction,SMDPad,CuDef*%
G36*
G01*
X179095200Y-52432799D02*
X179095200Y-53332801D01*
G75*
G02*
X178845201Y-53582800I-249999J0D01*
G01*
X178145199Y-53582800D01*
G75*
G02*
X177895200Y-53332801I0J249999D01*
G01*
X177895200Y-52432799D01*
G75*
G02*
X178145199Y-52182800I249999J0D01*
G01*
X178845201Y-52182800D01*
G75*
G02*
X179095200Y-52432799I0J-249999D01*
G01*
G37*
%TD.AperFunction*%
%TD*%
%TO.P,R3.9,2*%
%TO.N,Net-(D3.9-Pad2)*%
%TA.AperFunction,SMDPad,CuDef*%
G36*
G01*
X177603200Y-47352799D02*
X177603200Y-48252801D01*
G75*
G02*
X177353201Y-48502800I-249999J0D01*
G01*
X176653199Y-48502800D01*
G75*
G02*
X176403200Y-48252801I0J249999D01*
G01*
X176403200Y-47352799D01*
G75*
G02*
X176653199Y-47102800I249999J0D01*
G01*
X177353201Y-47102800D01*
G75*
G02*
X177603200Y-47352799I0J-249999D01*
G01*
G37*
%TD.AperFunction*%
%TO.P,R3.9,1*%
%TO.N,Net-(J3.6-Pad2)*%
%TA.AperFunction,SMDPad,CuDef*%
G36*
G01*
X179603200Y-47352799D02*
X179603200Y-48252801D01*
G75*
G02*
X179353201Y-48502800I-249999J0D01*
G01*
X178653199Y-48502800D01*
G75*
G02*
X178403200Y-48252801I0J249999D01*
G01*
X178403200Y-47352799D01*
G75*
G02*
X178653199Y-47102800I249999J0D01*
G01*
X179353201Y-47102800D01*
G75*
G02*
X179603200Y-47352799I0J-249999D01*
G01*
G37*
%TD.AperFunction*%
%TD*%
%TO.P,R3.10,2*%
%TO.N,Net-(D3.10-Pad2)*%
%TA.AperFunction,SMDPad,CuDef*%
G36*
G01*
X193389200Y-57396801D02*
X193389200Y-56496799D01*
G75*
G02*
X193639199Y-56246800I249999J0D01*
G01*
X194339201Y-56246800D01*
G75*
G02*
X194589200Y-56496799I0J-249999D01*
G01*
X194589200Y-57396801D01*
G75*
G02*
X194339201Y-57646800I-249999J0D01*
G01*
X193639199Y-57646800D01*
G75*
G02*
X193389200Y-57396801I0J249999D01*
G01*
G37*
%TD.AperFunction*%
%TO.P,R3.10,1*%
%TO.N,Net-(J3.6-Pad5)*%
%TA.AperFunction,SMDPad,CuDef*%
G36*
G01*
X191389200Y-57396801D02*
X191389200Y-56496799D01*
G75*
G02*
X191639199Y-56246800I249999J0D01*
G01*
X192339201Y-56246800D01*
G75*
G02*
X192589200Y-56496799I0J-249999D01*
G01*
X192589200Y-57396801D01*
G75*
G02*
X192339201Y-57646800I-249999J0D01*
G01*
X191639199Y-57646800D01*
G75*
G02*
X191389200Y-57396801I0J249999D01*
G01*
G37*
%TD.AperFunction*%
%TD*%
%TO.P,R3.11,2*%
%TO.N,Net-(D3.11-Pad2)*%
%TA.AperFunction,SMDPad,CuDef*%
G36*
G01*
X193389200Y-54856801D02*
X193389200Y-53956799D01*
G75*
G02*
X193639199Y-53706800I249999J0D01*
G01*
X194339201Y-53706800D01*
G75*
G02*
X194589200Y-53956799I0J-249999D01*
G01*
X194589200Y-54856801D01*
G75*
G02*
X194339201Y-55106800I-249999J0D01*
G01*
X193639199Y-55106800D01*
G75*
G02*
X193389200Y-54856801I0J249999D01*
G01*
G37*
%TD.AperFunction*%
%TO.P,R3.11,1*%
%TO.N,Net-(J3.6-Pad4)*%
%TA.AperFunction,SMDPad,CuDef*%
G36*
G01*
X191389200Y-54856801D02*
X191389200Y-53956799D01*
G75*
G02*
X191639199Y-53706800I249999J0D01*
G01*
X192339201Y-53706800D01*
G75*
G02*
X192589200Y-53956799I0J-249999D01*
G01*
X192589200Y-54856801D01*
G75*
G02*
X192339201Y-55106800I-249999J0D01*
G01*
X191639199Y-55106800D01*
G75*
G02*
X191389200Y-54856801I0J249999D01*
G01*
G37*
%TD.AperFunction*%
%TD*%
%TO.P,R3.6,2*%
%TO.N,Net-(D3.6-Pad2)*%
%TA.AperFunction,SMDPad,CuDef*%
G36*
G01*
X168497200Y-63238801D02*
X168497200Y-62338799D01*
G75*
G02*
X168747199Y-62088800I249999J0D01*
G01*
X169447201Y-62088800D01*
G75*
G02*
X169697200Y-62338799I0J-249999D01*
G01*
X169697200Y-63238801D01*
G75*
G02*
X169447201Y-63488800I-249999J0D01*
G01*
X168747199Y-63488800D01*
G75*
G02*
X168497200Y-63238801I0J249999D01*
G01*
G37*
%TD.AperFunction*%
%TO.P,R3.6,1*%
%TO.N,Net-(J3.5-Pad6)*%
%TA.AperFunction,SMDPad,CuDef*%
G36*
G01*
X166497200Y-63238801D02*
X166497200Y-62338799D01*
G75*
G02*
X166747199Y-62088800I249999J0D01*
G01*
X167447201Y-62088800D01*
G75*
G02*
X167697200Y-62338799I0J-249999D01*
G01*
X167697200Y-63238801D01*
G75*
G02*
X167447201Y-63488800I-249999J0D01*
G01*
X166747199Y-63488800D01*
G75*
G02*
X166497200Y-63238801I0J249999D01*
G01*
G37*
%TD.AperFunction*%
%TD*%
D21*
%TO.P,J3.3,2*%
%TO.N,Net-(J3.3-Pad2)*%
X176305200Y-40690800D03*
D22*
%TO.P,J3.3,1*%
%TO.N,Net-(J3.3-Pad1)*%
X181305200Y-40690800D03*
%TD*%
D21*
%TO.P,J3.4,2*%
%TO.N,Net-(J3.4-Pad2)*%
X188497200Y-40690800D03*
D22*
%TO.P,J3.4,1*%
%TO.N,Net-(J3.4-Pad1)*%
X193497200Y-40690800D03*
%TD*%
D21*
%TO.P,J3.2,2*%
%TO.N,Net-(J3.2-Pad2)*%
X163859200Y-40690800D03*
D22*
%TO.P,J3.2,1*%
%TO.N,Net-(J3.2-Pad1)*%
X168859200Y-40690800D03*
%TD*%
D21*
%TO.P,J3.1,2*%
%TO.N,Net-(J3.1-Pad2)*%
X151667200Y-40690800D03*
D22*
%TO.P,J3.1,1*%
%TO.N,Net-(J3.1-Pad1)*%
X156667200Y-40690800D03*
%TD*%
%TO.P,D3.12,2*%
%TO.N,Net-(D3.12-Pad2)*%
%TA.AperFunction,SMDPad,CuDef*%
G36*
G01*
X196603200Y-59036799D02*
X196603200Y-59936801D01*
G75*
G02*
X196353201Y-60186800I-249999J0D01*
G01*
X195703199Y-60186800D01*
G75*
G02*
X195453200Y-59936801I0J249999D01*
G01*
X195453200Y-59036799D01*
G75*
G02*
X195703199Y-58786800I249999J0D01*
G01*
X196353201Y-58786800D01*
G75*
G02*
X196603200Y-59036799I0J-249999D01*
G01*
G37*
%TD.AperFunction*%
%TO.P,D3.12,1*%
%TO.N,GND*%
%TA.AperFunction,SMDPad,CuDef*%
G36*
G01*
X198653200Y-59036799D02*
X198653200Y-59936801D01*
G75*
G02*
X198403201Y-60186800I-249999J0D01*
G01*
X197753199Y-60186800D01*
G75*
G02*
X197503200Y-59936801I0J249999D01*
G01*
X197503200Y-59036799D01*
G75*
G02*
X197753199Y-58786800I249999J0D01*
G01*
X198403201Y-58786800D01*
G75*
G02*
X198653200Y-59036799I0J-249999D01*
G01*
G37*
%TD.AperFunction*%
%TD*%
%TO.P,D3.6,2*%
%TO.N,Net-(D3.6-Pad2)*%
%TA.AperFunction,SMDPad,CuDef*%
G36*
G01*
X171711200Y-62338799D02*
X171711200Y-63238801D01*
G75*
G02*
X171461201Y-63488800I-249999J0D01*
G01*
X170811199Y-63488800D01*
G75*
G02*
X170561200Y-63238801I0J249999D01*
G01*
X170561200Y-62338799D01*
G75*
G02*
X170811199Y-62088800I249999J0D01*
G01*
X171461201Y-62088800D01*
G75*
G02*
X171711200Y-62338799I0J-249999D01*
G01*
G37*
%TD.AperFunction*%
%TO.P,D3.6,1*%
%TO.N,GND*%
%TA.AperFunction,SMDPad,CuDef*%
G36*
G01*
X173761200Y-62338799D02*
X173761200Y-63238801D01*
G75*
G02*
X173511201Y-63488800I-249999J0D01*
G01*
X172861199Y-63488800D01*
G75*
G02*
X172611200Y-63238801I0J249999D01*
G01*
X172611200Y-62338799D01*
G75*
G02*
X172861199Y-62088800I249999J0D01*
G01*
X173511201Y-62088800D01*
G75*
G02*
X173761200Y-62338799I0J-249999D01*
G01*
G37*
%TD.AperFunction*%
%TD*%
%TO.P,D3.11,2*%
%TO.N,Net-(D3.11-Pad2)*%
%TA.AperFunction,SMDPad,CuDef*%
G36*
G01*
X196603200Y-53956799D02*
X196603200Y-54856801D01*
G75*
G02*
X196353201Y-55106800I-249999J0D01*
G01*
X195703199Y-55106800D01*
G75*
G02*
X195453200Y-54856801I0J249999D01*
G01*
X195453200Y-53956799D01*
G75*
G02*
X195703199Y-53706800I249999J0D01*
G01*
X196353201Y-53706800D01*
G75*
G02*
X196603200Y-53956799I0J-249999D01*
G01*
G37*
%TD.AperFunction*%
%TO.P,D3.11,1*%
%TO.N,GND*%
%TA.AperFunction,SMDPad,CuDef*%
G36*
G01*
X198653200Y-53956799D02*
X198653200Y-54856801D01*
G75*
G02*
X198403201Y-55106800I-249999J0D01*
G01*
X197753199Y-55106800D01*
G75*
G02*
X197503200Y-54856801I0J249999D01*
G01*
X197503200Y-53956799D01*
G75*
G02*
X197753199Y-53706800I249999J0D01*
G01*
X198403201Y-53706800D01*
G75*
G02*
X198653200Y-53956799I0J-249999D01*
G01*
G37*
%TD.AperFunction*%
%TD*%
%TO.P,D3.1,2*%
%TO.N,Net-(D3.1-Pad2)*%
%TA.AperFunction,SMDPad,CuDef*%
G36*
G01*
X149243200Y-51046801D02*
X149243200Y-50146799D01*
G75*
G02*
X149493199Y-49896800I249999J0D01*
G01*
X150143201Y-49896800D01*
G75*
G02*
X150393200Y-50146799I0J-249999D01*
G01*
X150393200Y-51046801D01*
G75*
G02*
X150143201Y-51296800I-249999J0D01*
G01*
X149493199Y-51296800D01*
G75*
G02*
X149243200Y-51046801I0J249999D01*
G01*
G37*
%TD.AperFunction*%
%TO.P,D3.1,1*%
%TO.N,GND*%
%TA.AperFunction,SMDPad,CuDef*%
G36*
G01*
X147193200Y-51046801D02*
X147193200Y-50146799D01*
G75*
G02*
X147443199Y-49896800I249999J0D01*
G01*
X148093201Y-49896800D01*
G75*
G02*
X148343200Y-50146799I0J-249999D01*
G01*
X148343200Y-51046801D01*
G75*
G02*
X148093201Y-51296800I-249999J0D01*
G01*
X147443199Y-51296800D01*
G75*
G02*
X147193200Y-51046801I0J249999D01*
G01*
G37*
%TD.AperFunction*%
%TD*%
%TO.P,D3.2,2*%
%TO.N,Net-(D3.2-Pad2)*%
%TA.AperFunction,SMDPad,CuDef*%
G36*
G01*
X149243200Y-53586801D02*
X149243200Y-52686799D01*
G75*
G02*
X149493199Y-52436800I249999J0D01*
G01*
X150143201Y-52436800D01*
G75*
G02*
X150393200Y-52686799I0J-249999D01*
G01*
X150393200Y-53586801D01*
G75*
G02*
X150143201Y-53836800I-249999J0D01*
G01*
X149493199Y-53836800D01*
G75*
G02*
X149243200Y-53586801I0J249999D01*
G01*
G37*
%TD.AperFunction*%
%TO.P,D3.2,1*%
%TO.N,GND*%
%TA.AperFunction,SMDPad,CuDef*%
G36*
G01*
X147193200Y-53586801D02*
X147193200Y-52686799D01*
G75*
G02*
X147443199Y-52436800I249999J0D01*
G01*
X148093201Y-52436800D01*
G75*
G02*
X148343200Y-52686799I0J-249999D01*
G01*
X148343200Y-53586801D01*
G75*
G02*
X148093201Y-53836800I-249999J0D01*
G01*
X147443199Y-53836800D01*
G75*
G02*
X147193200Y-53586801I0J249999D01*
G01*
G37*
%TD.AperFunction*%
%TD*%
%TO.P,D3.3,2*%
%TO.N,Net-(D3.3-Pad2)*%
%TA.AperFunction,SMDPad,CuDef*%
G36*
G01*
X149243200Y-48506801D02*
X149243200Y-47606799D01*
G75*
G02*
X149493199Y-47356800I249999J0D01*
G01*
X150143201Y-47356800D01*
G75*
G02*
X150393200Y-47606799I0J-249999D01*
G01*
X150393200Y-48506801D01*
G75*
G02*
X150143201Y-48756800I-249999J0D01*
G01*
X149493199Y-48756800D01*
G75*
G02*
X149243200Y-48506801I0J249999D01*
G01*
G37*
%TD.AperFunction*%
%TO.P,D3.3,1*%
%TO.N,GND*%
%TA.AperFunction,SMDPad,CuDef*%
G36*
G01*
X147193200Y-48506801D02*
X147193200Y-47606799D01*
G75*
G02*
X147443199Y-47356800I249999J0D01*
G01*
X148093201Y-47356800D01*
G75*
G02*
X148343200Y-47606799I0J-249999D01*
G01*
X148343200Y-48506801D01*
G75*
G02*
X148093201Y-48756800I-249999J0D01*
G01*
X147443199Y-48756800D01*
G75*
G02*
X147193200Y-48506801I0J249999D01*
G01*
G37*
%TD.AperFunction*%
%TD*%
%TO.P,D3.4,2*%
%TO.N,Net-(D3.4-Pad2)*%
%TA.AperFunction,SMDPad,CuDef*%
G36*
G01*
X171711200Y-59798799D02*
X171711200Y-60698801D01*
G75*
G02*
X171461201Y-60948800I-249999J0D01*
G01*
X170811199Y-60948800D01*
G75*
G02*
X170561200Y-60698801I0J249999D01*
G01*
X170561200Y-59798799D01*
G75*
G02*
X170811199Y-59548800I249999J0D01*
G01*
X171461201Y-59548800D01*
G75*
G02*
X171711200Y-59798799I0J-249999D01*
G01*
G37*
%TD.AperFunction*%
%TO.P,D3.4,1*%
%TO.N,GND*%
%TA.AperFunction,SMDPad,CuDef*%
G36*
G01*
X173761200Y-59798799D02*
X173761200Y-60698801D01*
G75*
G02*
X173511201Y-60948800I-249999J0D01*
G01*
X172861199Y-60948800D01*
G75*
G02*
X172611200Y-60698801I0J249999D01*
G01*
X172611200Y-59798799D01*
G75*
G02*
X172861199Y-59548800I249999J0D01*
G01*
X173511201Y-59548800D01*
G75*
G02*
X173761200Y-59798799I0J-249999D01*
G01*
G37*
%TD.AperFunction*%
%TD*%
%TO.P,D3.5,2*%
%TO.N,Net-(D3.5-Pad2)*%
%TA.AperFunction,SMDPad,CuDef*%
G36*
G01*
X171711200Y-57258799D02*
X171711200Y-58158801D01*
G75*
G02*
X171461201Y-58408800I-249999J0D01*
G01*
X170811199Y-58408800D01*
G75*
G02*
X170561200Y-58158801I0J249999D01*
G01*
X170561200Y-57258799D01*
G75*
G02*
X170811199Y-57008800I249999J0D01*
G01*
X171461201Y-57008800D01*
G75*
G02*
X171711200Y-57258799I0J-249999D01*
G01*
G37*
%TD.AperFunction*%
%TO.P,D3.5,1*%
%TO.N,GND*%
%TA.AperFunction,SMDPad,CuDef*%
G36*
G01*
X173761200Y-57258799D02*
X173761200Y-58158801D01*
G75*
G02*
X173511201Y-58408800I-249999J0D01*
G01*
X172861199Y-58408800D01*
G75*
G02*
X172611200Y-58158801I0J249999D01*
G01*
X172611200Y-57258799D01*
G75*
G02*
X172861199Y-57008800I249999J0D01*
G01*
X173511201Y-57008800D01*
G75*
G02*
X173761200Y-57258799I0J-249999D01*
G01*
G37*
%TD.AperFunction*%
%TD*%
%TO.P,D3.7,2*%
%TO.N,Net-(D3.7-Pad2)*%
%TA.AperFunction,SMDPad,CuDef*%
G36*
G01*
X174389200Y-50792801D02*
X174389200Y-49892799D01*
G75*
G02*
X174639199Y-49642800I249999J0D01*
G01*
X175289201Y-49642800D01*
G75*
G02*
X175539200Y-49892799I0J-249999D01*
G01*
X175539200Y-50792801D01*
G75*
G02*
X175289201Y-51042800I-249999J0D01*
G01*
X174639199Y-51042800D01*
G75*
G02*
X174389200Y-50792801I0J249999D01*
G01*
G37*
%TD.AperFunction*%
%TO.P,D3.7,1*%
%TO.N,GND*%
%TA.AperFunction,SMDPad,CuDef*%
G36*
G01*
X172339200Y-50792801D02*
X172339200Y-49892799D01*
G75*
G02*
X172589199Y-49642800I249999J0D01*
G01*
X173239201Y-49642800D01*
G75*
G02*
X173489200Y-49892799I0J-249999D01*
G01*
X173489200Y-50792801D01*
G75*
G02*
X173239201Y-51042800I-249999J0D01*
G01*
X172589199Y-51042800D01*
G75*
G02*
X172339200Y-50792801I0J249999D01*
G01*
G37*
%TD.AperFunction*%
%TD*%
%TO.P,D3.8,2*%
%TO.N,Net-(D3.8-Pad2)*%
%TA.AperFunction,SMDPad,CuDef*%
G36*
G01*
X173881200Y-53332801D02*
X173881200Y-52432799D01*
G75*
G02*
X174131199Y-52182800I249999J0D01*
G01*
X174781201Y-52182800D01*
G75*
G02*
X175031200Y-52432799I0J-249999D01*
G01*
X175031200Y-53332801D01*
G75*
G02*
X174781201Y-53582800I-249999J0D01*
G01*
X174131199Y-53582800D01*
G75*
G02*
X173881200Y-53332801I0J249999D01*
G01*
G37*
%TD.AperFunction*%
%TO.P,D3.8,1*%
%TO.N,GND*%
%TA.AperFunction,SMDPad,CuDef*%
G36*
G01*
X171831200Y-53332801D02*
X171831200Y-52432799D01*
G75*
G02*
X172081199Y-52182800I249999J0D01*
G01*
X172731201Y-52182800D01*
G75*
G02*
X172981200Y-52432799I0J-249999D01*
G01*
X172981200Y-53332801D01*
G75*
G02*
X172731201Y-53582800I-249999J0D01*
G01*
X172081199Y-53582800D01*
G75*
G02*
X171831200Y-53332801I0J249999D01*
G01*
G37*
%TD.AperFunction*%
%TD*%
%TO.P,D3.9,2*%
%TO.N,Net-(D3.9-Pad2)*%
%TA.AperFunction,SMDPad,CuDef*%
G36*
G01*
X174389200Y-48252801D02*
X174389200Y-47352799D01*
G75*
G02*
X174639199Y-47102800I249999J0D01*
G01*
X175289201Y-47102800D01*
G75*
G02*
X175539200Y-47352799I0J-249999D01*
G01*
X175539200Y-48252801D01*
G75*
G02*
X175289201Y-48502800I-249999J0D01*
G01*
X174639199Y-48502800D01*
G75*
G02*
X174389200Y-48252801I0J249999D01*
G01*
G37*
%TD.AperFunction*%
%TO.P,D3.9,1*%
%TO.N,GND*%
%TA.AperFunction,SMDPad,CuDef*%
G36*
G01*
X172339200Y-48252801D02*
X172339200Y-47352799D01*
G75*
G02*
X172589199Y-47102800I249999J0D01*
G01*
X173239201Y-47102800D01*
G75*
G02*
X173489200Y-47352799I0J-249999D01*
G01*
X173489200Y-48252801D01*
G75*
G02*
X173239201Y-48502800I-249999J0D01*
G01*
X172589199Y-48502800D01*
G75*
G02*
X172339200Y-48252801I0J249999D01*
G01*
G37*
%TD.AperFunction*%
%TD*%
%TO.P,D3.10,2*%
%TO.N,Net-(D3.10-Pad2)*%
%TA.AperFunction,SMDPad,CuDef*%
G36*
G01*
X196603200Y-56496799D02*
X196603200Y-57396801D01*
G75*
G02*
X196353201Y-57646800I-249999J0D01*
G01*
X195703199Y-57646800D01*
G75*
G02*
X195453200Y-57396801I0J249999D01*
G01*
X195453200Y-56496799D01*
G75*
G02*
X195703199Y-56246800I249999J0D01*
G01*
X196353201Y-56246800D01*
G75*
G02*
X196603200Y-56496799I0J-249999D01*
G01*
G37*
%TD.AperFunction*%
%TO.P,D3.10,1*%
%TO.N,GND*%
%TA.AperFunction,SMDPad,CuDef*%
G36*
G01*
X198653200Y-56496799D02*
X198653200Y-57396801D01*
G75*
G02*
X198403201Y-57646800I-249999J0D01*
G01*
X197753199Y-57646800D01*
G75*
G02*
X197503200Y-57396801I0J249999D01*
G01*
X197503200Y-56496799D01*
G75*
G02*
X197753199Y-56246800I249999J0D01*
G01*
X198403201Y-56246800D01*
G75*
G02*
X198653200Y-56496799I0J-249999D01*
G01*
G37*
%TD.AperFunction*%
%TD*%
D19*
%TO.P,U3.1,16*%
%TO.N,V_MOT*%
X164033200Y-48056800D03*
%TO.P,U3.1,8*%
X156413200Y-65836800D03*
%TO.P,U3.1,15*%
%TO.N,Net-(J3.5-Pad4)*%
X164033200Y-50596800D03*
%TO.P,U3.1,7*%
%TO.N,Net-(J3.5-Pad1)*%
X156413200Y-63296800D03*
%TO.P,U3.1,14*%
%TO.N,Net-(J3.2-Pad2)*%
X164033200Y-53136800D03*
%TO.P,U3.1,6*%
%TO.N,Net-(J3.1-Pad2)*%
X156413200Y-60756800D03*
%TO.P,U3.1,13*%
%TO.N,GND*%
X164033200Y-55676800D03*
%TO.P,U3.1,5*%
X156413200Y-58216800D03*
%TO.P,U3.1,12*%
X164033200Y-58216800D03*
%TO.P,U3.1,4*%
X156413200Y-55676800D03*
%TO.P,U3.1,11*%
%TO.N,Net-(J3.2-Pad1)*%
X164033200Y-60756800D03*
%TO.P,U3.1,3*%
%TO.N,Net-(J3.1-Pad1)*%
X156413200Y-53136800D03*
%TO.P,U3.1,10*%
%TO.N,Net-(J3.5-Pad5)*%
X164033200Y-63296800D03*
%TO.P,U3.1,2*%
%TO.N,Net-(J3.5-Pad2)*%
X156413200Y-50596800D03*
%TO.P,U3.1,9*%
%TO.N,Net-(J3.5-Pad6)*%
X164033200Y-65836800D03*
D20*
%TO.P,U3.1,1*%
%TO.N,Net-(J3.5-Pad3)*%
X156413200Y-48056800D03*
%TD*%
D13*
%TO.P,SW1,1*%
%TO.N,GND*%
X106172000Y-105407600D03*
%TO.P,SW1,2*%
%TO.N,/atmega128/RESET*%
X101672000Y-105407600D03*
%TO.P,SW1,1*%
%TO.N,GND*%
X106172000Y-98907600D03*
%TO.P,SW1,2*%
%TO.N,/atmega128/RESET*%
X101672000Y-98907600D03*
%TD*%
D21*
%TO.P,J2.3,2*%
%TO.N,GND*%
X197612000Y-92202000D03*
D22*
%TO.P,J2.3,1*%
%TO.N,V_MOT*%
X197612000Y-87122000D03*
%TD*%
D21*
%TO.P,J2.1,2*%
%TO.N,Net-(A2.1-Pad3)*%
X197612000Y-79756000D03*
D22*
%TO.P,J2.1,1*%
%TO.N,Net-(A2.1-Pad4)*%
X197612000Y-74676000D03*
%TD*%
D21*
%TO.P,J2.2,2*%
%TO.N,Net-(A2.1-Pad5)*%
X197612000Y-68580000D03*
D22*
%TO.P,J2.2,1*%
%TO.N,Net-(A2.1-Pad6)*%
X197612000Y-63500000D03*
%TD*%
D11*
%TO.P,J1.1,4*%
%TO.N,GND*%
X102108000Y-82651600D03*
%TO.P,J1.1,3*%
%TO.N,/atmega128/TX*%
X102108000Y-85191600D03*
%TO.P,J1.1,2*%
%TO.N,/atmega128/PDO*%
X102108000Y-87731600D03*
D12*
%TO.P,J1.1,1*%
%TO.N,5V*%
X102108000Y-90271600D03*
%TD*%
%TO.P,R1.3,2*%
%TO.N,/atmega128/PDI*%
%TA.AperFunction,SMDPad,CuDef*%
G36*
G01*
X104286000Y-80053601D02*
X104286000Y-79153599D01*
G75*
G02*
X104535999Y-78903600I249999J0D01*
G01*
X105236001Y-78903600D01*
G75*
G02*
X105486000Y-79153599I0J-249999D01*
G01*
X105486000Y-80053601D01*
G75*
G02*
X105236001Y-80303600I-249999J0D01*
G01*
X104535999Y-80303600D01*
G75*
G02*
X104286000Y-80053601I0J249999D01*
G01*
G37*
%TD.AperFunction*%
%TO.P,R1.3,1*%
%TO.N,/atmega128/TX*%
%TA.AperFunction,SMDPad,CuDef*%
G36*
G01*
X102286000Y-80053601D02*
X102286000Y-79153599D01*
G75*
G02*
X102535999Y-78903600I249999J0D01*
G01*
X103236001Y-78903600D01*
G75*
G02*
X103486000Y-79153599I0J-249999D01*
G01*
X103486000Y-80053601D01*
G75*
G02*
X103236001Y-80303600I-249999J0D01*
G01*
X102535999Y-80303600D01*
G75*
G02*
X102286000Y-80053601I0J249999D01*
G01*
G37*
%TD.AperFunction*%
%TD*%
%TO.P,R1.1,2*%
%TO.N,/atmega128/RESET*%
%TA.AperFunction,SMDPad,CuDef*%
G36*
G01*
X128416000Y-112718001D02*
X128416000Y-111817999D01*
G75*
G02*
X128665999Y-111568000I249999J0D01*
G01*
X129366001Y-111568000D01*
G75*
G02*
X129616000Y-111817999I0J-249999D01*
G01*
X129616000Y-112718001D01*
G75*
G02*
X129366001Y-112968000I-249999J0D01*
G01*
X128665999Y-112968000D01*
G75*
G02*
X128416000Y-112718001I0J249999D01*
G01*
G37*
%TD.AperFunction*%
%TO.P,R1.1,1*%
%TO.N,5V*%
%TA.AperFunction,SMDPad,CuDef*%
G36*
G01*
X126416000Y-112718001D02*
X126416000Y-111817999D01*
G75*
G02*
X126665999Y-111568000I249999J0D01*
G01*
X127366001Y-111568000D01*
G75*
G02*
X127616000Y-111817999I0J-249999D01*
G01*
X127616000Y-112718001D01*
G75*
G02*
X127366001Y-112968000I-249999J0D01*
G01*
X126665999Y-112968000D01*
G75*
G02*
X126416000Y-112718001I0J249999D01*
G01*
G37*
%TD.AperFunction*%
%TD*%
%TO.P,R1.2,2*%
%TO.N,PB5*%
%TA.AperFunction,SMDPad,CuDef*%
G36*
G01*
X107334000Y-108908001D02*
X107334000Y-108007999D01*
G75*
G02*
X107583999Y-107758000I249999J0D01*
G01*
X108284001Y-107758000D01*
G75*
G02*
X108534000Y-108007999I0J-249999D01*
G01*
X108534000Y-108908001D01*
G75*
G02*
X108284001Y-109158000I-249999J0D01*
G01*
X107583999Y-109158000D01*
G75*
G02*
X107334000Y-108908001I0J249999D01*
G01*
G37*
%TD.AperFunction*%
%TO.P,R1.2,1*%
%TO.N,Net-(D101-Pad2)*%
%TA.AperFunction,SMDPad,CuDef*%
G36*
G01*
X105334000Y-108908001D02*
X105334000Y-108007999D01*
G75*
G02*
X105583999Y-107758000I249999J0D01*
G01*
X106284001Y-107758000D01*
G75*
G02*
X106534000Y-108007999I0J-249999D01*
G01*
X106534000Y-108908001D01*
G75*
G02*
X106284001Y-109158000I-249999J0D01*
G01*
X105583999Y-109158000D01*
G75*
G02*
X105334000Y-108908001I0J249999D01*
G01*
G37*
%TD.AperFunction*%
%TD*%
%TO.P,D101,2*%
%TO.N,Net-(D101-Pad2)*%
%TA.AperFunction,SMDPad,CuDef*%
G36*
G01*
X103320000Y-108908001D02*
X103320000Y-108007999D01*
G75*
G02*
X103569999Y-107758000I249999J0D01*
G01*
X104220001Y-107758000D01*
G75*
G02*
X104470000Y-108007999I0J-249999D01*
G01*
X104470000Y-108908001D01*
G75*
G02*
X104220001Y-109158000I-249999J0D01*
G01*
X103569999Y-109158000D01*
G75*
G02*
X103320000Y-108908001I0J249999D01*
G01*
G37*
%TD.AperFunction*%
%TO.P,D101,1*%
%TO.N,GND*%
%TA.AperFunction,SMDPad,CuDef*%
G36*
G01*
X101270000Y-108908001D02*
X101270000Y-108007999D01*
G75*
G02*
X101519999Y-107758000I249999J0D01*
G01*
X102170001Y-107758000D01*
G75*
G02*
X102420000Y-108007999I0J-249999D01*
G01*
X102420000Y-108908001D01*
G75*
G02*
X102170001Y-109158000I-249999J0D01*
G01*
X101519999Y-109158000D01*
G75*
G02*
X101270000Y-108908001I0J249999D01*
G01*
G37*
%TD.AperFunction*%
%TD*%
D19*
%TO.P,A2.1,16*%
%TO.N,Net-(A2.1-Pad16)*%
X175768000Y-86868000D03*
%TO.P,A2.1,8*%
%TO.N,V_MOT*%
X188468000Y-69088000D03*
%TO.P,A2.1,15*%
%TO.N,Net-(A2.1-Pad15)*%
X175768000Y-84328000D03*
%TO.P,A2.1,7*%
%TO.N,GND*%
X188468000Y-71628000D03*
%TO.P,A2.1,14*%
%TO.N,5V*%
X175768000Y-81788000D03*
%TO.P,A2.1,6*%
%TO.N,Net-(A2.1-Pad6)*%
X188468000Y-74168000D03*
%TO.P,A2.1,13*%
%TO.N,5V*%
X175768000Y-79248000D03*
%TO.P,A2.1,5*%
%TO.N,Net-(A2.1-Pad5)*%
X188468000Y-76708000D03*
%TO.P,A2.1,12*%
%TO.N,Net-(A2.1-Pad12)*%
X175768000Y-76708000D03*
%TO.P,A2.1,4*%
%TO.N,Net-(A2.1-Pad4)*%
X188468000Y-79248000D03*
%TO.P,A2.1,11*%
%TO.N,Net-(A2.1-Pad11)*%
X175768000Y-74168000D03*
%TO.P,A2.1,3*%
%TO.N,Net-(A2.1-Pad3)*%
X188468000Y-81788000D03*
%TO.P,A2.1,10*%
%TO.N,Net-(A2.1-Pad10)*%
X175768000Y-71628000D03*
%TO.P,A2.1,2*%
%TO.N,Net-(A2.1-Pad2)*%
X188468000Y-84328000D03*
%TO.P,A2.1,9*%
%TO.N,Net-(A2.1-Pad9)*%
X175768000Y-69088000D03*
D20*
%TO.P,A2.1,1*%
%TO.N,GND*%
X188468000Y-86868000D03*
%TD*%
D23*
%TO.P,X101,2*%
%TO.N,Net-(C103-Pad1)*%
X135010400Y-118260000D03*
%TO.P,X101,1*%
%TO.N,Net-(C102-Pad1)*%
X140210400Y-118260000D03*
%TD*%
D24*
%TO.P,U101,64*%
%TO.N,5V*%
X130972400Y-95020000D03*
%TO.P,U101,63*%
%TO.N,GND*%
X131772400Y-95020000D03*
%TO.P,U101,62*%
%TO.N,Net-(C101-Pad1)*%
X132572400Y-95020000D03*
%TO.P,U101,61*%
%TO.N,PF0*%
X133372400Y-95020000D03*
%TO.P,U101,60*%
%TO.N,PF1*%
X134172400Y-95020000D03*
%TO.P,U101,59*%
%TO.N,PF2*%
X134972400Y-95020000D03*
%TO.P,U101,58*%
%TO.N,PF3*%
X135772400Y-95020000D03*
%TO.P,U101,57*%
%TO.N,PF4*%
X136572400Y-95020000D03*
%TO.P,U101,56*%
%TO.N,PF5*%
X137372400Y-95020000D03*
%TO.P,U101,55*%
%TO.N,PF6*%
X138172400Y-95020000D03*
%TO.P,U101,54*%
%TO.N,PF7*%
X138972400Y-95020000D03*
%TO.P,U101,53*%
%TO.N,GND*%
X139772400Y-95020000D03*
%TO.P,U101,52*%
%TO.N,5V*%
X140572400Y-95020000D03*
%TO.P,U101,51*%
%TO.N,PA0*%
X141372400Y-95020000D03*
%TO.P,U101,50*%
%TO.N,PA1*%
X142172400Y-95020000D03*
%TO.P,U101,49*%
%TO.N,PA2*%
X142972400Y-95020000D03*
D25*
%TO.P,U101,48*%
%TO.N,M1B*%
X144672400Y-96720000D03*
%TO.P,U101,47*%
%TO.N,M1A*%
X144672400Y-97520000D03*
%TO.P,U101,46*%
%TO.N,M2B*%
X144672400Y-98320000D03*
%TO.P,U101,45*%
%TO.N,M2A*%
X144672400Y-99120000D03*
%TO.P,U101,44*%
%TO.N,M3B*%
X144672400Y-99920000D03*
%TO.P,U101,43*%
%TO.N,M3A*%
X144672400Y-100720000D03*
%TO.P,U101,42*%
%TO.N,M4B*%
X144672400Y-101520000D03*
%TO.P,U101,41*%
%TO.N,M4A*%
X144672400Y-102320000D03*
%TO.P,U101,40*%
%TO.N,PC5*%
X144672400Y-103120000D03*
%TO.P,U101,39*%
%TO.N,PC4*%
X144672400Y-103920000D03*
%TO.P,U101,38*%
%TO.N,PC3*%
X144672400Y-104720000D03*
%TO.P,U101,37*%
%TO.N,B_STAT*%
X144672400Y-105520000D03*
%TO.P,U101,36*%
%TO.N,PC1*%
X144672400Y-106320000D03*
%TO.P,U101,35*%
%TO.N,PC0*%
X144672400Y-107120000D03*
%TO.P,U101,34*%
%TO.N,PG1*%
X144672400Y-107920000D03*
%TO.P,U101,33*%
%TO.N,PG0*%
X144672400Y-108720000D03*
D24*
%TO.P,U101,32*%
%TO.N,PD7*%
X142972400Y-110420000D03*
%TO.P,U101,31*%
%TO.N,PD6*%
X142172400Y-110420000D03*
%TO.P,U101,30*%
%TO.N,PD5*%
X141372400Y-110420000D03*
%TO.P,U101,29*%
%TO.N,PD4*%
X140572400Y-110420000D03*
%TO.P,U101,28*%
%TO.N,B_RXD*%
X139772400Y-110420000D03*
%TO.P,U101,27*%
%TO.N,B_TXD*%
X138972400Y-110420000D03*
%TO.P,U101,26*%
%TO.N,PD1*%
X138172400Y-110420000D03*
%TO.P,U101,25*%
%TO.N,PD0*%
X137372400Y-110420000D03*
%TO.P,U101,24*%
%TO.N,Net-(C102-Pad1)*%
X136572400Y-110420000D03*
%TO.P,U101,23*%
%TO.N,Net-(C103-Pad1)*%
X135772400Y-110420000D03*
%TO.P,U101,22*%
%TO.N,GND*%
X134972400Y-110420000D03*
%TO.P,U101,21*%
%TO.N,5V*%
X134172400Y-110420000D03*
%TO.P,U101,20*%
%TO.N,/atmega128/RESET*%
X133372400Y-110420000D03*
%TO.P,U101,19*%
%TO.N,PG4*%
X132572400Y-110420000D03*
%TO.P,U101,18*%
%TO.N,PG3*%
X131772400Y-110420000D03*
%TO.P,U101,17*%
%TO.N,PB7*%
X130972400Y-110420000D03*
D25*
%TO.P,U101,16*%
%TO.N,PB6*%
X129272400Y-108720000D03*
%TO.P,U101,15*%
%TO.N,PB5*%
X129272400Y-107920000D03*
%TO.P,U101,14*%
%TO.N,M4PWM*%
X129272400Y-107120000D03*
%TO.P,U101,13*%
%TO.N,PB3*%
X129272400Y-106320000D03*
%TO.P,U101,12*%
%TO.N,PB2*%
X129272400Y-105520000D03*
%TO.P,U101,11*%
%TO.N,PB1*%
X129272400Y-104720000D03*
%TO.P,U101,10*%
%TO.N,PB0*%
X129272400Y-103920000D03*
%TO.P,U101,9*%
%TO.N,PE7*%
X129272400Y-103120000D03*
%TO.P,U101,8*%
%TO.N,PE6*%
X129272400Y-102320000D03*
%TO.P,U101,7*%
%TO.N,M3PWM*%
X129272400Y-101520000D03*
%TO.P,U101,6*%
%TO.N,M2PWM*%
X129272400Y-100720000D03*
%TO.P,U101,5*%
%TO.N,M1PWM*%
X129272400Y-99920000D03*
%TO.P,U101,4*%
%TO.N,PE2*%
X129272400Y-99120000D03*
%TO.P,U101,3*%
%TO.N,/atmega128/PDO*%
X129272400Y-98320000D03*
%TO.P,U101,2*%
%TO.N,/atmega128/TX*%
X129272400Y-97520000D03*
%TO.P,U101,1*%
%TO.N,Net-(U101-Pad1)*%
X129272400Y-96720000D03*
%TD*%
%TO.P,C103,2*%
%TO.N,GND*%
%TA.AperFunction,SMDPad,CuDef*%
G36*
G01*
X132047000Y-117772500D02*
X131097000Y-117772500D01*
G75*
G02*
X130847000Y-117522500I0J250000D01*
G01*
X130847000Y-116847500D01*
G75*
G02*
X131097000Y-116597500I250000J0D01*
G01*
X132047000Y-116597500D01*
G75*
G02*
X132297000Y-116847500I0J-250000D01*
G01*
X132297000Y-117522500D01*
G75*
G02*
X132047000Y-117772500I-250000J0D01*
G01*
G37*
%TD.AperFunction*%
%TO.P,C103,1*%
%TO.N,Net-(C103-Pad1)*%
%TA.AperFunction,SMDPad,CuDef*%
G36*
G01*
X132047000Y-119847500D02*
X131097000Y-119847500D01*
G75*
G02*
X130847000Y-119597500I0J250000D01*
G01*
X130847000Y-118922500D01*
G75*
G02*
X131097000Y-118672500I250000J0D01*
G01*
X132047000Y-118672500D01*
G75*
G02*
X132297000Y-118922500I0J-250000D01*
G01*
X132297000Y-119597500D01*
G75*
G02*
X132047000Y-119847500I-250000J0D01*
G01*
G37*
%TD.AperFunction*%
%TD*%
%TO.P,C102,2*%
%TO.N,GND*%
%TA.AperFunction,SMDPad,CuDef*%
G36*
G01*
X144239000Y-117660000D02*
X143289000Y-117660000D01*
G75*
G02*
X143039000Y-117410000I0J250000D01*
G01*
X143039000Y-116735000D01*
G75*
G02*
X143289000Y-116485000I250000J0D01*
G01*
X144239000Y-116485000D01*
G75*
G02*
X144489000Y-116735000I0J-250000D01*
G01*
X144489000Y-117410000D01*
G75*
G02*
X144239000Y-117660000I-250000J0D01*
G01*
G37*
%TD.AperFunction*%
%TO.P,C102,1*%
%TO.N,Net-(C102-Pad1)*%
%TA.AperFunction,SMDPad,CuDef*%
G36*
G01*
X144239000Y-119735000D02*
X143289000Y-119735000D01*
G75*
G02*
X143039000Y-119485000I0J250000D01*
G01*
X143039000Y-118810000D01*
G75*
G02*
X143289000Y-118560000I250000J0D01*
G01*
X144239000Y-118560000D01*
G75*
G02*
X144489000Y-118810000I0J-250000D01*
G01*
X144489000Y-119485000D01*
G75*
G02*
X144239000Y-119735000I-250000J0D01*
G01*
G37*
%TD.AperFunction*%
%TD*%
%TO.P,C2,2*%
%TO.N,GND*%
%TA.AperFunction,SMDPad,CuDef*%
G36*
G01*
X193987000Y-108491000D02*
X193987000Y-109441000D01*
G75*
G02*
X193737000Y-109691000I-250000J0D01*
G01*
X193062000Y-109691000D01*
G75*
G02*
X192812000Y-109441000I0J250000D01*
G01*
X192812000Y-108491000D01*
G75*
G02*
X193062000Y-108241000I250000J0D01*
G01*
X193737000Y-108241000D01*
G75*
G02*
X193987000Y-108491000I0J-250000D01*
G01*
G37*
%TD.AperFunction*%
%TO.P,C2,1*%
%TO.N,5V*%
%TA.AperFunction,SMDPad,CuDef*%
G36*
G01*
X196062000Y-108491000D02*
X196062000Y-109441000D01*
G75*
G02*
X195812000Y-109691000I-250000J0D01*
G01*
X195137000Y-109691000D01*
G75*
G02*
X194887000Y-109441000I0J250000D01*
G01*
X194887000Y-108491000D01*
G75*
G02*
X195137000Y-108241000I250000J0D01*
G01*
X195812000Y-108241000D01*
G75*
G02*
X196062000Y-108491000I0J-250000D01*
G01*
G37*
%TD.AperFunction*%
%TD*%
%TO.P,C1,2*%
%TO.N,GND*%
%TA.AperFunction,SMDPad,CuDef*%
G36*
G01*
X176980000Y-116299000D02*
X176980000Y-115349000D01*
G75*
G02*
X177230000Y-115099000I250000J0D01*
G01*
X177905000Y-115099000D01*
G75*
G02*
X178155000Y-115349000I0J-250000D01*
G01*
X178155000Y-116299000D01*
G75*
G02*
X177905000Y-116549000I-250000J0D01*
G01*
X177230000Y-116549000D01*
G75*
G02*
X176980000Y-116299000I0J250000D01*
G01*
G37*
%TD.AperFunction*%
%TO.P,C1,1*%
%TO.N,5V*%
%TA.AperFunction,SMDPad,CuDef*%
G36*
G01*
X174905000Y-116299000D02*
X174905000Y-115349000D01*
G75*
G02*
X175155000Y-115099000I250000J0D01*
G01*
X175830000Y-115099000D01*
G75*
G02*
X176080000Y-115349000I0J-250000D01*
G01*
X176080000Y-116299000D01*
G75*
G02*
X175830000Y-116549000I-250000J0D01*
G01*
X175155000Y-116549000D01*
G75*
G02*
X174905000Y-116299000I0J250000D01*
G01*
G37*
%TD.AperFunction*%
%TD*%
D14*
%TO.P,Q4,3*%
%TO.N,Net-(K2-Pad1)*%
X181372000Y-122682000D03*
%TO.P,Q4,2*%
%TO.N,GND*%
X183372000Y-121732000D03*
%TO.P,Q4,1*%
%TO.N,Net-(Q4-Pad1)*%
X183372000Y-123632000D03*
%TD*%
D26*
%TO.P,Q3,3*%
%TO.N,GND*%
X173732000Y-124714000D03*
%TO.P,Q3,2*%
%TO.N,Net-(K2-Pad4)*%
X176022000Y-124714000D03*
D27*
%TO.P,Q3,1*%
%TO.N,Net-(Q3-Pad1)*%
X178312000Y-124714000D03*
D28*
%TO.P,Q3,4*%
%TO.N,N/C*%
X176022000Y-132147333D03*
%TD*%
D29*
%TO.P,Q2,3*%
%TO.N,Net-(K1-Pad1)*%
X182118000Y-107966000D03*
%TO.P,Q2,2*%
%TO.N,GND*%
X183068000Y-109966000D03*
%TO.P,Q2,1*%
%TO.N,Net-(Q2-Pad1)*%
X181168000Y-109966000D03*
%TD*%
D26*
%TO.P,Q1,3*%
%TO.N,GND*%
X178566000Y-108017333D03*
%TO.P,Q1,2*%
%TO.N,Net-(K1-Pad4)*%
X176276000Y-108017333D03*
D27*
%TO.P,Q1,1*%
%TO.N,Net-(Q1-Pad1)*%
X173986000Y-108017333D03*
D28*
%TO.P,Q1,4*%
%TO.N,N/C*%
X176276000Y-100584000D03*
%TD*%
D21*
%TO.P,J2,2*%
%TO.N,Net-(J2-Pad2)*%
X197612000Y-132508000D03*
D22*
%TO.P,J2,1*%
%TO.N,Net-(J2-Pad1)*%
X197612000Y-127508000D03*
%TD*%
D21*
%TO.P,J1,2*%
%TO.N,Net-(J1-Pad2)*%
X197612000Y-104568000D03*
D22*
%TO.P,J1,1*%
%TO.N,Net-(J1-Pad1)*%
X197612000Y-99568000D03*
%TD*%
%TO.P,R9,2*%
%TO.N,5V*%
%TA.AperFunction,SMDPad,CuDef*%
G36*
G01*
X194164000Y-122739999D02*
X194164000Y-123640001D01*
G75*
G02*
X193914001Y-123890000I-249999J0D01*
G01*
X193213999Y-123890000D01*
G75*
G02*
X192964000Y-123640001I0J249999D01*
G01*
X192964000Y-122739999D01*
G75*
G02*
X193213999Y-122490000I249999J0D01*
G01*
X193914001Y-122490000D01*
G75*
G02*
X194164000Y-122739999I0J-249999D01*
G01*
G37*
%TD.AperFunction*%
%TO.P,R9,1*%
%TO.N,/RST*%
%TA.AperFunction,SMDPad,CuDef*%
G36*
G01*
X196164000Y-122739999D02*
X196164000Y-123640001D01*
G75*
G02*
X195914001Y-123890000I-249999J0D01*
G01*
X195213999Y-123890000D01*
G75*
G02*
X194964000Y-123640001I0J249999D01*
G01*
X194964000Y-122739999D01*
G75*
G02*
X195213999Y-122490000I249999J0D01*
G01*
X195914001Y-122490000D01*
G75*
G02*
X196164000Y-122739999I0J-249999D01*
G01*
G37*
%TD.AperFunction*%
%TD*%
D11*
%TO.P,J3,6*%
%TO.N,/RST*%
X198374000Y-122428000D03*
%TO.P,J3,5*%
%TO.N,/MISO*%
X198374000Y-119888000D03*
%TO.P,J3,4*%
%TO.N,/MOSI*%
X198374000Y-117348000D03*
%TO.P,J3,3*%
%TO.N,/SCK*%
X198374000Y-114808000D03*
%TO.P,J3,2*%
%TO.N,5V*%
X198374000Y-112268000D03*
D12*
%TO.P,J3,1*%
%TO.N,GND*%
X198374000Y-109728000D03*
%TD*%
D30*
%TO.P,U1,32*%
%TO.N,Net-(U1-Pad32)*%
X187700000Y-111828000D03*
%TO.P,U1,31*%
%TO.N,Net-(U1-Pad31)*%
X188500000Y-111828000D03*
%TO.P,U1,30*%
%TO.N,Net-(U1-Pad30)*%
X189300000Y-111828000D03*
%TO.P,U1,29*%
%TO.N,/RST*%
X190100000Y-111828000D03*
%TO.P,U1,28*%
%TO.N,PD0*%
X190900000Y-111828000D03*
%TO.P,U1,27*%
%TO.N,PD1*%
X191700000Y-111828000D03*
%TO.P,U1,26*%
%TO.N,Net-(U1-Pad26)*%
X192500000Y-111828000D03*
%TO.P,U1,25*%
%TO.N,Net-(U1-Pad25)*%
X193300000Y-111828000D03*
D31*
%TO.P,U1,24*%
%TO.N,Net-(U1-Pad24)*%
X194750000Y-113278000D03*
%TO.P,U1,23*%
%TO.N,Net-(U1-Pad23)*%
X194750000Y-114078000D03*
%TO.P,U1,22*%
%TO.N,Net-(U1-Pad22)*%
X194750000Y-114878000D03*
%TO.P,U1,21*%
%TO.N,GND*%
X194750000Y-115678000D03*
%TO.P,U1,20*%
%TO.N,Net-(U1-Pad20)*%
X194750000Y-116478000D03*
%TO.P,U1,19*%
%TO.N,Net-(U1-Pad19)*%
X194750000Y-117278000D03*
%TO.P,U1,18*%
%TO.N,5V*%
X194750000Y-118078000D03*
%TO.P,U1,17*%
%TO.N,/SCK*%
X194750000Y-118878000D03*
D30*
%TO.P,U1,16*%
%TO.N,/MISO*%
X193300000Y-120328000D03*
%TO.P,U1,15*%
%TO.N,/MOSI*%
X192500000Y-120328000D03*
%TO.P,U1,14*%
%TO.N,Net-(D3-Pad2)*%
X191700000Y-120328000D03*
%TO.P,U1,13*%
%TO.N,Net-(D1-Pad2)*%
X190900000Y-120328000D03*
%TO.P,U1,12*%
%TO.N,Net-(U1-Pad12)*%
X190100000Y-120328000D03*
%TO.P,U1,11*%
%TO.N,Net-(U1-Pad11)*%
X189300000Y-120328000D03*
%TO.P,U1,10*%
%TO.N,Net-(D4-Pad2)*%
X188500000Y-120328000D03*
%TO.P,U1,9*%
%TO.N,Net-(D2-Pad2)*%
X187700000Y-120328000D03*
D31*
%TO.P,U1,8*%
%TO.N,Net-(U1-Pad8)*%
X186250000Y-118878000D03*
%TO.P,U1,7*%
%TO.N,Net-(U1-Pad7)*%
X186250000Y-118078000D03*
%TO.P,U1,6*%
%TO.N,5V*%
X186250000Y-117278000D03*
%TO.P,U1,5*%
%TO.N,GND*%
X186250000Y-116478000D03*
%TO.P,U1,4*%
%TO.N,5V*%
X186250000Y-115678000D03*
%TO.P,U1,3*%
%TO.N,GND*%
X186250000Y-114878000D03*
%TO.P,U1,2*%
%TO.N,Net-(U1-Pad2)*%
X186250000Y-114078000D03*
%TO.P,U1,1*%
%TO.N,Net-(U1-Pad1)*%
X186250000Y-113278000D03*
%TD*%
%TO.P,R8,2*%
%TO.N,Net-(D4-Pad1)*%
%TA.AperFunction,SMDPad,CuDef*%
G36*
G01*
X190227000Y-121977999D02*
X190227000Y-122878001D01*
G75*
G02*
X189977001Y-123128000I-249999J0D01*
G01*
X189276999Y-123128000D01*
G75*
G02*
X189027000Y-122878001I0J249999D01*
G01*
X189027000Y-121977999D01*
G75*
G02*
X189276999Y-121728000I249999J0D01*
G01*
X189977001Y-121728000D01*
G75*
G02*
X190227000Y-121977999I0J-249999D01*
G01*
G37*
%TD.AperFunction*%
%TO.P,R8,1*%
%TO.N,GND*%
%TA.AperFunction,SMDPad,CuDef*%
G36*
G01*
X192227000Y-121977999D02*
X192227000Y-122878001D01*
G75*
G02*
X191977001Y-123128000I-249999J0D01*
G01*
X191276999Y-123128000D01*
G75*
G02*
X191027000Y-122878001I0J249999D01*
G01*
X191027000Y-121977999D01*
G75*
G02*
X191276999Y-121728000I249999J0D01*
G01*
X191977001Y-121728000D01*
G75*
G02*
X192227000Y-121977999I0J-249999D01*
G01*
G37*
%TD.AperFunction*%
%TD*%
%TO.P,R7,2*%
%TO.N,Net-(D4-Pad2)*%
%TA.AperFunction,SMDPad,CuDef*%
G36*
G01*
X186963000Y-123132001D02*
X186963000Y-122231999D01*
G75*
G02*
X187212999Y-121982000I249999J0D01*
G01*
X187913001Y-121982000D01*
G75*
G02*
X188163000Y-122231999I0J-249999D01*
G01*
X188163000Y-123132001D01*
G75*
G02*
X187913001Y-123382000I-249999J0D01*
G01*
X187212999Y-123382000D01*
G75*
G02*
X186963000Y-123132001I0J249999D01*
G01*
G37*
%TD.AperFunction*%
%TO.P,R7,1*%
%TO.N,Net-(Q4-Pad1)*%
%TA.AperFunction,SMDPad,CuDef*%
G36*
G01*
X184963000Y-123132001D02*
X184963000Y-122231999D01*
G75*
G02*
X185212999Y-121982000I249999J0D01*
G01*
X185913001Y-121982000D01*
G75*
G02*
X186163000Y-122231999I0J-249999D01*
G01*
X186163000Y-123132001D01*
G75*
G02*
X185913001Y-123382000I-249999J0D01*
G01*
X185212999Y-123382000D01*
G75*
G02*
X184963000Y-123132001I0J249999D01*
G01*
G37*
%TD.AperFunction*%
%TD*%
%TO.P,R6,2*%
%TO.N,Net-(D3-Pad1)*%
%TA.AperFunction,SMDPad,CuDef*%
G36*
G01*
X173932001Y-120631000D02*
X173031999Y-120631000D01*
G75*
G02*
X172782000Y-120381001I0J249999D01*
G01*
X172782000Y-119680999D01*
G75*
G02*
X173031999Y-119431000I249999J0D01*
G01*
X173932001Y-119431000D01*
G75*
G02*
X174182000Y-119680999I0J-249999D01*
G01*
X174182000Y-120381001D01*
G75*
G02*
X173932001Y-120631000I-249999J0D01*
G01*
G37*
%TD.AperFunction*%
%TO.P,R6,1*%
%TO.N,GND*%
%TA.AperFunction,SMDPad,CuDef*%
G36*
G01*
X173932001Y-122631000D02*
X173031999Y-122631000D01*
G75*
G02*
X172782000Y-122381001I0J249999D01*
G01*
X172782000Y-121680999D01*
G75*
G02*
X173031999Y-121431000I249999J0D01*
G01*
X173932001Y-121431000D01*
G75*
G02*
X174182000Y-121680999I0J-249999D01*
G01*
X174182000Y-122381001D01*
G75*
G02*
X173932001Y-122631000I-249999J0D01*
G01*
G37*
%TD.AperFunction*%
%TD*%
%TO.P,R5,2*%
%TO.N,Net-(D3-Pad2)*%
%TA.AperFunction,SMDPad,CuDef*%
G36*
G01*
X179012001Y-120520000D02*
X178111999Y-120520000D01*
G75*
G02*
X177862000Y-120270001I0J249999D01*
G01*
X177862000Y-119569999D01*
G75*
G02*
X178111999Y-119320000I249999J0D01*
G01*
X179012001Y-119320000D01*
G75*
G02*
X179262000Y-119569999I0J-249999D01*
G01*
X179262000Y-120270001D01*
G75*
G02*
X179012001Y-120520000I-249999J0D01*
G01*
G37*
%TD.AperFunction*%
%TO.P,R5,1*%
%TO.N,Net-(Q3-Pad1)*%
%TA.AperFunction,SMDPad,CuDef*%
G36*
G01*
X179012001Y-122520000D02*
X178111999Y-122520000D01*
G75*
G02*
X177862000Y-122270001I0J249999D01*
G01*
X177862000Y-121569999D01*
G75*
G02*
X178111999Y-121320000I249999J0D01*
G01*
X179012001Y-121320000D01*
G75*
G02*
X179262000Y-121569999I0J-249999D01*
G01*
X179262000Y-122270001D01*
G75*
G02*
X179012001Y-122520000I-249999J0D01*
G01*
G37*
%TD.AperFunction*%
%TD*%
%TO.P,R4,2*%
%TO.N,Net-(D2-Pad1)*%
%TA.AperFunction,SMDPad,CuDef*%
G36*
G01*
X190100000Y-108007999D02*
X190100000Y-108908001D01*
G75*
G02*
X189850001Y-109158000I-249999J0D01*
G01*
X189149999Y-109158000D01*
G75*
G02*
X188900000Y-108908001I0J249999D01*
G01*
X188900000Y-108007999D01*
G75*
G02*
X189149999Y-107758000I249999J0D01*
G01*
X189850001Y-107758000D01*
G75*
G02*
X190100000Y-108007999I0J-249999D01*
G01*
G37*
%TD.AperFunction*%
%TO.P,R4,1*%
%TO.N,GND*%
%TA.AperFunction,SMDPad,CuDef*%
G36*
G01*
X192100000Y-108007999D02*
X192100000Y-108908001D01*
G75*
G02*
X191850001Y-109158000I-249999J0D01*
G01*
X191149999Y-109158000D01*
G75*
G02*
X190900000Y-108908001I0J249999D01*
G01*
X190900000Y-108007999D01*
G75*
G02*
X191149999Y-107758000I249999J0D01*
G01*
X191850001Y-107758000D01*
G75*
G02*
X192100000Y-108007999I0J-249999D01*
G01*
G37*
%TD.AperFunction*%
%TD*%
%TO.P,R3,2*%
%TO.N,Net-(D2-Pad2)*%
%TA.AperFunction,SMDPad,CuDef*%
G36*
G01*
X180651999Y-113049000D02*
X181552001Y-113049000D01*
G75*
G02*
X181802000Y-113298999I0J-249999D01*
G01*
X181802000Y-113999001D01*
G75*
G02*
X181552001Y-114249000I-249999J0D01*
G01*
X180651999Y-114249000D01*
G75*
G02*
X180402000Y-113999001I0J249999D01*
G01*
X180402000Y-113298999D01*
G75*
G02*
X180651999Y-113049000I249999J0D01*
G01*
G37*
%TD.AperFunction*%
%TO.P,R3,1*%
%TO.N,Net-(Q2-Pad1)*%
%TA.AperFunction,SMDPad,CuDef*%
G36*
G01*
X180651999Y-111049000D02*
X181552001Y-111049000D01*
G75*
G02*
X181802000Y-111298999I0J-249999D01*
G01*
X181802000Y-111999001D01*
G75*
G02*
X181552001Y-112249000I-249999J0D01*
G01*
X180651999Y-112249000D01*
G75*
G02*
X180402000Y-111999001I0J249999D01*
G01*
X180402000Y-111298999D01*
G75*
G02*
X180651999Y-111049000I249999J0D01*
G01*
G37*
%TD.AperFunction*%
%TD*%
%TO.P,R2,2*%
%TO.N,Net-(D1-Pad1)*%
%TA.AperFunction,SMDPad,CuDef*%
G36*
G01*
X179139001Y-111106000D02*
X178238999Y-111106000D01*
G75*
G02*
X177989000Y-110856001I0J249999D01*
G01*
X177989000Y-110155999D01*
G75*
G02*
X178238999Y-109906000I249999J0D01*
G01*
X179139001Y-109906000D01*
G75*
G02*
X179389000Y-110155999I0J-249999D01*
G01*
X179389000Y-110856001D01*
G75*
G02*
X179139001Y-111106000I-249999J0D01*
G01*
G37*
%TD.AperFunction*%
%TO.P,R2,1*%
%TO.N,GND*%
%TA.AperFunction,SMDPad,CuDef*%
G36*
G01*
X179139001Y-113106000D02*
X178238999Y-113106000D01*
G75*
G02*
X177989000Y-112856001I0J249999D01*
G01*
X177989000Y-112155999D01*
G75*
G02*
X178238999Y-111906000I249999J0D01*
G01*
X179139001Y-111906000D01*
G75*
G02*
X179389000Y-112155999I0J-249999D01*
G01*
X179389000Y-112856001D01*
G75*
G02*
X179139001Y-113106000I-249999J0D01*
G01*
G37*
%TD.AperFunction*%
%TD*%
%TO.P,R1,2*%
%TO.N,Net-(D1-Pad2)*%
%TA.AperFunction,SMDPad,CuDef*%
G36*
G01*
X173285999Y-111906000D02*
X174186001Y-111906000D01*
G75*
G02*
X174436000Y-112155999I0J-249999D01*
G01*
X174436000Y-112856001D01*
G75*
G02*
X174186001Y-113106000I-249999J0D01*
G01*
X173285999Y-113106000D01*
G75*
G02*
X173036000Y-112856001I0J249999D01*
G01*
X173036000Y-112155999D01*
G75*
G02*
X173285999Y-111906000I249999J0D01*
G01*
G37*
%TD.AperFunction*%
%TO.P,R1,1*%
%TO.N,Net-(Q1-Pad1)*%
%TA.AperFunction,SMDPad,CuDef*%
G36*
G01*
X173285999Y-109906000D02*
X174186001Y-109906000D01*
G75*
G02*
X174436000Y-110155999I0J-249999D01*
G01*
X174436000Y-110856001D01*
G75*
G02*
X174186001Y-111106000I-249999J0D01*
G01*
X173285999Y-111106000D01*
G75*
G02*
X173036000Y-110856001I0J249999D01*
G01*
X173036000Y-110155999D01*
G75*
G02*
X173285999Y-109906000I249999J0D01*
G01*
G37*
%TD.AperFunction*%
%TD*%
D32*
%TO.P,K2,1*%
%TO.N,Net-(K2-Pad1)*%
X181366000Y-134310000D03*
%TO.P,K2,2*%
%TO.N,V_MOT*%
X184566000Y-134310000D03*
%TO.P,K2,3*%
%TO.N,Net-(J2-Pad2)*%
X186766000Y-134310000D03*
%TO.P,K2,4*%
%TO.N,Net-(K2-Pad4)*%
X188966000Y-134310000D03*
%TO.P,K2,5*%
%TO.N,V_MOT*%
X188966000Y-127310000D03*
%TO.P,K2,6*%
%TO.N,Net-(J2-Pad1)*%
X186766000Y-127310000D03*
%TO.P,K2,7*%
%TO.N,Net-(K2-Pad4)*%
X184566000Y-127310000D03*
%TO.P,K2,8*%
%TO.N,5V*%
X181366000Y-127310000D03*
%TD*%
%TO.P,K1,1*%
%TO.N,Net-(K1-Pad1)*%
X181620000Y-105735000D03*
%TO.P,K1,2*%
%TO.N,V_MOT*%
X184820000Y-105735000D03*
%TO.P,K1,3*%
%TO.N,Net-(J1-Pad2)*%
X187020000Y-105735000D03*
%TO.P,K1,4*%
%TO.N,Net-(K1-Pad4)*%
X189220000Y-105735000D03*
%TO.P,K1,5*%
%TO.N,V_MOT*%
X189220000Y-98735000D03*
%TO.P,K1,6*%
%TO.N,Net-(J1-Pad1)*%
X187020000Y-98735000D03*
%TO.P,K1,7*%
%TO.N,Net-(K1-Pad4)*%
X184820000Y-98735000D03*
%TO.P,K1,8*%
%TO.N,5V*%
X181620000Y-98735000D03*
%TD*%
%TO.P,D4,2*%
%TO.N,Net-(D4-Pad2)*%
%TA.AperFunction,SMDPad,CuDef*%
G36*
G01*
X186113000Y-124390999D02*
X186113000Y-125291001D01*
G75*
G02*
X185863001Y-125541000I-249999J0D01*
G01*
X185212999Y-125541000D01*
G75*
G02*
X184963000Y-125291001I0J249999D01*
G01*
X184963000Y-124390999D01*
G75*
G02*
X185212999Y-124141000I249999J0D01*
G01*
X185863001Y-124141000D01*
G75*
G02*
X186113000Y-124390999I0J-249999D01*
G01*
G37*
%TD.AperFunction*%
%TO.P,D4,1*%
%TO.N,Net-(D4-Pad1)*%
%TA.AperFunction,SMDPad,CuDef*%
G36*
G01*
X188163000Y-124390999D02*
X188163000Y-125291001D01*
G75*
G02*
X187913001Y-125541000I-249999J0D01*
G01*
X187262999Y-125541000D01*
G75*
G02*
X187013000Y-125291001I0J249999D01*
G01*
X187013000Y-124390999D01*
G75*
G02*
X187262999Y-124141000I249999J0D01*
G01*
X187913001Y-124141000D01*
G75*
G02*
X188163000Y-124390999I0J-249999D01*
G01*
G37*
%TD.AperFunction*%
%TD*%
%TO.P,D3,2*%
%TO.N,Net-(D3-Pad2)*%
%TA.AperFunction,SMDPad,CuDef*%
G36*
G01*
X176472001Y-120581000D02*
X175571999Y-120581000D01*
G75*
G02*
X175322000Y-120331001I0J249999D01*
G01*
X175322000Y-119680999D01*
G75*
G02*
X175571999Y-119431000I249999J0D01*
G01*
X176472001Y-119431000D01*
G75*
G02*
X176722000Y-119680999I0J-249999D01*
G01*
X176722000Y-120331001D01*
G75*
G02*
X176472001Y-120581000I-249999J0D01*
G01*
G37*
%TD.AperFunction*%
%TO.P,D3,1*%
%TO.N,Net-(D3-Pad1)*%
%TA.AperFunction,SMDPad,CuDef*%
G36*
G01*
X176472001Y-122631000D02*
X175571999Y-122631000D01*
G75*
G02*
X175322000Y-122381001I0J249999D01*
G01*
X175322000Y-121730999D01*
G75*
G02*
X175571999Y-121481000I249999J0D01*
G01*
X176472001Y-121481000D01*
G75*
G02*
X176722000Y-121730999I0J-249999D01*
G01*
X176722000Y-122381001D01*
G75*
G02*
X176472001Y-122631000I-249999J0D01*
G01*
G37*
%TD.AperFunction*%
%TD*%
%TO.P,D2,2*%
%TO.N,Net-(D2-Pad2)*%
%TA.AperFunction,SMDPad,CuDef*%
G36*
G01*
X186113000Y-108007999D02*
X186113000Y-108908001D01*
G75*
G02*
X185863001Y-109158000I-249999J0D01*
G01*
X185212999Y-109158000D01*
G75*
G02*
X184963000Y-108908001I0J249999D01*
G01*
X184963000Y-108007999D01*
G75*
G02*
X185212999Y-107758000I249999J0D01*
G01*
X185863001Y-107758000D01*
G75*
G02*
X186113000Y-108007999I0J-249999D01*
G01*
G37*
%TD.AperFunction*%
%TO.P,D2,1*%
%TO.N,Net-(D2-Pad1)*%
%TA.AperFunction,SMDPad,CuDef*%
G36*
G01*
X188163000Y-108007999D02*
X188163000Y-108908001D01*
G75*
G02*
X187913001Y-109158000I-249999J0D01*
G01*
X187262999Y-109158000D01*
G75*
G02*
X187013000Y-108908001I0J249999D01*
G01*
X187013000Y-108007999D01*
G75*
G02*
X187262999Y-107758000I249999J0D01*
G01*
X187913001Y-107758000D01*
G75*
G02*
X188163000Y-108007999I0J-249999D01*
G01*
G37*
%TD.AperFunction*%
%TD*%
%TO.P,D1,2*%
%TO.N,Net-(D1-Pad2)*%
%TA.AperFunction,SMDPad,CuDef*%
G36*
G01*
X175698999Y-111956000D02*
X176599001Y-111956000D01*
G75*
G02*
X176849000Y-112205999I0J-249999D01*
G01*
X176849000Y-112856001D01*
G75*
G02*
X176599001Y-113106000I-249999J0D01*
G01*
X175698999Y-113106000D01*
G75*
G02*
X175449000Y-112856001I0J249999D01*
G01*
X175449000Y-112205999D01*
G75*
G02*
X175698999Y-111956000I249999J0D01*
G01*
G37*
%TD.AperFunction*%
%TO.P,D1,1*%
%TO.N,Net-(D1-Pad1)*%
%TA.AperFunction,SMDPad,CuDef*%
G36*
G01*
X175698999Y-109906000D02*
X176599001Y-109906000D01*
G75*
G02*
X176849000Y-110155999I0J-249999D01*
G01*
X176849000Y-110806001D01*
G75*
G02*
X176599001Y-111056000I-249999J0D01*
G01*
X175698999Y-111056000D01*
G75*
G02*
X175449000Y-110806001I0J249999D01*
G01*
X175449000Y-110155999D01*
G75*
G02*
X175698999Y-109906000I249999J0D01*
G01*
G37*
%TD.AperFunction*%
%TD*%
D33*
%TO.N,GND*%
X103900000Y-134100000D03*
D34*
%TO.N,Net-(D1-Pad2)*%
X189103000Y-118745000D03*
X182118000Y-116332000D03*
%TO.N,Net-(D2-Pad2)*%
X183515000Y-119126000D03*
X183388000Y-116332000D03*
X183007000Y-113157000D03*
X185538000Y-110735000D03*
%TO.N,Net-(D3-Pad2)*%
X188214000Y-117856000D03*
X184404000Y-118237000D03*
D33*
%TO.N,Net-(K1-Pad4)*%
X190500000Y-106426000D03*
X184404000Y-100838000D03*
%TO.N,Net-(K2-Pad4)*%
X184566000Y-129194000D03*
X190444000Y-134310000D03*
%TO.N,GND*%
X163400000Y-91400000D03*
D34*
X181864000Y-120396000D03*
X183068000Y-111313000D03*
X188087000Y-114935000D03*
D33*
X178566000Y-106176000D03*
D34*
X191262000Y-124460000D03*
X193338000Y-115316000D03*
D33*
X193294000Y-107188000D03*
D34*
X171399200Y-50342800D03*
X174701200Y-60248800D03*
X198078200Y-53145800D03*
X147768200Y-54651800D03*
X133350000Y-115570000D03*
X143210400Y-116032400D03*
X132080000Y-96520000D03*
X135382000Y-108975398D03*
X178800000Y-116100000D03*
X159300000Y-110100000D03*
%TO.N,/RST*%
X196342000Y-112522000D03*
%TO.N,/MOSI*%
X195326000Y-119761000D03*
X193008000Y-118904000D03*
%TO.N,/atmega128/RESET*%
X129032000Y-110490000D03*
X118618000Y-101854000D03*
%TO.N,/atmega128/TX*%
X127524000Y-97520000D03*
X117983000Y-96139000D03*
%TO.N,5V*%
X196278500Y-117411500D03*
X196215000Y-121412000D03*
D33*
X180340000Y-119126000D03*
X180283000Y-117278000D03*
X120396000Y-84328000D03*
D34*
X134172400Y-109020000D03*
D33*
X159004000Y-82042000D03*
X179254000Y-117278000D03*
X157734000Y-82042000D03*
X169926000Y-91059000D03*
X169100500Y-90233500D03*
X126746000Y-114046000D03*
X171958000Y-113919000D03*
X171958000Y-112903000D03*
D34*
%TO.N,/atmega128/PDO*%
X131064000Y-99301598D03*
X117856000Y-97790000D03*
D33*
%TO.N,V_MOT*%
X184820000Y-103978000D03*
X190429000Y-98735000D03*
X190500000Y-126746000D03*
X184566000Y-131988000D03*
X191897000Y-113411000D03*
X191770000Y-116586000D03*
X192786000Y-116586000D03*
X190881000Y-113411000D03*
X184861200Y-55676800D03*
X160731200Y-56438800D03*
X184861200Y-56946800D03*
X160731200Y-57708800D03*
D34*
%TO.N,M2PWM*%
X128905000Y-74676000D03*
%TO.N,M1PWM*%
X121412000Y-74549000D03*
%TO.N,M3PWM*%
X131064000Y-101473000D03*
X135763000Y-91186000D03*
X135128000Y-74549000D03*
X135128000Y-83058000D03*
%TO.N,M4PWM*%
X139954000Y-92837000D03*
X130810000Y-107061000D03*
X145288000Y-74549000D03*
X144018000Y-83312000D03*
%TO.N,PF0*%
X117475000Y-86741000D03*
X112300000Y-82200000D03*
X113100000Y-63800000D03*
%TO.N,PF1*%
X117856000Y-88519000D03*
X111300000Y-81200000D03*
X112700000Y-65600000D03*
%TO.N,PF2*%
X117856000Y-90424000D03*
X110327180Y-81900000D03*
X112350000Y-68050000D03*
%TO.N,PB1*%
X108200000Y-92000000D03*
%TO.N,PD1*%
X191516000Y-110236000D03*
X187960000Y-113284000D03*
X189230000Y-116078000D03*
X176530000Y-114300000D03*
X182600000Y-115400000D03*
X179200000Y-114500000D03*
X131700000Y-127888000D03*
%TO.N,PD0*%
X190500000Y-110236000D03*
X188976000Y-110236000D03*
X185420000Y-112014000D03*
X173736000Y-115570000D03*
X182600000Y-114500000D03*
X178400000Y-113900000D03*
%TO.N,PB5*%
X112242000Y-108458000D03*
X116900000Y-112900000D03*
%TO.N,PB0*%
X118500000Y-105500000D03*
%TO.N,PE7*%
X118200000Y-100000000D03*
X115400000Y-103500000D03*
%TO.N,Net-(J3.6-Pad5)*%
X182880000Y-61976000D03*
X179324000Y-62230000D03*
%TO.N,Net-(J3.6-Pad4)*%
X182880000Y-56642000D03*
X179197000Y-58405998D03*
%TO.N,Net-(J3.6-Pad3)*%
X179197000Y-57150000D03*
%TO.N,Net-(J3.6-Pad2)*%
X179133500Y-55943500D03*
%TO.N,Net-(J1.36-Pad4)*%
X111150000Y-92150000D03*
%TO.N,Net-(J1.36-Pad3)*%
X110700000Y-96000000D03*
%TO.N,Net-(J1.36-Pad2)*%
X109400000Y-100200000D03*
%TO.N,Net-(J1.36-Pad1)*%
X108500000Y-104400000D03*
D33*
%TO.N,B_RXD*%
X159200000Y-117500000D03*
%TD*%
D35*
%TO.N,Net-(D1-Pad2)*%
X190900000Y-119467998D02*
X190177002Y-118745000D01*
X190900000Y-120328000D02*
X190900000Y-119467998D01*
X190177002Y-118745000D02*
X189103000Y-118745000D01*
X189103000Y-118745000D02*
X189103000Y-118745000D01*
X176124000Y-112506000D02*
X176149000Y-112531000D01*
X173736000Y-112506000D02*
X176124000Y-112506000D01*
X176149000Y-112531000D02*
X176666000Y-112531000D01*
X176149000Y-112845998D02*
X176149000Y-112531000D01*
X182118000Y-116332000D02*
X180105002Y-116332000D01*
X176149000Y-112531000D02*
X176149000Y-112849000D01*
X178143180Y-114773990D02*
X178744189Y-115374999D01*
X178073990Y-114773990D02*
X178143180Y-114773990D01*
X176149000Y-112849000D02*
X178073990Y-114773990D01*
X179148001Y-115374999D02*
X180105002Y-116332000D01*
X178744189Y-115374999D02*
X179148001Y-115374999D01*
%TO.N,Net-(D1-Pad1)*%
X178664000Y-110481000D02*
X178689000Y-110506000D01*
X176149000Y-110481000D02*
X178664000Y-110481000D01*
%TO.N,Net-(D2-Pad2)*%
X187700000Y-120328000D02*
X184717000Y-120328000D01*
X184717000Y-120328000D02*
X183515000Y-119126000D01*
X183515000Y-119126000D02*
X183515000Y-119126000D01*
X181102000Y-114030000D02*
X181102000Y-114046000D01*
X183388000Y-116332000D02*
X183388000Y-116332000D01*
X185538000Y-108458000D02*
X185538000Y-110735000D01*
X183007000Y-113157000D02*
X183007000Y-113157000D01*
X185538000Y-110735000D02*
X185538000Y-110735000D01*
X182515000Y-113649000D02*
X183007000Y-113157000D01*
X181102000Y-113649000D02*
X182515000Y-113649000D01*
X183388000Y-113538000D02*
X183007000Y-113157000D01*
X183388000Y-116332000D02*
X183388000Y-113538000D01*
%TO.N,Net-(D2-Pad1)*%
X189246000Y-108458000D02*
X189500000Y-108712000D01*
X187588000Y-108458000D02*
X189246000Y-108458000D01*
%TO.N,Net-(D3-Pad2)*%
X191700000Y-119278000D02*
X190278000Y-117856000D01*
X191700000Y-120328000D02*
X191700000Y-119278000D01*
X190278000Y-117856000D02*
X188214000Y-117856000D01*
X188214000Y-117856000D02*
X188214000Y-117856000D01*
X178562000Y-119920000D02*
X178562000Y-118872000D01*
X178562000Y-118872000D02*
X179197000Y-118237000D01*
X179197000Y-118237000D02*
X184404000Y-118237000D01*
X184404000Y-118237000D02*
X184404000Y-118237000D01*
X176108000Y-119920000D02*
X176022000Y-120006000D01*
X178562000Y-119920000D02*
X176108000Y-119920000D01*
%TO.N,Net-(D3-Pad1)*%
X173997000Y-120031000D02*
X176022000Y-122056000D01*
X173482000Y-120031000D02*
X173997000Y-120031000D01*
%TO.N,Net-(D4-Pad2)*%
X188500000Y-121364000D02*
X188500000Y-120328000D01*
X187436000Y-122428000D02*
X188500000Y-121364000D01*
X187563000Y-122816000D02*
X185538000Y-124841000D01*
X187563000Y-122682000D02*
X187563000Y-122816000D01*
%TO.N,Net-(D4-Pad1)*%
X189627000Y-122428000D02*
X189627000Y-123428000D01*
X188214000Y-124841000D02*
X187588000Y-124841000D01*
X189627000Y-123428000D02*
X188214000Y-124841000D01*
D36*
%TO.N,Net-(J1-Pad2)*%
X196215000Y-104695000D02*
X193849000Y-104695000D01*
X193849000Y-104695000D02*
X193040000Y-103886000D01*
D37*
X187020000Y-105735000D02*
X187020000Y-103810000D01*
X187020000Y-103810000D02*
X187452000Y-103378000D01*
D38*
X192532000Y-103378000D02*
X193040000Y-103886000D01*
X187452000Y-103378000D02*
X192532000Y-103378000D01*
D36*
X196342000Y-104568000D02*
X196215000Y-104695000D01*
X197612000Y-104568000D02*
X196342000Y-104568000D01*
%TO.N,Net-(J1-Pad1)*%
X196215000Y-99695000D02*
X194183000Y-99695000D01*
X194183000Y-99695000D02*
X193040000Y-100838000D01*
D37*
X187020000Y-98735000D02*
X187020000Y-100406000D01*
X187020000Y-100406000D02*
X187452000Y-100838000D01*
D38*
X187452000Y-100838000D02*
X193040000Y-100838000D01*
D36*
X196342000Y-99568000D02*
X196215000Y-99695000D01*
X197612000Y-99568000D02*
X196342000Y-99568000D01*
D37*
%TO.N,Net-(J2-Pad2)*%
X186766000Y-134310000D02*
X186766000Y-132664000D01*
D38*
X186766000Y-132664000D02*
X186766000Y-132512000D01*
X186766000Y-132512000D02*
X187452000Y-131826000D01*
X187452000Y-131826000D02*
X194056000Y-131826000D01*
D36*
X194738000Y-132508000D02*
X194056000Y-131826000D01*
X197612000Y-132508000D02*
X194738000Y-132508000D01*
D37*
%TO.N,Net-(J2-Pad1)*%
X186766000Y-127310000D02*
X186766000Y-128600000D01*
D38*
X186766000Y-128600000D02*
X186766000Y-129108000D01*
X186766000Y-129108000D02*
X187198000Y-129540000D01*
X192278000Y-129540000D02*
X193548000Y-128270000D01*
X187198000Y-129540000D02*
X192278000Y-129540000D01*
D36*
X194310000Y-127508000D02*
X193548000Y-128270000D01*
X197612000Y-127508000D02*
X194310000Y-127508000D01*
D39*
%TO.N,Net-(K1-Pad1)*%
X181620000Y-107468000D02*
X182118000Y-107966000D01*
X181620000Y-105735000D02*
X181620000Y-107468000D01*
D37*
%TO.N,Net-(K1-Pad4)*%
X189220000Y-105735000D02*
X189809000Y-105735000D01*
X190500000Y-106426000D02*
X190500000Y-106426000D01*
X184820000Y-98735000D02*
X184820000Y-100422000D01*
D38*
X176276000Y-108017333D02*
X176276000Y-100584000D01*
X184820000Y-100422000D02*
X184404000Y-100838000D01*
X189809000Y-105735000D02*
X190500000Y-106426000D01*
D35*
%TO.N,Net-(K2-Pad1)*%
X181372000Y-122682000D02*
X182245000Y-123555000D01*
X182245000Y-128316002D02*
X181356000Y-129205002D01*
X182245000Y-123555000D02*
X182245000Y-128316002D01*
X181356000Y-134300000D02*
X181366000Y-134310000D01*
X181356000Y-129205002D02*
X181356000Y-134300000D01*
D38*
%TO.N,Net-(K2-Pad4)*%
X176022000Y-124714000D02*
X176022000Y-132147333D01*
D37*
X184566000Y-129194000D02*
X184566000Y-129194000D01*
X190444000Y-134310000D02*
X190444000Y-134310000D01*
D38*
X189682000Y-134310000D02*
X190444000Y-134310000D01*
D37*
X188966000Y-134310000D02*
X189682000Y-134310000D01*
D38*
X184566000Y-128616000D02*
X184566000Y-129194000D01*
D37*
X184566000Y-127310000D02*
X184566000Y-128616000D01*
D35*
%TO.N,GND*%
X183372000Y-121732000D02*
X183200000Y-121732000D01*
X183200000Y-121732000D02*
X181864000Y-120396000D01*
X181864000Y-120396000D02*
X181864000Y-120396000D01*
D39*
X183068000Y-109966000D02*
X183068000Y-111313000D01*
X183068000Y-111313000D02*
X183068000Y-111313000D01*
X186250000Y-114878000D02*
X188030000Y-114878000D01*
X188030000Y-114878000D02*
X188087000Y-114935000D01*
X187335002Y-116478000D02*
X186250000Y-116478000D01*
X188214000Y-115599002D02*
X187335002Y-116478000D01*
X188214000Y-115062000D02*
X188214000Y-115599002D01*
X188087000Y-114935000D02*
X188214000Y-115062000D01*
D38*
X178566000Y-108017333D02*
X178566000Y-106176000D01*
X178566000Y-106176000D02*
X178566000Y-106176000D01*
D35*
X191627000Y-122428000D02*
X191627000Y-124095000D01*
X191627000Y-124095000D02*
X191262000Y-124460000D01*
X191262000Y-124460000D02*
X191262000Y-124460000D01*
D39*
X173482000Y-124464000D02*
X173732000Y-124714000D01*
X173482000Y-122031000D02*
X173482000Y-124464000D01*
X192637500Y-108712000D02*
X193399500Y-109474000D01*
X191500000Y-108712000D02*
X192637500Y-108712000D01*
X198374000Y-109728000D02*
X198374000Y-109474000D01*
X193399500Y-109474000D02*
X193399500Y-108987500D01*
D35*
X193700000Y-115678000D02*
X193338000Y-115316000D01*
X194750000Y-115678000D02*
X193700000Y-115678000D01*
X193338000Y-115316000D02*
X193338000Y-115316000D01*
D39*
X193399500Y-108966000D02*
X193399500Y-108352500D01*
X193399500Y-108352500D02*
X194564000Y-107188000D01*
D37*
X196850000Y-107188000D02*
X198374000Y-108712000D01*
X194564000Y-107188000D02*
X196850000Y-107188000D01*
X198374000Y-108712000D02*
X198374000Y-109728000D01*
D38*
X194564000Y-107188000D02*
X193294000Y-107188000D01*
X193294000Y-107188000D02*
X193294000Y-107188000D01*
D35*
X172914200Y-47802800D02*
X172914200Y-50342800D01*
X172406200Y-50850800D02*
X172914200Y-50342800D01*
X172406200Y-52882800D02*
X172406200Y-50850800D01*
X172914200Y-50342800D02*
X171399200Y-50342800D01*
X171399200Y-50342800D02*
X171399200Y-50342800D01*
X173186200Y-57708800D02*
X173186200Y-60248800D01*
X173186200Y-60248800D02*
X173186200Y-62788800D01*
X173186200Y-60248800D02*
X174701200Y-60248800D01*
X174701200Y-60248800D02*
X174701200Y-60248800D01*
X198078200Y-59486800D02*
X198078200Y-56946800D01*
X198078200Y-56946800D02*
X198078200Y-54406800D01*
X198078200Y-54406800D02*
X198078200Y-53145800D01*
X198078200Y-53145800D02*
X198078200Y-53145800D01*
X147768200Y-48056800D02*
X147768200Y-50596800D01*
X147768200Y-53136800D02*
X147768200Y-54651800D01*
X147768200Y-54651800D02*
X147768200Y-54651800D01*
X147768200Y-50596800D02*
X147768200Y-53136800D01*
X131960400Y-117185000D02*
X131960400Y-116959600D01*
X131960400Y-117185000D02*
X131960400Y-115943600D01*
X131960400Y-115943600D02*
X132334000Y-115570000D01*
X132334000Y-115570000D02*
X133350000Y-115570000D01*
X134972400Y-113947600D02*
X134972400Y-110420000D01*
X133350000Y-115570000D02*
X134972400Y-113947600D01*
X133350000Y-115570000D02*
X133350000Y-115570000D01*
X143210400Y-117260000D02*
X143210400Y-116032400D01*
X143210400Y-116032400D02*
X143210400Y-116032400D01*
D39*
X139772400Y-96055002D02*
X139772400Y-95020000D01*
X128502500Y-92434500D02*
X128502500Y-91186000D01*
X129032000Y-92964000D02*
X128502500Y-92434500D01*
X131772400Y-93984998D02*
X130751402Y-92964000D01*
X130751402Y-92964000D02*
X129032000Y-92964000D01*
X131772400Y-95020000D02*
X131772400Y-93984998D01*
D35*
X104895400Y-105407600D02*
X106172000Y-105407600D01*
X101845000Y-108458000D02*
X104895400Y-105407600D01*
D37*
X128291500Y-90975000D02*
X128502500Y-91186000D01*
X128291500Y-88900000D02*
X128291500Y-90975000D01*
D39*
X133858000Y-115062000D02*
X133350000Y-115570000D01*
X133858000Y-114575500D02*
X133858000Y-115062000D01*
X131772400Y-95020000D02*
X131772400Y-96212400D01*
X131772400Y-96212400D02*
X132080000Y-96520000D01*
X134972400Y-109384998D02*
X135382000Y-108975398D01*
X134972400Y-110420000D02*
X134972400Y-109384998D01*
X132080000Y-96520000D02*
X132080000Y-96520000D01*
X135382000Y-108975398D02*
X135382000Y-108975398D01*
X139772400Y-96055002D02*
X139307402Y-96520000D01*
X139307402Y-96520000D02*
X132080000Y-96520000D01*
D35*
X177843500Y-116100000D02*
X177567500Y-115824000D01*
X178800000Y-116100000D02*
X177843500Y-116100000D01*
X178689000Y-112506000D02*
X178406000Y-112506000D01*
X179389000Y-112506000D02*
X179900000Y-111995000D01*
X178689000Y-112506000D02*
X179389000Y-112506000D01*
X179900000Y-111995000D02*
X179900000Y-109500000D01*
X179900000Y-109500000D02*
X180400000Y-109000000D01*
X182102000Y-109000000D02*
X183068000Y-109966000D01*
X180400000Y-109000000D02*
X182102000Y-109000000D01*
D37*
X181305200Y-55422800D02*
X181305200Y-57962800D01*
D35*
X109675000Y-93825000D02*
X109500000Y-94000000D01*
X109675000Y-90200000D02*
X109675000Y-93825000D01*
X109575000Y-94075000D02*
X109500000Y-94000000D01*
X109575000Y-98100000D02*
X109575000Y-94075000D01*
X109475000Y-102210600D02*
X106172000Y-98907600D01*
X109475000Y-102400000D02*
X109475000Y-102210600D01*
X108767400Y-98907600D02*
X109575000Y-98100000D01*
X106172000Y-98907600D02*
X108767400Y-98907600D01*
X164900000Y-124200000D02*
X165600000Y-124200000D01*
X168100000Y-121700000D02*
X168100000Y-115700000D01*
X165600000Y-124200000D02*
X168100000Y-121700000D01*
D39*
X161000000Y-110100000D02*
X161000000Y-112500000D01*
X161000000Y-110100000D02*
X159300000Y-110100000D01*
X159300000Y-110100000D02*
X159300000Y-110100000D01*
%TO.N,Net-(Q1-Pad1)*%
X173986000Y-110256000D02*
X173736000Y-110506000D01*
X173986000Y-108017333D02*
X173986000Y-110256000D01*
%TO.N,Net-(Q2-Pad1)*%
X181168000Y-111964000D02*
X181102000Y-112030000D01*
D35*
X181168000Y-111583000D02*
X181102000Y-111649000D01*
X181168000Y-109966000D02*
X181168000Y-111583000D01*
D39*
%TO.N,Net-(Q3-Pad1)*%
X178562000Y-124142667D02*
X178312000Y-124392667D01*
X178562000Y-121920000D02*
X178562000Y-124142667D01*
D35*
%TO.N,Net-(Q4-Pad1)*%
X184232000Y-123632000D02*
X185436000Y-122428000D01*
X183372000Y-123632000D02*
X184232000Y-123632000D01*
%TO.N,/RST*%
X196326000Y-122428000D02*
X195564000Y-123190000D01*
X198374000Y-122428000D02*
X196326000Y-122428000D01*
X194056000Y-110236000D02*
X196342000Y-112522000D01*
X196342000Y-112522000D02*
X196342000Y-112522000D01*
X190151999Y-109510999D02*
X191864001Y-109510999D01*
X189774999Y-109887999D02*
X190151999Y-109510999D01*
X191864001Y-109510999D02*
X192532000Y-110178998D01*
X189774999Y-110584001D02*
X189774999Y-109887999D01*
X190100000Y-110909002D02*
X189774999Y-110584001D01*
X190100000Y-111828000D02*
X190100000Y-110909002D01*
X193998998Y-110178998D02*
X194056000Y-110236000D01*
X192532000Y-110178998D02*
X193998998Y-110178998D01*
%TO.N,/SCK*%
X197198999Y-115983001D02*
X198374000Y-114808000D01*
X197198999Y-117564003D02*
X197198999Y-115983001D01*
X195885002Y-118878000D02*
X197198999Y-117564003D01*
X194750000Y-118878000D02*
X195885002Y-118878000D01*
%TO.N,/MISO*%
X197934000Y-120328000D02*
X198374000Y-119888000D01*
X193300000Y-120328000D02*
X193988000Y-120328000D01*
X193988000Y-120328000D02*
X194310000Y-120650000D01*
X197612000Y-120650000D02*
X198374000Y-119888000D01*
X194310000Y-120650000D02*
X197612000Y-120650000D01*
D39*
%TO.N,/MOSI*%
X192500000Y-120328000D02*
X192500000Y-118904000D01*
X192500000Y-118904000D02*
X192500000Y-118904000D01*
D35*
X195961000Y-119761000D02*
X198374000Y-117348000D01*
X195326000Y-119761000D02*
X195961000Y-119761000D01*
D39*
X192500000Y-118904000D02*
X193008000Y-118904000D01*
X193008000Y-118904000D02*
X193008000Y-118904000D01*
%TO.N,Net-(C102-Pad1)*%
X138770402Y-118260000D02*
X140210400Y-118260000D01*
X141285400Y-119335000D02*
X140210400Y-118260000D01*
X143210400Y-119335000D02*
X141285400Y-119335000D01*
D35*
X136572400Y-114622000D02*
X140210400Y-118260000D01*
X136572400Y-110420000D02*
X136572400Y-114622000D01*
D39*
%TO.N,Net-(C103-Pad1)*%
X135772400Y-110420000D02*
X135772400Y-110520000D01*
X134010400Y-119260000D02*
X135010400Y-118260000D01*
X131960400Y-119260000D02*
X134010400Y-119260000D01*
D35*
X135772400Y-117498000D02*
X135010400Y-118260000D01*
X135772400Y-110420000D02*
X135772400Y-117498000D01*
%TO.N,Net-(D101-Pad2)*%
X103895000Y-108458000D02*
X105934000Y-108458000D01*
%TO.N,/atmega128/RESET*%
X130556000Y-108966000D02*
X129032000Y-110490000D01*
X132842000Y-108966000D02*
X130556000Y-108966000D01*
X133372400Y-109496400D02*
X132842000Y-108966000D01*
X133372400Y-110420000D02*
X133372400Y-109496400D01*
X129032000Y-110490000D02*
X129016000Y-110506000D01*
X105918000Y-92811600D02*
X104038400Y-92811600D01*
X101672000Y-95178000D02*
X101672000Y-98907600D01*
X104038400Y-92811600D02*
X101672000Y-95178000D01*
X101672000Y-98907600D02*
X101672000Y-105407600D01*
X129016000Y-110506000D02*
X129016000Y-112268000D01*
X108136401Y-90593199D02*
X105918000Y-92811600D01*
X108136401Y-88334009D02*
X108136401Y-90593199D01*
X113777970Y-87260020D02*
X109210390Y-87260020D01*
X115780969Y-89263019D02*
X113777970Y-87260020D01*
X115780969Y-90853789D02*
X115780969Y-89263019D01*
X116800000Y-91872820D02*
X115780969Y-90853789D01*
X116800000Y-100036000D02*
X116800000Y-91872820D01*
X109210390Y-87260020D02*
X108136401Y-88334009D01*
X118618000Y-101854000D02*
X116800000Y-100036000D01*
%TO.N,/atmega128/TX*%
X102108000Y-85191600D02*
X103632000Y-83667600D01*
X103632000Y-80349600D02*
X102886000Y-79603600D01*
X103632000Y-83667600D02*
X103632000Y-80349600D01*
X129272400Y-97520000D02*
X127524000Y-97520000D01*
X127524000Y-97520000D02*
X127524000Y-97520000D01*
X106482001Y-86366601D02*
X103283001Y-86366601D01*
X114150770Y-86360000D02*
X106488602Y-86360000D01*
X115881797Y-88091027D02*
X114150770Y-86360000D01*
X116091028Y-88091028D02*
X115881797Y-88091027D01*
X116680989Y-88680989D02*
X116091028Y-88091028D01*
X103283001Y-86366601D02*
X102108000Y-85191600D01*
X116680989Y-89885399D02*
X116680989Y-88680989D01*
X106488602Y-86360000D02*
X106482001Y-86366601D01*
X116947795Y-90152205D02*
X116680989Y-89885399D01*
X116947795Y-90747795D02*
X116947795Y-90152205D01*
X117983000Y-91783000D02*
X116947795Y-90747795D01*
X117983000Y-96139000D02*
X117983000Y-91783000D01*
%TO.N,/atmega128/PDI*%
X104886000Y-79603600D02*
X104648000Y-79603600D01*
X104648000Y-79603600D02*
X104394000Y-79857600D01*
X104394000Y-83667600D02*
X105918000Y-85191600D01*
X104394000Y-79857600D02*
X104394000Y-83667600D01*
%TO.N,5V*%
X194750000Y-118078000D02*
X195612000Y-118078000D01*
X195612000Y-118078000D02*
X196088000Y-117602000D01*
D39*
X198374000Y-112268000D02*
X196556407Y-114085593D01*
X196000001Y-117689999D02*
X196000001Y-117729000D01*
X196556407Y-117133593D02*
X196278500Y-117411500D01*
X196556407Y-114085593D02*
X196556407Y-117133593D01*
D35*
X194750000Y-118078000D02*
X193326000Y-118078000D01*
D39*
X184347000Y-116281000D02*
X184347000Y-117278000D01*
X186250000Y-115678000D02*
X184950000Y-115678000D01*
X184347000Y-117278000D02*
X184347000Y-121342000D01*
X186250000Y-117278000D02*
X184347000Y-117278000D01*
D35*
X193564000Y-123190000D02*
X193564000Y-123047000D01*
D39*
X196278500Y-117411500D02*
X196000001Y-117689999D01*
X193564000Y-123190000D02*
X193564000Y-122920000D01*
X193564000Y-122920000D02*
X195072000Y-121412000D01*
X195072000Y-121412000D02*
X196215000Y-121412000D01*
X196215000Y-121412000D02*
X196215000Y-121412000D01*
X184731000Y-115897000D02*
X184347000Y-116281000D01*
X184950000Y-115678000D02*
X184731000Y-115897000D01*
X181366000Y-126548000D02*
X181158000Y-126548000D01*
X180340000Y-119126000D02*
X180340000Y-118999000D01*
X180340000Y-125730000D02*
X180594000Y-125730000D01*
X181366000Y-126502000D02*
X181366000Y-127310000D01*
X180594000Y-125730000D02*
X181366000Y-126502000D01*
X184658000Y-115824000D02*
X184731000Y-115897000D01*
X184277000Y-115443000D02*
X184658000Y-115824000D01*
X184277000Y-109093000D02*
X184277000Y-115443000D01*
X183261000Y-108077000D02*
X184277000Y-109093000D01*
X183261000Y-104394000D02*
X183261000Y-108077000D01*
X181620000Y-102753000D02*
X183261000Y-104394000D01*
X181620000Y-98735000D02*
X181620000Y-102753000D01*
X195474500Y-109474000D02*
X195474500Y-110130500D01*
X197612000Y-112268000D02*
X198374000Y-112268000D01*
X195474500Y-110130500D02*
X197612000Y-112268000D01*
X175492500Y-115824000D02*
X175492500Y-117115500D01*
X180283000Y-117278000D02*
X180283000Y-122231000D01*
X192786000Y-117602000D02*
X193262000Y-118078000D01*
X190516176Y-117280990D02*
X190837186Y-117602000D01*
X188908990Y-117280990D02*
X190516176Y-117280990D01*
X188633999Y-117005999D02*
X188908990Y-117280990D01*
X190837186Y-117602000D02*
X192786000Y-117602000D01*
X187805999Y-117005999D02*
X188633999Y-117005999D01*
X187533998Y-117278000D02*
X187805999Y-117005999D01*
X193262000Y-118078000D02*
X193326000Y-118078000D01*
X186250000Y-117278000D02*
X187533998Y-117278000D01*
X136172400Y-100670000D02*
X134172400Y-100670000D01*
X140572400Y-96270000D02*
X136172400Y-100670000D01*
X140572400Y-95020000D02*
X140572400Y-96270000D01*
X134172400Y-109020000D02*
X134172400Y-109020000D01*
D38*
X180340000Y-119634000D02*
X180340000Y-119312010D01*
D39*
X180340000Y-125730000D02*
X180340000Y-119634000D01*
X180340000Y-119634000D02*
X180340000Y-119126000D01*
X184347000Y-117278000D02*
X181286000Y-117278000D01*
D37*
X179254000Y-117278000D02*
X181286000Y-117278000D01*
X179254000Y-117278000D02*
X179254000Y-117278000D01*
D40*
X109093000Y-74549000D02*
X110617000Y-74549000D01*
X110617000Y-74549000D02*
X120396000Y-84328000D01*
D38*
X120396000Y-84328000D02*
X120396000Y-84328000D01*
X124460000Y-88392000D02*
X126238000Y-90170000D01*
X126238000Y-90170000D02*
X126238000Y-92456000D01*
X126238000Y-92456000D02*
X128524000Y-94742000D01*
X128524000Y-94742000D02*
X129540000Y-94742000D01*
D37*
X126216500Y-90148500D02*
X126238000Y-90170000D01*
X126216500Y-88900000D02*
X126216500Y-90148500D01*
D39*
X134172400Y-112186100D02*
X133858000Y-112500500D01*
X134172400Y-110420000D02*
X134172400Y-112186100D01*
X134172400Y-109020000D02*
X134172400Y-110420000D01*
D35*
X126746000Y-112538000D02*
X127016000Y-112268000D01*
X126746000Y-114046000D02*
X126746000Y-114046000D01*
D38*
X121158000Y-85090000D02*
X124460000Y-88392000D01*
D37*
X130972400Y-97470000D02*
X131252000Y-97470000D01*
X134172400Y-100390400D02*
X134172400Y-100670000D01*
X131252000Y-97470000D02*
X134172400Y-100390400D01*
X130556000Y-94742000D02*
X129540000Y-94742000D01*
X130797399Y-94983399D02*
X130556000Y-94742000D01*
X130797399Y-97015399D02*
X130797399Y-94983399D01*
X131252000Y-97470000D02*
X130797399Y-97015399D01*
D39*
X112268000Y-43053000D02*
X112268000Y-44958000D01*
X112268000Y-44958000D02*
X113157000Y-45847000D01*
X124206000Y-45847000D02*
X127000000Y-43053000D01*
X127000000Y-43053000D02*
X129794000Y-45847000D01*
X138938000Y-45847000D02*
X141732000Y-43053000D01*
X129794000Y-45847000D02*
X138938000Y-45847000D01*
D36*
X120396000Y-84328000D02*
X124333000Y-80391000D01*
X124333000Y-80391000D02*
X144526000Y-80391000D01*
X144526000Y-80391000D02*
X146177000Y-82042000D01*
X146177000Y-82042000D02*
X159004000Y-82042000D01*
X159004000Y-82042000D02*
X159004000Y-82042000D01*
X175768000Y-79248000D02*
X175768000Y-81788000D01*
D39*
X175492500Y-117115500D02*
X175662500Y-117115500D01*
X175825000Y-117278000D02*
X178632000Y-117278000D01*
X175662500Y-117115500D02*
X175825000Y-117278000D01*
D37*
X179254000Y-117278000D02*
X178632000Y-117278000D01*
X134172400Y-108841481D02*
X134083141Y-108930740D01*
X134172400Y-100390400D02*
X134172400Y-108841481D01*
D35*
X126746000Y-114046000D02*
X126746000Y-112538000D01*
D37*
X126746000Y-114046000D02*
X126746000Y-116078000D01*
X126746000Y-116078000D02*
X123952000Y-118872000D01*
X123952000Y-118872000D02*
X123952000Y-119888000D01*
X123952000Y-119888000D02*
X121920000Y-121920000D01*
X121920000Y-121920000D02*
X115824000Y-121920000D01*
X170180000Y-91059000D02*
X169926000Y-91059000D01*
X171958000Y-92837000D02*
X170180000Y-91059000D01*
X171958000Y-113919000D02*
X171958000Y-92837000D01*
X169926000Y-91059000D02*
X169100500Y-90233500D01*
D39*
X168403000Y-112903000D02*
X167100000Y-111600000D01*
X171958000Y-112903000D02*
X168403000Y-112903000D01*
X167100000Y-108400000D02*
X167100000Y-111600000D01*
X118900000Y-132800000D02*
X118900000Y-130600000D01*
X118900000Y-130600000D02*
X114700000Y-130600000D01*
X114700000Y-130600000D02*
X113300000Y-129200000D01*
X113300000Y-129200000D02*
X113300000Y-123300000D01*
X114680000Y-121920000D02*
X115824000Y-121920000D01*
X113300000Y-123300000D02*
X114680000Y-121920000D01*
X114400000Y-61900000D02*
X113400000Y-60900000D01*
X113447000Y-60853000D02*
X113447000Y-45847000D01*
X114400000Y-69200000D02*
X114400000Y-61900000D01*
X112268000Y-71332000D02*
X114400000Y-69200000D01*
X113400000Y-60900000D02*
X113447000Y-60853000D01*
X112268000Y-71374000D02*
X112268000Y-71332000D01*
X109093000Y-74549000D02*
X112268000Y-71374000D01*
X113447000Y-45847000D02*
X124206000Y-45847000D01*
X113157000Y-45847000D02*
X113447000Y-45847000D01*
D37*
X104760000Y-75520000D02*
X104800000Y-75480000D01*
X101800000Y-75520000D02*
X104760000Y-75520000D01*
X108162000Y-75480000D02*
X109093000Y-74549000D01*
X104800000Y-75480000D02*
X108162000Y-75480000D01*
X109093000Y-74549000D02*
X109093000Y-66793000D01*
X105820000Y-63520000D02*
X104900000Y-63520000D01*
X109093000Y-66793000D02*
X105820000Y-63520000D01*
X101900000Y-63520000D02*
X101800000Y-63620000D01*
X104900000Y-63520000D02*
X101900000Y-63520000D01*
D35*
%TO.N,/atmega128/PDO*%
X130082402Y-98320000D02*
X131064000Y-99301598D01*
X129272400Y-98320000D02*
X130082402Y-98320000D01*
X131064000Y-99301598D02*
X131064000Y-99301598D01*
X102108000Y-87731600D02*
X105918000Y-87731600D01*
X116230979Y-90667389D02*
X117257999Y-91694409D01*
X117257999Y-97191999D02*
X117856000Y-97790000D01*
X116230979Y-89076619D02*
X116230979Y-90667389D01*
X117257999Y-91694409D02*
X117257999Y-97191999D01*
X113964370Y-86810010D02*
X116230979Y-89076619D01*
X109023990Y-86810010D02*
X113964370Y-86810010D01*
X107950000Y-87884000D02*
X109023990Y-86810010D01*
X106070400Y-87884000D02*
X107950000Y-87884000D01*
X105918000Y-87731600D02*
X106070400Y-87884000D01*
D38*
%TO.N,V_MOT*%
X184820000Y-105735000D02*
X184820000Y-103978000D01*
X184820000Y-103978000D02*
X184820000Y-103978000D01*
D37*
X189220000Y-98735000D02*
X190429000Y-98735000D01*
X190429000Y-98735000D02*
X190429000Y-98735000D01*
X188966000Y-127310000D02*
X189936000Y-127310000D01*
X190500000Y-126746000D02*
X190500000Y-126746000D01*
X184566000Y-131988000D02*
X184566000Y-131988000D01*
X192786000Y-116586000D02*
X192786000Y-116586000D01*
D36*
X197612000Y-87122000D02*
X196596000Y-87122000D01*
X190429000Y-93289000D02*
X190429000Y-98735000D01*
X196596000Y-87122000D02*
X190429000Y-93289000D01*
X185928000Y-71120000D02*
X185166000Y-71882000D01*
X185166000Y-71882000D02*
X185166000Y-91948000D01*
X186507000Y-93289000D02*
X190429000Y-93289000D01*
X185166000Y-91948000D02*
X186507000Y-93289000D01*
X188468000Y-69088000D02*
X186436000Y-69088000D01*
X185928000Y-69596000D02*
X185928000Y-71120000D01*
X186436000Y-69088000D02*
X185928000Y-69596000D01*
D38*
X189936000Y-127310000D02*
X190500000Y-126746000D01*
X184566000Y-132750000D02*
X184566000Y-131988000D01*
D37*
X184566000Y-134310000D02*
X184566000Y-132750000D01*
X191897000Y-113411000D02*
X191897000Y-113919000D01*
X191770000Y-116586000D02*
X191770000Y-116078000D01*
D36*
X191737999Y-116045999D02*
X191770000Y-116078000D01*
X191737999Y-114547999D02*
X191737999Y-116045999D01*
X191897000Y-114388998D02*
X191737999Y-114547999D01*
X191897000Y-113919000D02*
X191897000Y-114388998D01*
D38*
X181305200Y-65582800D02*
X181305200Y-67106800D01*
X184861200Y-56946800D02*
X184861200Y-49580800D01*
X186639200Y-47802800D02*
X188925200Y-47802800D01*
X184861200Y-49580800D02*
X186639200Y-47802800D01*
X160731200Y-57708800D02*
X160731200Y-49072800D01*
X161747200Y-48056800D02*
X164033200Y-48056800D01*
X160731200Y-49072800D02*
X161747200Y-48056800D01*
D36*
X181305200Y-67106800D02*
X181305200Y-70612000D01*
%TO.N,Net-(A2.1-Pad6)*%
X188468000Y-74168000D02*
X189484000Y-74168000D01*
X189484000Y-74168000D02*
X193040000Y-70612000D01*
X193040000Y-68072000D02*
X197612000Y-63500000D01*
X193040000Y-70612000D02*
X193040000Y-68072000D01*
%TO.N,Net-(A2.1-Pad5)*%
X188468000Y-76708000D02*
X190500000Y-76708000D01*
X190500000Y-76708000D02*
X195834000Y-71374000D01*
X195834000Y-70358000D02*
X197612000Y-68580000D01*
X195834000Y-71374000D02*
X195834000Y-70358000D01*
%TO.N,Net-(A2.1-Pad4)*%
X193040000Y-79248000D02*
X197612000Y-74676000D01*
X188468000Y-79248000D02*
X193040000Y-79248000D01*
%TO.N,Net-(A2.1-Pad3)*%
X195580000Y-81788000D02*
X197612000Y-79756000D01*
X188468000Y-81788000D02*
X195580000Y-81788000D01*
D35*
%TO.N,Net-(D3.10-Pad2)*%
X193989200Y-56946800D02*
X196028200Y-56946800D01*
%TO.N,Net-(D3.9-Pad2)*%
X177003200Y-47802800D02*
X174964200Y-47802800D01*
%TO.N,Net-(D3.8-Pad2)*%
X174456200Y-52882800D02*
X176495200Y-52882800D01*
%TO.N,Net-(D3.7-Pad2)*%
X177003200Y-50342800D02*
X174964200Y-50342800D01*
%TO.N,Net-(D3.5-Pad2)*%
X169113200Y-57708800D02*
X171136200Y-57708800D01*
%TO.N,Net-(D3.4-Pad2)*%
X169097200Y-60248800D02*
X171136200Y-60248800D01*
%TO.N,Net-(D3.3-Pad2)*%
X149818200Y-48056800D02*
X151857200Y-48056800D01*
%TO.N,Net-(D3.2-Pad2)*%
X149818200Y-53136800D02*
X151857200Y-53136800D01*
%TO.N,Net-(D3.1-Pad2)*%
X149818200Y-50596800D02*
X151857200Y-50596800D01*
%TO.N,Net-(D3.11-Pad2)*%
X193989200Y-54406800D02*
X196028200Y-54406800D01*
%TO.N,Net-(D3.6-Pad2)*%
X169097200Y-62788800D02*
X171136200Y-62788800D01*
%TO.N,Net-(D3.12-Pad2)*%
X193989200Y-59486800D02*
X196028200Y-59486800D01*
%TO.N,M2PWM*%
X128378178Y-100720000D02*
X125476000Y-97817822D01*
X129272400Y-100720000D02*
X128378178Y-100720000D01*
X125476000Y-97817822D02*
X125476000Y-97028000D01*
X122428000Y-93980000D02*
X120904000Y-93980000D01*
X125476000Y-97028000D02*
X122428000Y-93980000D01*
X128905000Y-74676000D02*
X128905000Y-74676000D01*
X128905000Y-74676000D02*
X128905000Y-72988000D01*
%TO.N,M2B*%
X150749000Y-95631000D02*
X152400000Y-93980000D01*
X150749000Y-96393000D02*
X150749000Y-95631000D01*
X148822000Y-98320000D02*
X150749000Y-96393000D01*
X144672400Y-98320000D02*
X148822000Y-98320000D01*
X152958800Y-93421200D02*
X152400000Y-93980000D01*
X152400000Y-93980000D02*
X153220000Y-93980000D01*
X153220000Y-93980000D02*
X154100000Y-93100000D01*
X139319000Y-77524051D02*
X138606818Y-77524048D01*
X154100000Y-93100000D02*
X154100000Y-90872820D01*
X131348601Y-75851011D02*
X125381011Y-75851011D01*
X154100000Y-90872820D02*
X161600019Y-83372801D01*
X159404050Y-78704050D02*
X159215000Y-78704050D01*
X123952000Y-74422000D02*
X123952000Y-72951000D01*
X161600019Y-83372801D02*
X161600019Y-80900019D01*
X147276995Y-78704045D02*
X146097001Y-77524051D01*
X131671610Y-76174020D02*
X131348601Y-75851011D01*
X161600019Y-80900019D02*
X159404050Y-78704050D01*
X159215000Y-78704050D02*
X147276995Y-78704045D01*
X125381011Y-75851011D02*
X123952000Y-74422000D01*
X146097001Y-77524051D02*
X139319000Y-77524051D01*
X138606818Y-77524048D02*
X137256791Y-76174021D01*
X137256791Y-76174021D02*
X131671610Y-76174020D01*
%TO.N,M2A*%
X149800000Y-99120000D02*
X152400000Y-96520000D01*
X144672400Y-99120000D02*
X149800000Y-99120000D01*
X152958800Y-95961200D02*
X152400000Y-96520000D01*
X126492000Y-74295000D02*
X126492000Y-72898000D01*
X127598001Y-75401001D02*
X126492000Y-74295000D01*
X131535001Y-75401001D02*
X127598001Y-75401001D01*
X154550010Y-94369990D02*
X154550010Y-91059220D01*
X162050029Y-83559201D02*
X162050028Y-80713618D01*
X162050028Y-80713618D02*
X159590450Y-78254040D01*
X159590450Y-78254040D02*
X159401400Y-78254040D01*
X159401400Y-78254040D02*
X147463396Y-78254036D01*
X146283401Y-77074041D02*
X139192000Y-77074041D01*
X147463396Y-78254036D02*
X146283401Y-77074041D01*
X154550010Y-91059220D02*
X162050029Y-83559201D01*
X138793219Y-77074039D02*
X137443191Y-75724011D01*
X139192000Y-77074041D02*
X138793219Y-77074039D01*
X137443191Y-75724011D02*
X131858011Y-75724011D01*
X152400000Y-96520000D02*
X154550010Y-94369990D01*
X131858011Y-75724011D02*
X131535001Y-75401001D01*
%TO.N,M1PWM*%
X128214588Y-99920000D02*
X125984000Y-97689412D01*
X129272400Y-99920000D02*
X128214588Y-99920000D01*
X125984000Y-96520000D02*
X120904000Y-91440000D01*
X125984000Y-97689412D02*
X125984000Y-96520000D01*
X121412000Y-72951000D02*
X121412000Y-74549000D01*
X121412000Y-74549000D02*
X121412000Y-74549000D01*
%TO.N,M1B*%
X150622000Y-90678000D02*
X152400000Y-88900000D01*
X145977000Y-96720000D02*
X150622000Y-92075000D01*
X150622000Y-92075000D02*
X150622000Y-90678000D01*
X144672400Y-96720000D02*
X145977000Y-96720000D01*
X152958800Y-88341200D02*
X152400000Y-88900000D01*
X116459000Y-73078000D02*
X116459000Y-74295000D01*
X131298808Y-77074038D02*
X136883991Y-77074041D01*
X116459000Y-74295000D02*
X117888011Y-75724011D01*
X116332000Y-72951000D02*
X116459000Y-73078000D01*
X125008209Y-76751029D02*
X130975801Y-76751031D01*
X117888011Y-75724011D02*
X123981191Y-75724011D01*
X130975801Y-76751031D02*
X131298808Y-77074038D01*
X123981191Y-75724011D02*
X125008209Y-76751029D01*
X146904193Y-79604063D02*
X158842200Y-79604070D01*
X136883991Y-77074041D02*
X138234016Y-78424066D01*
X139319000Y-78424071D02*
X145724201Y-78424071D01*
X138234016Y-78424066D02*
X139319000Y-78424071D01*
X145724201Y-78424071D02*
X146904193Y-79604063D01*
X152400000Y-88900000D02*
X154800000Y-88900000D01*
X154800000Y-88900000D02*
X160700000Y-83000000D01*
X159004070Y-79604070D02*
X158842200Y-79604070D01*
X160700000Y-81300000D02*
X159004070Y-79604070D01*
X160700000Y-83000000D02*
X160700000Y-81300000D01*
%TO.N,M1A*%
X144672400Y-97520000D02*
X147488400Y-97520000D01*
X147488400Y-97494600D02*
X150241000Y-94742000D01*
X147488400Y-97520000D02*
X147488400Y-97494600D01*
X150241000Y-93599000D02*
X152400000Y-91440000D01*
X150241000Y-94742000D02*
X150241000Y-93599000D01*
X152958800Y-90881200D02*
X152400000Y-91440000D01*
X118872000Y-72951000D02*
X118872000Y-74295000D01*
X119851001Y-75274001D02*
X124167591Y-75274001D01*
X131485209Y-76624029D02*
X137070391Y-76624031D01*
X118872000Y-74295000D02*
X119851001Y-75274001D01*
X139319000Y-77974061D02*
X145910601Y-77974061D01*
X124167591Y-75274001D02*
X125194610Y-76301020D01*
X125194610Y-76301020D02*
X131162201Y-76301021D01*
X131162201Y-76301021D02*
X131485209Y-76624029D01*
X137070391Y-76624031D02*
X138420417Y-77974057D01*
X138420417Y-77974057D02*
X139319000Y-77974061D01*
X145910601Y-77974061D02*
X147090594Y-79154054D01*
X147090594Y-79154054D02*
X159028600Y-79154060D01*
X152400000Y-91440000D02*
X152896410Y-91440000D01*
X161150010Y-83186400D02*
X161150010Y-81113600D01*
X152896410Y-91440000D02*
X161150010Y-83186400D01*
X159190470Y-79154060D02*
X159028600Y-79154060D01*
X161150010Y-81113600D02*
X159190470Y-79154060D01*
%TO.N,M3PWM*%
X129272400Y-101520000D02*
X128444000Y-101520000D01*
X128444000Y-101520000D02*
X124968000Y-98044000D01*
X124968000Y-98044000D02*
X124968000Y-97536000D01*
X123952000Y-96520000D02*
X120904000Y-96520000D01*
X124968000Y-97536000D02*
X123952000Y-96520000D01*
X129319400Y-101473000D02*
X129272400Y-101520000D01*
X131064000Y-101473000D02*
X129319400Y-101473000D01*
X135763000Y-91186000D02*
X135763000Y-91186000D01*
X135128000Y-72988000D02*
X135128000Y-74549000D01*
X135128000Y-74549000D02*
X135128000Y-74549000D01*
X135259230Y-91186000D02*
X135763000Y-91186000D01*
X133952999Y-89879769D02*
X135259230Y-91186000D01*
X133952999Y-85908001D02*
X133952999Y-89879769D01*
X133858000Y-84328000D02*
X133858000Y-85813002D01*
X133858000Y-85813002D02*
X133952999Y-85908001D01*
X135128000Y-83058000D02*
X135128000Y-83058000D01*
X135128000Y-83058000D02*
X133858000Y-84328000D01*
%TO.N,M4PWM*%
X128272400Y-107120000D02*
X121092400Y-114300000D01*
X129272400Y-107120000D02*
X128272400Y-107120000D01*
X139954000Y-92837000D02*
X139954000Y-92837000D01*
X129331400Y-107061000D02*
X129272400Y-107120000D01*
X130810000Y-107061000D02*
X129331400Y-107061000D01*
X145288000Y-73025000D02*
X145288000Y-74549000D01*
X145288000Y-74549000D02*
X145288000Y-74549000D01*
X139954000Y-90041590D02*
X139954000Y-92837000D01*
X144018000Y-83312000D02*
X144018000Y-83312000D01*
X144018000Y-85977590D02*
X139954000Y-90041590D01*
X144018000Y-83312000D02*
X144018000Y-85977590D01*
%TO.N,Net-(A2.1-Pad16)*%
X171704000Y-87376000D02*
X172212000Y-86868000D01*
X169381000Y-87376000D02*
X171704000Y-87376000D01*
X172212000Y-86868000D02*
X175768000Y-86868000D01*
%TO.N,Net-(A2.1-Pad15)*%
X169635000Y-84328000D02*
X172212000Y-84328000D01*
X172212000Y-84328000D02*
X175768000Y-84328000D01*
%TO.N,PC5*%
X145666410Y-103120000D02*
X149860000Y-107313590D01*
X144672400Y-103120000D02*
X145666410Y-103120000D01*
X149860000Y-107313590D02*
X149860000Y-108331000D01*
X150749000Y-109220000D02*
X152400000Y-109220000D01*
X149860000Y-108331000D02*
X150749000Y-109220000D01*
%TO.N,PC4*%
X144672400Y-103920000D02*
X145830000Y-103920000D01*
X145830000Y-103920000D02*
X149098000Y-107188000D01*
X149098000Y-107188000D02*
X149098000Y-110109000D01*
X150749000Y-111760000D02*
X152400000Y-111760000D01*
X149098000Y-110109000D02*
X150749000Y-111760000D01*
%TO.N,PC3*%
X152273000Y-114300000D02*
X152400000Y-114300000D01*
X148285635Y-110312635D02*
X152273000Y-114300000D01*
X148285635Y-107333235D02*
X148285635Y-110312635D01*
X145672400Y-104720000D02*
X148285635Y-107333235D01*
X144672400Y-104720000D02*
X145672400Y-104720000D01*
%TO.N,PC1*%
X150644040Y-117624040D02*
X152400000Y-119380000D01*
X150644040Y-114062400D02*
X150644040Y-117624040D01*
X147385615Y-110803975D02*
X150644040Y-114062400D01*
X147385615Y-108223213D02*
X147385615Y-110803975D01*
X145482402Y-106320000D02*
X147385615Y-108223213D01*
X144672400Y-106320000D02*
X145482402Y-106320000D01*
X152400000Y-119380000D02*
X153800000Y-117980000D01*
X153800000Y-117980000D02*
X153800000Y-105916410D01*
X156800060Y-95301990D02*
X156800060Y-91991220D01*
X154438215Y-103374605D02*
X155018225Y-102794595D01*
X164554404Y-84328000D02*
X168185000Y-84328000D01*
X155018225Y-102794595D02*
X155018225Y-100891005D01*
X155018225Y-100891005D02*
X155921445Y-99987785D01*
X155921445Y-99987785D02*
X155921445Y-96180605D01*
X156800060Y-91991220D02*
X164300078Y-84491202D01*
X153800000Y-105916410D02*
X154438215Y-105278195D01*
X155921445Y-96180605D02*
X156800060Y-95301990D01*
X164300078Y-84491202D02*
X164391202Y-84491202D01*
X154438215Y-105278195D02*
X154438215Y-103374605D01*
X164391202Y-84491202D02*
X164554404Y-84328000D01*
%TO.N,PC0*%
X150194030Y-119714030D02*
X152400000Y-121920000D01*
X150194030Y-114248800D02*
X150194030Y-119714030D01*
X146812000Y-110866770D02*
X150194030Y-114248800D01*
X146812000Y-108423190D02*
X146812000Y-110866770D01*
X145508810Y-107120000D02*
X146812000Y-108423190D01*
X144672400Y-107120000D02*
X145508810Y-107120000D01*
X157250070Y-95488390D02*
X157250070Y-92177620D01*
X156500000Y-96238460D02*
X157250070Y-95488390D01*
X156500000Y-100045640D02*
X156500000Y-96238460D01*
X155468235Y-101077405D02*
X156500000Y-100045640D01*
X155468235Y-102980995D02*
X155468235Y-101077405D01*
X154888225Y-103561005D02*
X155468235Y-102980995D01*
X154888225Y-105464595D02*
X154888225Y-103561005D01*
X157250070Y-92177620D02*
X162051690Y-87376000D01*
X154250010Y-106102810D02*
X154888225Y-105464595D01*
X162051690Y-87376000D02*
X167931000Y-87376000D01*
X154250010Y-120069990D02*
X154250010Y-106102810D01*
X152400000Y-121920000D02*
X154250010Y-120069990D01*
%TO.N,PG1*%
X149744020Y-121804020D02*
X152400000Y-124460000D01*
X149744020Y-114435200D02*
X149744020Y-121804020D01*
X146050000Y-110741180D02*
X149744020Y-114435200D01*
X146050000Y-108297600D02*
X146050000Y-110741180D01*
X145672400Y-107920000D02*
X146050000Y-108297600D01*
X144672400Y-107920000D02*
X145672400Y-107920000D01*
%TO.N,PG0*%
X152146000Y-127000000D02*
X152400000Y-127000000D01*
X149294010Y-124148010D02*
X152146000Y-127000000D01*
X149294010Y-114621600D02*
X149294010Y-124148010D01*
X144672400Y-109999990D02*
X149294010Y-114621600D01*
X144672400Y-108720000D02*
X144672400Y-109999990D01*
%TO.N,PF0*%
X133372400Y-95020000D02*
X133372400Y-91970400D01*
X133372400Y-91970400D02*
X128778000Y-87376000D01*
X127000000Y-87376000D02*
X124968000Y-85344000D01*
X128778000Y-87376000D02*
X127000000Y-87376000D01*
X107767999Y-45053001D02*
X107767999Y-45140001D01*
X109768000Y-43053000D02*
X107767999Y-45053001D01*
X117289833Y-86741000D02*
X117475000Y-86741000D01*
X117475000Y-86741000D02*
X117475000Y-86741000D01*
X117475000Y-86741000D02*
X116441000Y-86741000D01*
X116441000Y-86741000D02*
X112300000Y-82600000D01*
X112300000Y-82600000D02*
X112300000Y-82400000D01*
X112300000Y-82400000D02*
X112300000Y-82200000D01*
X112300000Y-82200000D02*
X112300000Y-82200000D01*
X112800000Y-52627180D02*
X107767999Y-47595179D01*
X107767999Y-47595179D02*
X107767999Y-45053001D01*
X112800000Y-63500000D02*
X112800000Y-52627180D01*
X113100000Y-63800000D02*
X112800000Y-63500000D01*
%TO.N,PF1*%
X134172400Y-92008400D02*
X127508000Y-85344000D01*
X134172400Y-95020000D02*
X134172400Y-92008400D01*
X117856000Y-88519000D02*
X117856000Y-88519000D01*
X105817980Y-42391020D02*
X106934000Y-41275000D01*
X105817980Y-46281570D02*
X105817980Y-42391020D01*
X106934000Y-41275000D02*
X122722000Y-41275000D01*
X122722000Y-41275000D02*
X124500000Y-43053000D01*
X116528010Y-87191010D02*
X116254599Y-87191009D01*
X117856000Y-88519000D02*
X116528010Y-87191010D01*
X116254599Y-87191009D02*
X115990990Y-86927400D01*
X115990990Y-86927400D02*
X111500000Y-82436410D01*
X111500000Y-82436410D02*
X111331795Y-82268205D01*
X111331795Y-82268205D02*
X111300000Y-82236410D01*
X111300000Y-82236410D02*
X111300000Y-81200000D01*
X111300000Y-81200000D02*
X111300000Y-81200000D01*
X112700000Y-65600000D02*
X112293200Y-65193200D01*
X112293200Y-52756790D02*
X107718205Y-48181795D01*
X112293200Y-65193200D02*
X112293200Y-52756790D01*
X107718205Y-48181795D02*
X105817980Y-46281570D01*
X107850010Y-48313600D02*
X107718205Y-48181795D01*
%TO.N,PF2*%
X130048000Y-85344000D02*
X130048000Y-87247590D01*
X134972400Y-92171990D02*
X134972400Y-95020000D01*
X130048000Y-87247590D02*
X134972400Y-92171990D01*
X117130999Y-88809999D02*
X117130999Y-89698999D01*
X117130999Y-89698999D02*
X117856000Y-90424000D01*
X117856000Y-90424000D02*
X117856000Y-90424000D01*
X116341018Y-87641018D02*
X116068198Y-87641018D01*
X117130999Y-88430999D02*
X116341018Y-87641018D01*
X117130999Y-88809999D02*
X117130999Y-88430999D01*
X116068198Y-87641018D02*
X110327180Y-81900000D01*
X110327180Y-81900000D02*
X110327180Y-81900000D01*
X137003991Y-40824991D02*
X139232000Y-43053000D01*
X106747599Y-40824991D02*
X137003991Y-40824991D01*
X105367970Y-42204620D02*
X106747599Y-40824991D01*
X105367970Y-46467970D02*
X105367970Y-42204620D01*
X111843190Y-52943190D02*
X105367970Y-46467970D01*
X111843190Y-67543190D02*
X111843190Y-52943190D01*
X112350000Y-68050000D02*
X111843190Y-67543190D01*
%TO.N,PF3*%
X132588000Y-85344000D02*
X132588000Y-89151180D01*
X135772400Y-92335580D02*
X135772400Y-95020000D01*
X132588000Y-89151180D02*
X135772400Y-92335580D01*
%TO.N,PF4*%
X136572400Y-86788400D02*
X135128000Y-85344000D01*
X136572400Y-95020000D02*
X136572400Y-86788400D01*
%TO.N,PF5*%
X137372400Y-85639600D02*
X137668000Y-85344000D01*
X137372400Y-95020000D02*
X137372400Y-85639600D01*
%TO.N,PF6*%
X138172400Y-87379600D02*
X140208000Y-85344000D01*
X138172400Y-95020000D02*
X138172400Y-87379600D01*
%TO.N,PF7*%
X138972400Y-89119600D02*
X142748000Y-85344000D01*
X138972400Y-95020000D02*
X138972400Y-89119600D01*
%TO.N,PA0*%
X141372400Y-89259600D02*
X145288000Y-85344000D01*
X141372400Y-95020000D02*
X141372400Y-89259600D01*
%TO.N,PA1*%
X142172400Y-90999600D02*
X147828000Y-85344000D01*
X142172400Y-95020000D02*
X142172400Y-90999600D01*
%TO.N,PA2*%
X142972400Y-92739600D02*
X150368000Y-85344000D01*
X142972400Y-95020000D02*
X142972400Y-92739600D01*
%TO.N,PG4*%
X132572400Y-110420000D02*
X132572400Y-114315600D01*
X132572400Y-114315600D02*
X131318000Y-115570000D01*
X131318000Y-115570000D02*
X130556000Y-115570000D01*
X128524000Y-117602000D02*
X128524000Y-125984000D01*
X130556000Y-115570000D02*
X128524000Y-117602000D01*
D39*
X131800000Y-132800000D02*
X134100000Y-130500000D01*
X120900000Y-132800000D02*
X131800000Y-132800000D01*
X140600000Y-130500000D02*
X134100000Y-130500000D01*
D35*
%TO.N,PG3*%
X131772400Y-110420000D02*
X131772400Y-113845600D01*
X130498010Y-115119990D02*
X129990010Y-115119990D01*
X131772400Y-113845600D02*
X130498010Y-115119990D01*
X125984000Y-119126000D02*
X125984000Y-125984000D01*
X129990010Y-115119990D02*
X125984000Y-119126000D01*
D39*
X123600000Y-130600000D02*
X123700000Y-130500000D01*
X120900000Y-130600000D02*
X123600000Y-130600000D01*
X130200000Y-130500000D02*
X123700000Y-130500000D01*
%TO.N,Net-(C101-Pad1)*%
X132572400Y-93180900D02*
X130577500Y-91186000D01*
X132572400Y-95020000D02*
X132572400Y-93180900D01*
D35*
%TO.N,PB1*%
X122864000Y-104720000D02*
X120904000Y-106680000D01*
X129272400Y-104720000D02*
X122864000Y-104720000D01*
X117862000Y-103638000D02*
X117856000Y-103632000D01*
X120904000Y-106680000D02*
X117862000Y-103638000D01*
X108586411Y-88520409D02*
X108586411Y-91613589D01*
X109396790Y-87710030D02*
X108586411Y-88520409D01*
X113591570Y-87710030D02*
X109396790Y-87710030D01*
X115330959Y-89449419D02*
X113591570Y-87710030D01*
X116349990Y-92059220D02*
X115330959Y-91040189D01*
X115330959Y-91040189D02*
X115330959Y-89449419D01*
X116349990Y-102125990D02*
X116349990Y-92059220D01*
X108586411Y-91613589D02*
X108200000Y-92000000D01*
X117862000Y-103638000D02*
X116349990Y-102125990D01*
%TO.N,PD7*%
X142972400Y-110420000D02*
X144456000Y-110420000D01*
X148844000Y-114808000D02*
X148844000Y-125984000D01*
X144456000Y-110420000D02*
X148844000Y-114808000D01*
%TO.N,PD6*%
X142172400Y-111420000D02*
X142512400Y-111760000D01*
X142172400Y-110420000D02*
X142172400Y-111420000D01*
X142512400Y-111760000D02*
X145034000Y-111760000D01*
X145034000Y-111760000D02*
X148336000Y-115062000D01*
X148336000Y-123952000D02*
X146304000Y-125984000D01*
X148336000Y-115062000D02*
X148336000Y-123952000D01*
%TO.N,PD5*%
X141372400Y-111256410D02*
X142637990Y-112522000D01*
X141372400Y-110420000D02*
X141372400Y-111256410D01*
X142637990Y-112522000D02*
X145034000Y-112522000D01*
X145034000Y-112522000D02*
X147885990Y-115373990D01*
X147885990Y-121862010D02*
X143764000Y-125984000D01*
X147885990Y-115373990D02*
X147885990Y-121862010D01*
%TO.N,PD4*%
X140572400Y-110420000D02*
X140572400Y-111108400D01*
X142255580Y-112776000D02*
X142509580Y-113030000D01*
X142240000Y-112776000D02*
X142255580Y-112776000D01*
X140572400Y-111108400D02*
X142240000Y-112776000D01*
X142509580Y-113030000D02*
X144905590Y-113030000D01*
X144905590Y-113030000D02*
X147435980Y-115560390D01*
X147435980Y-115560390D02*
X147435980Y-121675610D01*
X147435980Y-121675610D02*
X146175590Y-122936000D01*
X144272000Y-122936000D02*
X141224000Y-125984000D01*
X146175590Y-122936000D02*
X144272000Y-122936000D01*
%TO.N,PD1*%
X191700000Y-111828000D02*
X191700000Y-110674000D01*
X191700000Y-110674000D02*
X191700000Y-110420000D01*
X191700000Y-110420000D02*
X191516000Y-110236000D01*
X191516000Y-110236000D02*
X191516000Y-110236000D01*
X187960000Y-113284000D02*
X189230000Y-114554000D01*
X189230000Y-114554000D02*
X189230000Y-116078000D01*
X189230000Y-116078000D02*
X189230000Y-116078000D01*
X138172400Y-111420000D02*
X141560400Y-114808000D01*
X138172400Y-110420000D02*
X138172400Y-111420000D01*
X141560400Y-114808000D02*
X144651590Y-114808000D01*
X146050000Y-116206410D02*
X146050000Y-121029590D01*
X144651590Y-114808000D02*
X146050000Y-116206410D01*
X146050000Y-121029590D02*
X145493620Y-121585970D01*
X138002030Y-121585970D02*
X133604000Y-125984000D01*
X145493620Y-121585970D02*
X138002030Y-121585970D01*
X176530000Y-114300000D02*
X176530000Y-114300000D01*
X182600000Y-115400000D02*
X180100000Y-115400000D01*
X180100000Y-115400000D02*
X179200000Y-114500000D01*
X179200000Y-114500000D02*
X179200000Y-114500000D01*
X116712000Y-127888000D02*
X115824000Y-127000000D01*
X131700000Y-127888000D02*
X116712000Y-127888000D01*
X135120000Y-127500000D02*
X133604000Y-125984000D01*
X149000000Y-127500000D02*
X135120000Y-127500000D01*
X176530000Y-114300000D02*
X176056010Y-114773990D01*
X170200000Y-136100000D02*
X155700000Y-136100000D01*
X176056010Y-114773990D02*
X174916820Y-114773990D01*
X174845811Y-114844999D02*
X172655001Y-114844999D01*
X172655001Y-114844999D02*
X171300000Y-116200000D01*
X174916820Y-114773990D02*
X174845811Y-114844999D01*
X154500000Y-134900000D02*
X154500000Y-131100000D01*
X154500000Y-131100000D02*
X152000000Y-128600000D01*
X171300000Y-116200000D02*
X171300000Y-135000000D01*
X171300000Y-135000000D02*
X170200000Y-136100000D01*
X155700000Y-136100000D02*
X154500000Y-134900000D01*
X152000000Y-128600000D02*
X150100000Y-128600000D01*
X150100000Y-128600000D02*
X149000000Y-127500000D01*
%TO.N,PD0*%
X190900000Y-111828000D02*
X190900000Y-110636000D01*
X190900000Y-110636000D02*
X190500000Y-110236000D01*
X190500000Y-110236000D02*
X190500000Y-110236000D01*
X188976000Y-110236000D02*
X187631998Y-110236000D01*
X187631998Y-110236000D02*
X185853998Y-112014000D01*
X185853998Y-112014000D02*
X185420000Y-112014000D01*
X185420000Y-112014000D02*
X185420000Y-112014000D01*
X137372400Y-110702400D02*
X137414000Y-110744000D01*
X137372400Y-110420000D02*
X137372400Y-110702400D01*
X137372400Y-110420000D02*
X137372400Y-111464400D01*
X141215399Y-115307399D02*
X144514579Y-115307399D01*
X137372400Y-111464400D02*
X141215399Y-115307399D01*
X144514579Y-115307399D02*
X145542000Y-116334820D01*
X145542000Y-120650000D02*
X145056040Y-121135960D01*
X145542000Y-116334820D02*
X145542000Y-120650000D01*
X135912040Y-121135960D02*
X131064000Y-125984000D01*
X145056040Y-121135960D02*
X135912040Y-121135960D01*
X154049990Y-131286400D02*
X154049991Y-135086401D01*
X152372600Y-129609010D02*
X154049990Y-131286400D01*
X170386401Y-136550009D02*
X171750010Y-135186400D01*
X155513600Y-136550010D02*
X170386401Y-136550009D01*
X154049991Y-135086401D02*
X155513600Y-136550010D01*
X171750010Y-117555990D02*
X173736000Y-115570000D01*
X171750010Y-135186400D02*
X171750010Y-117555990D01*
X178400000Y-113900000D02*
X178400000Y-113900000D01*
X182426998Y-114500000D02*
X182600000Y-114500000D01*
X181977008Y-114949990D02*
X182426998Y-114500000D01*
X180000000Y-114663590D02*
X180286400Y-114949990D01*
X180000000Y-114600000D02*
X180000000Y-114663590D01*
X179988591Y-114588591D02*
X180000000Y-114600000D01*
X179925001Y-114588591D02*
X179988591Y-114588591D01*
X180286400Y-114949990D02*
X181977008Y-114949990D01*
X179925001Y-114151999D02*
X179925001Y-114588591D01*
X179548001Y-113774999D02*
X179925001Y-114151999D01*
X178851999Y-113774999D02*
X179548001Y-113774999D01*
X178726998Y-113900000D02*
X178851999Y-113774999D01*
X178400000Y-113900000D02*
X178726998Y-113900000D01*
X131064000Y-125984000D02*
X129610010Y-127437990D01*
X129610010Y-127437990D02*
X120437990Y-127437990D01*
X117460000Y-124460000D02*
X115824000Y-124460000D01*
X120437990Y-127437990D02*
X117460000Y-124460000D01*
X151750010Y-129050010D02*
X149913599Y-129050009D01*
X152309010Y-129609010D02*
X151750010Y-129050010D01*
X152372600Y-129609010D02*
X152309010Y-129609010D01*
X149913599Y-129050009D02*
X148813600Y-127950010D01*
X133030010Y-127950010D02*
X131064000Y-125984000D01*
X148813600Y-127950010D02*
X133030010Y-127950010D01*
%TO.N,PB6*%
X129272400Y-108720000D02*
X128262000Y-108720000D01*
X125222000Y-115062000D02*
X120904000Y-119380000D01*
X125222000Y-111760000D02*
X125222000Y-115062000D01*
X128262000Y-108720000D02*
X125222000Y-111760000D01*
D39*
%TO.N,PB5*%
X129222400Y-107970000D02*
X129272400Y-107920000D01*
D35*
X128272400Y-107920000D02*
X122682000Y-113510400D01*
X129272400Y-107920000D02*
X128272400Y-107920000D01*
X122682000Y-115062000D02*
X120904000Y-116840000D01*
X122682000Y-113510400D02*
X122682000Y-115062000D01*
X120904000Y-116840000D02*
X118872000Y-114808000D01*
X112242000Y-108458000D02*
X107934000Y-108458000D01*
X118808000Y-114808000D02*
X118872000Y-114808000D01*
X116900000Y-112900000D02*
X118808000Y-114808000D01*
%TO.N,PB3*%
X128272400Y-106320000D02*
X127404400Y-107188000D01*
X129272400Y-106320000D02*
X128272400Y-106320000D01*
X125476000Y-107188000D02*
X120904000Y-111760000D01*
X127404400Y-107188000D02*
X125476000Y-107188000D01*
X116966998Y-111760000D02*
X113200000Y-115526998D01*
X120904000Y-111760000D02*
X116966998Y-111760000D01*
X113200000Y-117300000D02*
X110000000Y-120500000D01*
X113200000Y-115526998D02*
X113200000Y-117300000D01*
%TO.N,PB2*%
X128272400Y-105520000D02*
X127620400Y-106172000D01*
X129272400Y-105520000D02*
X128272400Y-105520000D01*
X123952000Y-106172000D02*
X120904000Y-109220000D01*
X127620400Y-106172000D02*
X123952000Y-106172000D01*
X120904000Y-109220000D02*
X117680000Y-109220000D01*
X117680000Y-109220000D02*
X112100000Y-114800000D01*
X112100000Y-115725000D02*
X110125000Y-117700000D01*
X112100000Y-114800000D02*
X112100000Y-115725000D01*
%TO.N,PB0*%
X121124000Y-103920000D02*
X120904000Y-104140000D01*
X129272400Y-103920000D02*
X121124000Y-103920000D01*
X118500000Y-105500000D02*
X117800000Y-105500000D01*
X117800000Y-105500000D02*
X111400000Y-111900000D01*
X111400000Y-113550000D02*
X110150000Y-114800000D01*
X111400000Y-111900000D02*
X111400000Y-113550000D01*
%TO.N,PE7*%
X129272400Y-103120000D02*
X128012000Y-103120000D01*
X126492000Y-101600000D02*
X120904000Y-101600000D01*
X128012000Y-103120000D02*
X126492000Y-101600000D01*
X120904000Y-101600000D02*
X119304000Y-100000000D01*
X119304000Y-100000000D02*
X118200000Y-100000000D01*
X118200000Y-100000000D02*
X118200000Y-100000000D01*
X115400000Y-106600000D02*
X110000000Y-112000000D01*
X115400000Y-103500000D02*
X115400000Y-106600000D01*
%TO.N,PE6*%
X129272400Y-102320000D02*
X128482000Y-102320000D01*
X125222000Y-99060000D02*
X120904000Y-99060000D01*
X128482000Y-102320000D02*
X125222000Y-99060000D01*
%TO.N,PE2*%
X128050998Y-99120000D02*
X126492000Y-97561002D01*
X129272400Y-99120000D02*
X128050998Y-99120000D01*
X126492000Y-94488000D02*
X120904000Y-88900000D01*
X126492000Y-97561002D02*
X126492000Y-94488000D01*
%TO.N,PB7*%
X130972400Y-110420000D02*
X130972400Y-113375600D01*
X130972400Y-113375600D02*
X125222000Y-119126000D01*
X125222000Y-124206000D02*
X123444000Y-125984000D01*
X125222000Y-119126000D02*
X125222000Y-124206000D01*
%TO.N,Net-(J3.6-Pad6)*%
X188925200Y-65582800D02*
X189687200Y-65582800D01*
X191989200Y-63280800D02*
X191989200Y-59486800D01*
X189687200Y-65582800D02*
X191989200Y-63280800D01*
X188925200Y-65582800D02*
X183819800Y-65582800D01*
X183819800Y-65582800D02*
X182626000Y-64389000D01*
X182626000Y-64389000D02*
X178562000Y-64389000D01*
X178562000Y-64389000D02*
X171577000Y-71374000D01*
X147701000Y-71374000D02*
X145415000Y-69088000D01*
X171577000Y-71374000D02*
X147701000Y-71374000D01*
X145415000Y-71448000D02*
X145288000Y-71575000D01*
X145415000Y-69088000D02*
X145415000Y-71448000D01*
%TO.N,Net-(J3.6-Pad5)*%
X188925200Y-63042800D02*
X190703200Y-61264800D01*
X190703200Y-58232800D02*
X191989200Y-56946800D01*
X190703200Y-61264800D02*
X190703200Y-58232800D01*
X188925200Y-63042800D02*
X183946800Y-63042800D01*
X183946800Y-63042800D02*
X182880000Y-61976000D01*
X182880000Y-61976000D02*
X182880000Y-61976000D01*
X179324000Y-62230000D02*
X179324000Y-62985785D01*
X179324000Y-62985785D02*
X171385795Y-70923990D01*
X142875000Y-69088000D02*
X142875000Y-68326000D01*
X142875000Y-68326000D02*
X143891000Y-67310000D01*
X145923000Y-67310000D02*
X149536990Y-70923990D01*
X143891000Y-67310000D02*
X145923000Y-67310000D01*
X149536990Y-70923990D02*
X171385795Y-70923990D01*
X142875000Y-69088000D02*
X142875000Y-71575000D01*
%TO.N,Net-(J3.6-Pad4)*%
X191989200Y-53406800D02*
X191989200Y-54406800D01*
X188925200Y-50342800D02*
X191989200Y-53406800D01*
X187800199Y-51467801D02*
X187292199Y-51467801D01*
X188925200Y-50342800D02*
X187800199Y-51467801D01*
X187292199Y-51467801D02*
X186182000Y-52578000D01*
X186182000Y-52578000D02*
X186182000Y-57404000D01*
X185564190Y-58021810D02*
X183243810Y-58021810D01*
X186182000Y-57404000D02*
X185564190Y-58021810D01*
X183243810Y-58021810D02*
X182880000Y-57658000D01*
X182880000Y-57658000D02*
X182880000Y-56642000D01*
X182880000Y-56642000D02*
X182880000Y-56642000D01*
X178598999Y-59003999D02*
X178598999Y-63074376D01*
X179197000Y-58405998D02*
X178598999Y-59003999D01*
X178598999Y-63074376D02*
X171315375Y-70358000D01*
X171196000Y-70358000D02*
X171080020Y-70473980D01*
X171315375Y-70358000D02*
X171196000Y-70358000D01*
X171080020Y-70473980D02*
X149723390Y-70473980D01*
X149723390Y-70473980D02*
X146109400Y-66859990D01*
X142563010Y-66859990D02*
X140335000Y-69088000D01*
X146109400Y-66859990D02*
X142563010Y-66859990D01*
X140335000Y-71374000D02*
X140208000Y-71501000D01*
X140335000Y-69088000D02*
X140335000Y-71374000D01*
%TO.N,Net-(J3.6-Pad3)*%
X181305200Y-50342800D02*
X179003200Y-50342800D01*
X178148989Y-58381007D02*
X178148989Y-62887976D01*
X179197000Y-57332996D02*
X178148989Y-58381007D01*
X179197000Y-57150000D02*
X179197000Y-57332996D01*
X178148989Y-62887976D02*
X171128975Y-69907990D01*
X171128975Y-69907990D02*
X149793811Y-69907991D01*
X140473020Y-66409980D02*
X137795000Y-69088000D01*
X146295800Y-66409980D02*
X140473020Y-66409980D01*
X149793811Y-69907991D02*
X146295800Y-66409980D01*
X137795000Y-71411000D02*
X137668000Y-71538000D01*
X137795000Y-69088000D02*
X137795000Y-71411000D01*
%TO.N,Net-(J3.6-Pad2)*%
X181305200Y-47802800D02*
X179003200Y-47802800D01*
X177927000Y-57966586D02*
X177927000Y-57150000D01*
X177698979Y-58194607D02*
X177927000Y-57966586D01*
X177698979Y-62701576D02*
X177698979Y-58194607D01*
X170942575Y-69457980D02*
X177698979Y-62701576D01*
X149980211Y-69457981D02*
X170942575Y-69457980D01*
X177927000Y-57150000D02*
X179133500Y-55943500D01*
X146482201Y-65959971D02*
X149980211Y-69457981D01*
X138383030Y-65959970D02*
X146482201Y-65959971D01*
X135255000Y-69088000D02*
X138383030Y-65959970D01*
X135255000Y-71411000D02*
X135128000Y-71538000D01*
X135255000Y-69088000D02*
X135255000Y-71411000D01*
%TO.N,Net-(J3.6-Pad1)*%
X178495200Y-52882800D02*
X178495200Y-53019200D01*
X178495200Y-53019200D02*
X180086000Y-54610000D01*
X180086000Y-61823600D02*
X181305200Y-63042800D01*
X180086000Y-54610000D02*
X180086000Y-61823600D01*
X132715000Y-69088000D02*
X136293040Y-65509960D01*
X136293040Y-65509960D02*
X146668602Y-65509962D01*
X146668602Y-65509962D02*
X150166611Y-69007971D01*
X178495200Y-52882800D02*
X177248969Y-54129031D01*
X177248969Y-54129031D02*
X177248969Y-62515176D01*
X177248969Y-62515176D02*
X175381073Y-64383072D01*
X175381073Y-64383072D02*
X170756175Y-69007970D01*
X170756175Y-69007970D02*
X150166610Y-69007970D01*
X132715000Y-71411000D02*
X132588000Y-71538000D01*
X132715000Y-69088000D02*
X132715000Y-71411000D01*
%TO.N,Net-(J3.5-Pad6)*%
X167081200Y-62788800D02*
X164033200Y-65836800D01*
X167097200Y-62788800D02*
X167081200Y-62788800D01*
X129159000Y-71284000D02*
X128905000Y-71538000D01*
X129159000Y-69088000D02*
X129159000Y-71284000D01*
X133187048Y-65059952D02*
X129159000Y-69088000D01*
X146855002Y-65059952D02*
X133187048Y-65059952D01*
X150353010Y-68557960D02*
X146855002Y-65059952D01*
X161312040Y-68557960D02*
X150353010Y-68557960D01*
X164033200Y-65836800D02*
X161312040Y-68557960D01*
%TO.N,Net-(J3.5-Pad5)*%
X167081200Y-60248800D02*
X164033200Y-63296800D01*
X167097200Y-60248800D02*
X167081200Y-60248800D01*
X126619000Y-71321000D02*
X126492000Y-71448000D01*
X126619000Y-69088000D02*
X126619000Y-71321000D01*
X131097058Y-64609942D02*
X126619000Y-69088000D01*
X147041402Y-64609942D02*
X131097058Y-64609942D01*
X150539410Y-68107950D02*
X147041402Y-64609942D01*
X161125640Y-68107950D02*
X150539410Y-68107950D01*
X162241795Y-66991795D02*
X161125640Y-68107950D01*
X162241795Y-65088205D02*
X162241795Y-66991795D01*
X164033200Y-63296800D02*
X162241795Y-65088205D01*
%TO.N,Net-(J3.5-Pad4)*%
X167113200Y-53676800D02*
X167113200Y-57708800D01*
X164033200Y-50596800D02*
X167113200Y-53676800D01*
X124079000Y-71374000D02*
X123952000Y-71501000D01*
X124079000Y-69088000D02*
X124079000Y-71374000D01*
X129007068Y-64159932D02*
X124079000Y-69088000D01*
X150725810Y-67657940D02*
X147227802Y-64159932D01*
X147227802Y-64159932D02*
X129007068Y-64159932D01*
X160939240Y-67657940D02*
X150725810Y-67657940D01*
X161791785Y-66805395D02*
X160939240Y-67657940D01*
X161791785Y-64901805D02*
X161791785Y-66805395D01*
X162052000Y-64641590D02*
X161791785Y-64901805D01*
X162052000Y-52578000D02*
X162052000Y-64641590D01*
X164033200Y-50596800D02*
X162052000Y-52578000D01*
%TO.N,Net-(J3.5-Pad3)*%
X153857200Y-48056800D02*
X156413200Y-48056800D01*
X121539000Y-71374000D02*
X121412000Y-71501000D01*
X121539000Y-69088000D02*
X121539000Y-71374000D01*
X153857200Y-48056800D02*
X153857200Y-47685200D01*
X156413200Y-48056800D02*
X158496000Y-50139600D01*
X158496000Y-67056000D02*
X158344070Y-67207930D01*
X158496000Y-50139600D02*
X158496000Y-67056000D01*
X158344070Y-67207930D02*
X150912210Y-67207930D01*
X150912210Y-67207930D02*
X147414202Y-63709922D01*
X126917078Y-63709922D02*
X121539000Y-69088000D01*
X147414202Y-63709922D02*
X126917078Y-63709922D01*
%TO.N,Net-(J3.5-Pad2)*%
X153857200Y-50596800D02*
X156413200Y-50596800D01*
X157538201Y-51721801D02*
X157538201Y-51747201D01*
X156413200Y-50596800D02*
X157538201Y-51721801D01*
X157538201Y-51747201D02*
X157988000Y-52197000D01*
X157988000Y-63677000D02*
X157149000Y-64516000D01*
X157988000Y-52197000D02*
X157988000Y-63677000D01*
X118999000Y-71374000D02*
X118872000Y-71501000D01*
X118999000Y-69088000D02*
X118999000Y-71374000D01*
X124827088Y-63259912D02*
X118999000Y-69088000D01*
X147600602Y-63259912D02*
X124827088Y-63259912D01*
X148856690Y-64516000D02*
X147600602Y-63259912D01*
X157149000Y-64516000D02*
X148856690Y-64516000D01*
%TO.N,Net-(J3.5-Pad1)*%
X153857200Y-53136800D02*
X153857200Y-53152800D01*
X153857200Y-53152800D02*
X153873200Y-53168800D01*
X153873200Y-60756800D02*
X156413200Y-63296800D01*
X153873200Y-53168800D02*
X153873200Y-60756800D01*
X116459000Y-71374000D02*
X116332000Y-71501000D01*
X116459000Y-69088000D02*
X116459000Y-71374000D01*
X155613201Y-62496801D02*
X148450199Y-62496801D01*
X156413200Y-63296800D02*
X155613201Y-62496801D01*
X148450199Y-62496801D02*
X148209000Y-62738000D01*
X122809000Y-62738000D02*
X116459000Y-69088000D01*
X148209000Y-62738000D02*
X122809000Y-62738000D01*
%TO.N,M3A*%
X151520000Y-100720000D02*
X152400000Y-101600000D01*
X144672400Y-100720000D02*
X151520000Y-100720000D01*
X152958800Y-101041200D02*
X152400000Y-101600000D01*
X139166021Y-76174021D02*
X137668000Y-74676000D01*
X146656201Y-76174021D02*
X139166021Y-76174021D01*
X147836198Y-77354018D02*
X146656201Y-76174021D01*
X159774200Y-77354020D02*
X147836198Y-77354018D01*
X159963250Y-77354020D02*
X159774200Y-77354020D01*
X162950046Y-80340816D02*
X159963250Y-77354020D01*
X155450030Y-91432020D02*
X162950049Y-83932001D01*
X154571415Y-95621405D02*
X155450030Y-94742790D01*
X137668000Y-74676000D02*
X137668000Y-72988000D01*
X162950049Y-83932001D02*
X162950046Y-80340816D01*
X154571415Y-99428585D02*
X154571415Y-95621405D01*
X155450030Y-94742790D02*
X155450030Y-91432020D01*
X152400000Y-101600000D02*
X154571415Y-99428585D01*
%TO.N,M3B*%
X151540000Y-99920000D02*
X152400000Y-99060000D01*
X144672400Y-99920000D02*
X151540000Y-99920000D01*
X152958800Y-98501200D02*
X152400000Y-99060000D01*
X132588000Y-74422000D02*
X132588000Y-72988000D01*
X133440001Y-75274001D02*
X132588000Y-74422000D01*
X152400000Y-99060000D02*
X154000000Y-97460000D01*
X154000000Y-97460000D02*
X154000000Y-95556410D01*
X147649797Y-77804027D02*
X146469801Y-76624031D01*
X154000000Y-95556410D02*
X155000020Y-94556390D01*
X155000020Y-94556390D02*
X155000020Y-91245620D01*
X155000020Y-91245620D02*
X162500039Y-83745601D01*
X162500039Y-83745601D02*
X162500037Y-80527217D01*
X162500037Y-80527217D02*
X159776850Y-77804030D01*
X159776850Y-77804030D02*
X159587800Y-77804030D01*
X159587800Y-77804030D02*
X147649797Y-77804027D01*
X146469801Y-76624031D02*
X138979620Y-76624030D01*
X138979620Y-76624030D02*
X137629591Y-75274001D01*
X137629591Y-75274001D02*
X133440001Y-75274001D01*
%TO.N,M4A*%
X151130000Y-106680000D02*
X152400000Y-106680000D01*
X146770000Y-102320000D02*
X151130000Y-106680000D01*
X144672400Y-102320000D02*
X146770000Y-102320000D01*
X152958800Y-106121200D02*
X152400000Y-106680000D01*
X143002000Y-73152000D02*
X142875000Y-73025000D01*
X143002000Y-74422000D02*
X143002000Y-73152000D01*
X143854001Y-75274001D02*
X143002000Y-74422000D01*
X147029001Y-75274001D02*
X143854001Y-75274001D01*
X152400000Y-106680000D02*
X153988205Y-105091795D01*
X153988205Y-105091795D02*
X153988205Y-103188205D01*
X153988205Y-103188205D02*
X154568215Y-102608195D01*
X154568215Y-102608195D02*
X154568215Y-100704605D01*
X163850068Y-79913658D02*
X160390410Y-76454000D01*
X154568215Y-100704605D02*
X155471435Y-99801385D01*
X156350050Y-95115590D02*
X156350050Y-91804820D01*
X155471435Y-99801385D02*
X155471435Y-95994205D01*
X155471435Y-95994205D02*
X156350050Y-95115590D01*
X156350050Y-91804820D02*
X163850069Y-84304801D01*
X163850069Y-84304801D02*
X163850068Y-79913658D01*
X160390410Y-76454000D02*
X148209000Y-76454000D01*
X148209000Y-76454000D02*
X147029001Y-75274001D01*
%TO.N,M4B*%
X150114000Y-104140000D02*
X152400000Y-104140000D01*
X147494000Y-101520000D02*
X150114000Y-104140000D01*
X144672400Y-101520000D02*
X147494000Y-101520000D01*
X152958800Y-103581200D02*
X152400000Y-104140000D01*
X146842601Y-75724011D02*
X148022599Y-76904009D01*
X141510011Y-75724011D02*
X146842601Y-75724011D01*
X140208000Y-74422000D02*
X141510011Y-75724011D01*
X140208000Y-72951000D02*
X140208000Y-74422000D01*
X163400059Y-80100059D02*
X160204010Y-76904010D01*
X163400059Y-84118401D02*
X163400059Y-80100059D01*
X155900040Y-91618420D02*
X163400059Y-84118401D01*
X155900040Y-94929190D02*
X155900040Y-91618420D01*
X154118205Y-100518205D02*
X155021425Y-99614985D01*
X155021425Y-95807805D02*
X155900040Y-94929190D01*
X155021425Y-99614985D02*
X155021425Y-95807805D01*
X160204010Y-76904010D02*
X159804010Y-76904010D01*
X159804010Y-76904010D02*
X159960600Y-76904010D01*
X148022599Y-76904009D02*
X159804010Y-76904010D01*
X154118205Y-102421795D02*
X154118205Y-100518205D01*
X152400000Y-104140000D02*
X154118205Y-102421795D01*
%TO.N,Net-(D1.5-Pad2)*%
X112900000Y-102400000D02*
X113400000Y-101900000D01*
X111525000Y-102400000D02*
X112900000Y-102400000D01*
%TO.N,Net-(D1.2-Pad2)*%
X113400000Y-90200000D02*
X113600000Y-90000000D01*
X111725000Y-90200000D02*
X113400000Y-90200000D01*
%TO.N,Net-(D1.3-Pad2)*%
X113400000Y-94000000D02*
X113500000Y-93900000D01*
X111550000Y-94000000D02*
X113400000Y-94000000D01*
%TO.N,Net-(D1.4-Pad2)*%
X113300000Y-98100000D02*
X113500000Y-97900000D01*
X111625000Y-98100000D02*
X113300000Y-98100000D01*
%TO.N,Net-(J1.36-Pad4)*%
X106380000Y-120500000D02*
X105800000Y-119920000D01*
X108550000Y-120500000D02*
X106380000Y-120500000D01*
X113450000Y-92150000D02*
X113600000Y-92000000D01*
X111150000Y-92150000D02*
X113450000Y-92150000D01*
%TO.N,Net-(J1.36-Pad3)*%
X106120000Y-117700000D02*
X105800000Y-117380000D01*
X108675000Y-117700000D02*
X106120000Y-117700000D01*
X113400000Y-96000000D02*
X113500000Y-95900000D01*
X110700000Y-96000000D02*
X113400000Y-96000000D01*
%TO.N,Net-(J1.36-Pad2)*%
X105840000Y-114800000D02*
X105800000Y-114840000D01*
X108700000Y-114800000D02*
X105840000Y-114800000D01*
X113200000Y-100200000D02*
X113500000Y-99900000D01*
X109400000Y-100200000D02*
X113200000Y-100200000D01*
%TO.N,Net-(J1.36-Pad1)*%
X106100000Y-112000000D02*
X105800000Y-112300000D01*
X108550000Y-112000000D02*
X106100000Y-112000000D01*
X113400000Y-103900000D02*
X113000000Y-104300000D01*
X112900000Y-104400000D02*
X113400000Y-103900000D01*
X108500000Y-104400000D02*
X109100000Y-103800000D01*
X113300000Y-103800000D02*
X113400000Y-103900000D01*
X109100000Y-103800000D02*
X113300000Y-103800000D01*
%TO.N,B_RXD*%
X142182010Y-122485990D02*
X138684000Y-125984000D01*
X145989190Y-122485990D02*
X142182010Y-122485990D01*
X146985970Y-121489210D02*
X145989190Y-122485990D01*
X145031180Y-113792000D02*
X146985970Y-115746790D01*
X142144400Y-113792000D02*
X145031180Y-113792000D01*
X139772400Y-111420000D02*
X142144400Y-113792000D01*
X146985970Y-115746790D02*
X146985970Y-121489210D01*
X139772400Y-110420000D02*
X139772400Y-111420000D01*
X159200000Y-124000000D02*
X159000000Y-124200000D01*
X159200000Y-117500000D02*
X159200000Y-124000000D01*
%TO.N,B_TXD*%
X138972400Y-110420000D02*
X138972400Y-111540400D01*
X138972400Y-111540400D02*
X141732000Y-114300000D01*
X144780000Y-114300000D02*
X146535960Y-116055960D01*
X141732000Y-114300000D02*
X144780000Y-114300000D01*
X146535960Y-121180040D02*
X145680020Y-122035980D01*
X146535960Y-116055960D02*
X146535960Y-121180040D01*
X140092020Y-122035980D02*
X136144000Y-125984000D01*
X145680020Y-122035980D02*
X140092020Y-122035980D01*
%TO.N,B_STAT*%
X151094050Y-115534050D02*
X152400000Y-116840000D01*
X151094050Y-113876000D02*
X151094050Y-115534050D01*
X147835625Y-110617575D02*
X151094050Y-113876000D01*
X147835625Y-107957625D02*
X147835625Y-110617575D01*
X145398000Y-105520000D02*
X147835625Y-107957625D01*
X144672400Y-105520000D02*
X145398000Y-105520000D01*
D39*
%TO.N,3.3V*%
X165050000Y-112500000D02*
X165100000Y-112550000D01*
X163000000Y-112500000D02*
X165050000Y-112500000D01*
X165560000Y-113010000D02*
X165100000Y-112550000D01*
X165560000Y-115700000D02*
X165560000Y-113010000D01*
D35*
%TO.N,Net-(J37-Pad3)*%
X161000000Y-124200000D02*
X162900000Y-124200000D01*
X162900000Y-115820000D02*
X163020000Y-115700000D01*
X162900000Y-124200000D02*
X162900000Y-115820000D01*
D39*
%TO.N,Net-(Q1.1-Pad1)*%
X165100000Y-108400000D02*
X165100000Y-110650000D01*
X163550000Y-110650000D02*
X163000000Y-110100000D01*
X165100000Y-110650000D02*
X163550000Y-110650000D01*
D37*
%TO.N,Net-(J2.7-Pad2)*%
X104800000Y-70400000D02*
X104800000Y-72940000D01*
%TO.N,Net-(J2.6-Pad2)*%
X104900000Y-58440000D02*
X104900000Y-60980000D01*
%TO.N,Net-(J2.5-Pad2)*%
X101800000Y-58540000D02*
X101800000Y-61080000D01*
%TO.N,Net-(J2.8-Pad2)*%
X101800000Y-70440000D02*
X101800000Y-72980000D01*
%TD*%
D41*
%TO.N,V_MOT*%
X196067820Y-85232498D02*
X195957506Y-85291463D01*
X195860815Y-85370815D01*
X195781463Y-85467506D01*
X195722498Y-85577820D01*
X195686188Y-85697518D01*
X195673928Y-85822000D01*
X195677000Y-86836250D01*
X195835750Y-86995000D01*
X197485000Y-86995000D01*
X197485000Y-86975000D01*
X197739000Y-86975000D01*
X197739000Y-86995000D01*
X197759000Y-86995000D01*
X197759000Y-87249000D01*
X197739000Y-87249000D01*
X197739000Y-88898250D01*
X197897750Y-89057000D01*
X198912000Y-89060072D01*
X199036482Y-89047812D01*
X199156180Y-89011502D01*
X199266494Y-88952537D01*
X199363185Y-88873185D01*
X199442537Y-88776494D01*
X199492001Y-88683956D01*
X199492001Y-90297000D01*
X197953401Y-90297000D01*
X197802581Y-90267000D01*
X197421419Y-90267000D01*
X197270599Y-90297000D01*
X194792540Y-90297000D01*
X194767764Y-90299440D01*
X194743939Y-90306667D01*
X194721983Y-90318403D01*
X194702737Y-90334197D01*
X194686943Y-90353443D01*
X194675207Y-90375399D01*
X194667980Y-90399224D01*
X194665540Y-90424000D01*
X194665540Y-95631000D01*
X191363540Y-95631000D01*
X191363540Y-90499501D01*
X191367597Y-90494557D01*
X191379333Y-90472601D01*
X191386560Y-90448776D01*
X191389000Y-90424000D01*
X191389000Y-88422000D01*
X195673928Y-88422000D01*
X195686188Y-88546482D01*
X195722498Y-88666180D01*
X195781463Y-88776494D01*
X195860815Y-88873185D01*
X195957506Y-88952537D01*
X196067820Y-89011502D01*
X196187518Y-89047812D01*
X196312000Y-89060072D01*
X197326250Y-89057000D01*
X197485000Y-88898250D01*
X197485000Y-87249000D01*
X195835750Y-87249000D01*
X195677000Y-87407750D01*
X195673928Y-88422000D01*
X191389000Y-88422000D01*
X191389000Y-85217000D01*
X196118910Y-85217000D01*
X196067820Y-85232498D01*
%TA.AperFunction,Conductor*%
D42*
G36*
X196067820Y-85232498D02*
G01*
X195957506Y-85291463D01*
X195860815Y-85370815D01*
X195781463Y-85467506D01*
X195722498Y-85577820D01*
X195686188Y-85697518D01*
X195673928Y-85822000D01*
X195677000Y-86836250D01*
X195835750Y-86995000D01*
X197485000Y-86995000D01*
X197485000Y-86975000D01*
X197739000Y-86975000D01*
X197739000Y-86995000D01*
X197759000Y-86995000D01*
X197759000Y-87249000D01*
X197739000Y-87249000D01*
X197739000Y-88898250D01*
X197897750Y-89057000D01*
X198912000Y-89060072D01*
X199036482Y-89047812D01*
X199156180Y-89011502D01*
X199266494Y-88952537D01*
X199363185Y-88873185D01*
X199442537Y-88776494D01*
X199492001Y-88683956D01*
X199492001Y-90297000D01*
X197953401Y-90297000D01*
X197802581Y-90267000D01*
X197421419Y-90267000D01*
X197270599Y-90297000D01*
X194792540Y-90297000D01*
X194767764Y-90299440D01*
X194743939Y-90306667D01*
X194721983Y-90318403D01*
X194702737Y-90334197D01*
X194686943Y-90353443D01*
X194675207Y-90375399D01*
X194667980Y-90399224D01*
X194665540Y-90424000D01*
X194665540Y-95631000D01*
X191363540Y-95631000D01*
X191363540Y-90499501D01*
X191367597Y-90494557D01*
X191379333Y-90472601D01*
X191386560Y-90448776D01*
X191389000Y-90424000D01*
X191389000Y-88422000D01*
X195673928Y-88422000D01*
X195686188Y-88546482D01*
X195722498Y-88666180D01*
X195781463Y-88776494D01*
X195860815Y-88873185D01*
X195957506Y-88952537D01*
X196067820Y-89011502D01*
X196187518Y-89047812D01*
X196312000Y-89060072D01*
X197326250Y-89057000D01*
X197485000Y-88898250D01*
X197485000Y-87249000D01*
X195835750Y-87249000D01*
X195677000Y-87407750D01*
X195673928Y-88422000D01*
X191389000Y-88422000D01*
X191389000Y-85217000D01*
X196118910Y-85217000D01*
X196067820Y-85232498D01*
G37*
%TD.AperFunction*%
%TD*%
D41*
%TO.N,V_MOT*%
X186055000Y-94234000D02*
X186057440Y-94258776D01*
X186064667Y-94282601D01*
X186076403Y-94304557D01*
X186092197Y-94323803D01*
X186111443Y-94339597D01*
X186133399Y-94351333D01*
X186157224Y-94358560D01*
X186182000Y-94361000D01*
X189357000Y-94361000D01*
X189357000Y-95631000D01*
X179705000Y-95631000D01*
X179705000Y-70231000D01*
X186055000Y-70231000D01*
X186055000Y-94234000D01*
%TA.AperFunction,Conductor*%
D42*
G36*
X186055000Y-94234000D02*
G01*
X186057440Y-94258776D01*
X186064667Y-94282601D01*
X186076403Y-94304557D01*
X186092197Y-94323803D01*
X186111443Y-94339597D01*
X186133399Y-94351333D01*
X186157224Y-94358560D01*
X186182000Y-94361000D01*
X189357000Y-94361000D01*
X189357000Y-95631000D01*
X179705000Y-95631000D01*
X179705000Y-70231000D01*
X186055000Y-70231000D01*
X186055000Y-94234000D01*
G37*
%TD.AperFunction*%
%TD*%
D41*
%TO.N,V_MOT*%
X183395523Y-66217774D02*
X183527553Y-66288346D01*
X183670814Y-66331803D01*
X183782467Y-66342800D01*
X183782476Y-66342800D01*
X183819799Y-66346476D01*
X183857122Y-66342800D01*
X186309000Y-66342800D01*
X186309000Y-95377000D01*
X177927000Y-95377000D01*
X177927000Y-66292146D01*
X180046164Y-66260982D01*
X180074163Y-66320220D01*
X180241681Y-66546214D01*
X180450069Y-66735185D01*
X180691319Y-66879870D01*
X180956160Y-66974709D01*
X181178200Y-66853424D01*
X181178200Y-66244334D01*
X181432200Y-66240599D01*
X181432200Y-66853424D01*
X181654240Y-66974709D01*
X181919081Y-66879870D01*
X182160331Y-66735185D01*
X182368719Y-66546214D01*
X182536237Y-66320220D01*
X182581860Y-66223692D01*
X183388284Y-66211833D01*
X183395523Y-66217774D01*
%TA.AperFunction,Conductor*%
D42*
G36*
X183395523Y-66217774D02*
G01*
X183527553Y-66288346D01*
X183670814Y-66331803D01*
X183782467Y-66342800D01*
X183782476Y-66342800D01*
X183819799Y-66346476D01*
X183857122Y-66342800D01*
X186309000Y-66342800D01*
X186309000Y-95377000D01*
X177927000Y-95377000D01*
X177927000Y-66292146D01*
X180046164Y-66260982D01*
X180074163Y-66320220D01*
X180241681Y-66546214D01*
X180450069Y-66735185D01*
X180691319Y-66879870D01*
X180956160Y-66974709D01*
X181178200Y-66853424D01*
X181178200Y-66244334D01*
X181432200Y-66240599D01*
X181432200Y-66853424D01*
X181654240Y-66974709D01*
X181919081Y-66879870D01*
X182160331Y-66735185D01*
X182368719Y-66546214D01*
X182536237Y-66320220D01*
X182581860Y-66223692D01*
X183388284Y-66211833D01*
X183395523Y-66217774D01*
G37*
%TD.AperFunction*%
%TD*%
D41*
%TO.N,V_MOT*%
X191389000Y-93345000D02*
X185547000Y-93345000D01*
X185547000Y-90043000D01*
X191389000Y-90043000D01*
X191389000Y-93345000D01*
%TA.AperFunction,Conductor*%
D42*
G36*
X191389000Y-93345000D02*
G01*
X185547000Y-93345000D01*
X185547000Y-90043000D01*
X191389000Y-90043000D01*
X191389000Y-93345000D01*
G37*
%TD.AperFunction*%
%TD*%
D41*
%TO.N,5V*%
X139307402Y-97409281D02*
X139310255Y-97409000D01*
X141224000Y-97409000D01*
X141224000Y-108077000D01*
X135900403Y-108077000D01*
X135872256Y-108058193D01*
X135683898Y-107980172D01*
X135483939Y-107940398D01*
X135280061Y-107940398D01*
X135080102Y-107980172D01*
X134891744Y-108058193D01*
X134863597Y-108077000D01*
X133350000Y-108077000D01*
X133350000Y-97409000D01*
X139304549Y-97409000D01*
X139307402Y-97409281D01*
%TA.AperFunction,Conductor*%
D42*
G36*
X139307402Y-97409281D02*
G01*
X139310255Y-97409000D01*
X141224000Y-97409000D01*
X141224000Y-108077000D01*
X135900403Y-108077000D01*
X135872256Y-108058193D01*
X135683898Y-107980172D01*
X135483939Y-107940398D01*
X135280061Y-107940398D01*
X135080102Y-107980172D01*
X134891744Y-108058193D01*
X134863597Y-108077000D01*
X133350000Y-108077000D01*
X133350000Y-97409000D01*
X139304549Y-97409000D01*
X139307402Y-97409281D01*
G37*
%TD.AperFunction*%
%TD*%
M02*
