<svg xmlns="http://www.w3.org/2000/svg" viewBox="0 0 612 612"><defs><style>.cls-1{fill:#fff;}</style></defs><title>viking robotics white</title><g id="Layer_2" data-name="Layer 2"><path class="cls-1" d="M535.19,102.54l-3.86-3.8-32.86-32.5L463.69,93.86q-8.76-6.51-18.16-12.32-4.18-2.62-8.51-5.07l11.39-43L389.56,10.12l-21.23,39h0c-3.21-.79-6.45-1.53-9.66-2.17-5.75-1.19-11.47-2.15-17.22-2.91L335.86,0,272.53.37l-5,44.16C260.24,45.6,253.08,47,246,48.62c-3.25.76-6.43,1.58-9.64,2.48L214,12.63,155.87,37.71l12.6,42.65c-2.85,1.72-5.64,3.49-8.4,5.32-4.82,3.19-9.59,6.54-14.18,10.1L110.74,68.52,79.88,99.78l-4.09,4.14c14.63,34.84,43.83,61.87,79.54,75.26a194.45,194.45,0,0,1,38.33-35l1.1-1.1,1.41-.59,0,0a197.24,197.24,0,0,1,66.18-28.55h.06l6.34-1.33a194.69,194.69,0,0,1,72.13-.45l3.18.62.09,0A194.62,194.62,0,0,1,378.76,123a197.25,197.25,0,0,1,32.33,16.4l.09.06,5.21,3.41a193.4,193.4,0,0,1,40,36c35.68-13.64,64.74-40.93,79.14-76Zm-346,29.71-30.5-24.81,9.69-5.6,11.59,9.89c2.42,2.11,4.79,4.17,7.07,6.23l.12-.06c-.62-3.1-1.24-6.37-1.75-9.41l-2.59-15,9.3-5.35L198.26,127Zm41.09-19.68-11.7-34.81,9.9-3.32,11.72,34.81Zm55-12.54L271.8,83.6l-.12.08L274,101.5l-10.34,1.32-4.73-36.41,10.34-1.36,2.06,15.82.11,0,8.46-17.22,12.17-1.58-9.83,18.47L297.81,98.4Zm43.58-.34-10.43-.64,2.31-36.65,10.43.65Zm58.15,12-9.45-2.59L371.6,93.72c-1.24-3.16-2.28-6-3.35-9h-.11c-.77,3-1.55,6.06-2.37,9l-3.1,11.36-9.7-2.65L362.67,67l9.44,2.56L378,85c1.24,3.19,2.28,6.06,3.35,9.08l.12,0c.76-3,1.55-6,2.37-9l3.1-11.36,9.69,2.65Zm60.76,3a22.23,22.23,0,0,0-7.8-8.32c-5.7-3.21-11.31-1.43-14,3.36s-1.47,10.54,4.14,13.7a8.73,8.73,0,0,0,2.06.9l1.92-3.41-4.37-2.48,3.78-6.65,13.16,7.44-8.88,15.67a29.86,29.86,0,0,1-12-3.78c-10.85-6.14-14.12-17.22-8.85-26.52,5.36-9.5,17-12.38,27.32-6.51a25.81,25.81,0,0,1,8.57,7.83Z"/><path class="cls-1" d="M272.84,175.71a146.12,146.12,0,0,0,15-8.68v73.71A147.3,147.3,0,0,1,206.46,265c-1.27,0-2.56,0-3.86-.06-3.21-.08-6.43-.25-9.58-.56-4.4-.37-8.74-1-13-1.72A147.92,147.92,0,0,1,158,256.89a16.3,16.3,0,0,1,.34-2.85,141.58,141.58,0,0,1-36.1-18.72,136.65,136.65,0,0,1-16.61-13.95,134.2,134.2,0,0,1-31.11-46.93,129.81,129.81,0,0,1-8.85-47.21,126.91,126.91,0,0,1,.7-13.53l-.08-.11.11-.11a126.09,126.09,0,0,1,2-12.94c1,2.62,2,5.19,3.16,7.69,15.24,34.67,44.42,61.67,80,75.51a147.15,147.15,0,0,0,33.87,8.83l1.19-2.63a152.57,152.57,0,0,0,19.84,1.3h.2c3.52,0,7-.11,10.48-.39,1.58-.09,3.13-.23,4.71-.4,1.13-.11,2.23-.22,3.33-.36a149.4,149.4,0,0,0,20.49-4,146.2,146.2,0,0,0,22-7.93c.87-.39,1.75-.78,2.62-1.24S272,176.11,272.84,175.71Z"/><path class="cls-1" d="M307.51,151.41a134.73,134.73,0,0,0,11.05-11.75v73.71a141.22,141.22,0,0,1-11.19,11.92l-1.95,1.78c-.76.7-1.52,1.38-2.28,2-3.1,2.71-6.34,5.3-9.67,7.73V163.11c3.41-2.48,6.71-5.13,9.87-7.89.7-.62,1.41-1.24,2.08-1.89S306.83,152.06,307.51,151.41Z"/><path class="cls-1" d="M348.29,149.39a132.18,132.18,0,0,1-6.73,24.86c-.34.9-.68,1.77-1.05,2.64s-.7,1.75-1.07,2.6a136.09,136.09,0,0,1-15.25,26.69V139.29A88.82,88.82,0,0,1,348.29,149.39Z"/><path class="cls-1" d="M271.8,173c-.85.46-1.67.85-2.51,1.25s-1.75.84-2.62,1.24a144.27,144.27,0,0,1-41.49,11.75c-1.22.17-2.43.31-3.64.42-1.52.17-3,.28-4.59.4-2.71.19-5.53.31-8.43.33-.68,0-1.35,0-2.06,0a145.61,145.61,0,0,1-18.63-1.18l-1.21,2.7-1.19,2.63A142.37,142.37,0,0,0,204.88,194c.54,0,1.05,0,1.58,0,3.75,0,7.41-.14,10.85-.39,1.64-.09,3.24-.23,4.82-.4.88-.08,1.75-.2,2.62-.28a150.94,150.94,0,0,0,21.68-4.23,147.8,147.8,0,0,0,22.32-8.06c.9-.4,1.78-.79,2.65-1.24s1.66-.79,2.48-1.21a146,146,0,0,0,13.95-7.92v-6.77A140,140,0,0,1,271.8,173Zm-65.34,89.13c-1.27,0-2.51,0-3.78-.06-2.84-.08-5.66-.22-8.45-.48a133.69,133.69,0,0,1-13.9-1.8,143.91,143.91,0,0,1-22-5.75,16.3,16.3,0,0,0-.34,2.85c0,.22,0,.42,0,.64a17.28,17.28,0,0,0,.16,2.4,145.08,145.08,0,0,0,21.74,5.5q5.83,1.05,11.81,1.6c3.6.37,7.24.59,10.9.68,1.3,0,2.62.06,3.92.06a150.79,150.79,0,0,0,81.37-23.45v-6.74A145,145,0,0,1,206.46,262.13ZM349.73,147a92.67,92.67,0,0,0-25.54-10.6v5.84a85.84,85.84,0,0,1,21,8.62A131.24,131.24,0,0,1,339.05,173c-.34.91-.68,1.81-1.05,2.71s-.67,1.72-1,2.57a128.56,128.56,0,0,1-12.77,23.33v9.59a139.09,139.09,0,0,0,17.9-30.47c.34-.85.71-1.72,1-2.6s.71-1.77,1.05-2.64a137.83,137.83,0,0,0,6.9-25.63l.31-1.91Zm-44.31,2.51c-.67.68-1.38,1.32-2.08,1.94s-1.41,1.27-2.12,1.86c-2.51,2.18-5.1,4.29-7.75,6.29v7a136.86,136.86,0,0,0,11.95-9.41c.71-.59,1.41-1.21,2.09-1.89s1.44-1.27,2.11-1.95c3.13-3,6.12-6.06,8.94-9.27v-8.76l-1,1.26A131.72,131.72,0,0,1,305.42,149.47Zm0,74c-.65.6-1.29,1.22-1.94,1.78s-1.5,1.38-2.26,2c-2.51,2.17-5.07,4.26-7.75,6.26v7a141.86,141.86,0,0,0,11.95-9.39c.76-.67,1.52-1.35,2.29-2.06.64-.56,1.29-1.15,1.91-1.77q4.69-4.44,8.94-9.3v-8.8A135.69,135.69,0,0,1,305.42,223.51ZM66.24,113.59l.08.11a.64.64,0,0,1,0-.22Z"/><path class="cls-1" d="M262.55,149.39A88.77,88.77,0,0,1,287.83,139v68.75a135.77,135.77,0,0,1-16.43-28.3c-.36-.85-.73-1.69-1.07-2.57s-.7-1.74-1-2.64A132.21,132.21,0,0,1,262.55,149.39Z"/><path class="cls-1" d="M307.51,155.22A138,138,0,0,0,318.56,164v73.67a134.81,134.81,0,0,1-10.85-8.57c-.77-.64-1.53-1.32-2.29-2l-1.94-1.78a134.46,134.46,0,0,1-10-10.54V141a128.49,128.49,0,0,0,9.87,10.37c.67.65,1.38,1.3,2.08,1.92S306.8,154.6,307.51,155.22Z"/><path class="cls-1" d="M545.23,127.23a129,129,0,0,1-6,39,133.17,133.17,0,0,1-34,55.16,139.54,139.54,0,0,1-15.64,13.28,142.58,142.58,0,0,1-38.14,19.76,12.43,12.43,0,0,1,.51,2.79,145.21,145.21,0,0,1-20.1,5.21,136.84,136.84,0,0,1-15.44,2c-2.71.23-5.44.39-8.21.45-1.29,0-2.59.06-3.86.06a147.21,147.21,0,0,1-80.19-23.45V167.79A145.62,145.62,0,0,0,338,175.71c.82.4,1.67.82,2.51,1.18s1.75.85,2.62,1.24a146.32,146.32,0,0,0,22.05,7.93A149.57,149.57,0,0,0,384.77,190c1.4.17,2.81.34,4.22.48,1.58.17,3.13.31,4.71.4,3.52.28,7.1.39,10.68.39h.93a149.39,149.39,0,0,0,17.56-1.13l1.19,2.65a150.79,150.79,0,0,0,36.13-9.35c35.57-14.13,64.63-41.38,79.63-76.3q1.42-3.23,2.65-6.57A130.5,130.5,0,0,1,545.23,127.23Z"/><path class="cls-1" d="M309.62,153.27c-.7-.59-1.41-1.21-2.11-1.86s-1.41-1.26-2.09-1.94a131.22,131.22,0,0,1-11.95-12.77v8.63c2.45,2.73,5,5.41,7.75,7.94.68.68,1.41,1.36,2.12,1.95s1.38,1.3,2.08,1.89a140.76,140.76,0,0,0,13.14,10.26v-6.94C315.48,158.15,312.5,155.78,309.62,153.27Zm113.25,36.84-1.21-2.7a147.51,147.51,0,0,1-17.28,1c-.34,0-.67,0-1,0h0c-3.27,0-6.43-.11-9.5-.33-1.52-.12-3-.23-4.59-.4s-2.82-.31-4.23-.51a138,138,0,0,1-19.14-3.83,143.11,143.11,0,0,1-21.73-7.83c-.88-.4-1.75-.82-2.62-1.24s-1.67-.79-2.51-1.25a140.74,140.74,0,0,1-14.86-8.62v6.74c4.12,2.56,8.4,5,12.77,7.16.82.42,1.64.81,2.48,1.21s1.75.84,2.65,1.24a147.8,147.8,0,0,0,22.33,8A153.06,153.06,0,0,0,385,192.85q1.86.26,3.72.42c1.58.17,3.19.31,4.76.4,3.5.25,7.16.39,10.91.39.9,0,1.81,0,2.68-.06a134.55,134.55,0,0,0,17-1.24ZM309.62,227.32c-.76-.65-1.49-1.33-2.25-2s-1.3-1.18-1.95-1.78a135,135,0,0,1-11.95-12.79v8.65q3.72,4.14,7.75,7.95c.62.62,1.27,1.21,1.92,1.77.76.71,1.52,1.39,2.28,2.06a143.7,143.7,0,0,0,13.14,10.21v-6.91C315.48,232.2,312.5,229.8,309.62,227.32ZM452,257.2a12.43,12.43,0,0,0-.51-2.79,145.31,145.31,0,0,1-19.87,5.18,143.52,143.52,0,0,1-16.38,2.12h0c-2.34.19-4.68.31-7,.36-1.27,0-2.51.06-3.78.06a145.4,145.4,0,0,1-80.19-23.76v6.71a151.12,151.12,0,0,0,80.19,22.69c1.3,0,2.62,0,3.92-.06,3.16-.09,6.29-.25,9.41-.54a143.74,143.74,0,0,0,14.41-1.91,149.26,149.26,0,0,0,19.93-5.1c0-.43.05-.82.05-1.24A12.32,12.32,0,0,0,452,257.2ZM261.11,147l-1.66,1,.31,1.91a137.08,137.08,0,0,0,6.91,25.63c.33.87.67,1.77,1,2.64s.68,1.72,1,2.57a137.8,137.8,0,0,0,19.08,32V203.3a131.12,131.12,0,0,1-13.95-25.05c-.36-.85-.7-1.69-1-2.54s-.71-1.8-1-2.71a131.26,131.26,0,0,1-6.12-22.18,85.31,85.31,0,0,1,22.15-8.9v-5.81A91.63,91.63,0,0,0,261.11,147Z"/><path class="cls-1" d="M200,293.75c-3.49-.9-6.68-1.8-9.36-2.7a14.07,14.07,0,0,1,4.09,4.08l1.89,2.91a65.09,65.09,0,0,0-9.64,19.5c-.11.4-.23.79-.34,1.19A71.49,71.49,0,0,0,184.22,331l-5.32-8.23c-4.82,5.94-6.35,17.75-3.27,30.32,2.81,11.45,8.71,20.55,15,24.41a12.48,12.48,0,0,0,6.17,2A55.39,55.39,0,0,0,212,393.7c1.21,2,2.45,4,3.72,6a45.16,45.16,0,0,1-9.56,1A43.81,43.81,0,0,1,192,398.41c-22-7.3-38.14-31.32-38.14-59.84,0-23.34,10.86-43.69,26.87-54.29a46.38,46.38,0,0,1,19.5-7.41.11.11,0,0,1,.09,0,50.45,50.45,0,0,1,5.8-.36c.59,0,1.16,0,1.75,0A46.18,46.18,0,0,1,221.15,279c-1.36.48-2.68,1-4,1.66A51.81,51.81,0,0,0,200,293.75Z"/><path class="cls-1" d="M456.36,338.57c0,27.73-15.28,51.21-36.36,59.22a45.06,45.06,0,0,1-15.93,2.93,44.42,44.42,0,0,1-8-.73c1.72-2.68,3.41-5.39,5-8.18a55.11,55.11,0,0,0,12.43-12.43,11.31,11.31,0,0,0,7.78-1.89c6.35-3.86,12.24-13,15-24.41,3.29-13.55,1.27-26.21-4.46-31.62L426,330.54a71.39,71.39,0,0,0-1.41-8.23c-.25-1.16-.53-2.32-.87-3.44a65,65,0,0,0-10.18-21.11l1.7-2.63a13.88,13.88,0,0,1,2.62-3c-2.2.64-4.63,1.29-7.22,1.94a52.23,52.23,0,0,0-16.6-13,46.5,46.5,0,0,0-4.9-2.09A44.83,44.83,0,0,1,404,276.48h.05a44.52,44.52,0,0,1,9.56,1A47.45,47.45,0,0,1,431,285.35C446.21,296.21,456.36,316,456.36,338.57Z"/><path class="cls-1" d="M205.06,335.94c-.17.14-.31.25-.48.37a14,14,0,0,1-6.15,2.17c1.1-2.82,2.31-5.58,3.61-8.29a111.42,111.42,0,0,1,7.16-12.71A14.14,14.14,0,0,1,205.06,335.94Z"/><path class="cls-1" d="M287.83,300a17.93,17.93,0,0,0,2.51,9.19l-2.14-.28-2.31-.31a.54.54,0,0,1-.23,0c-.48-.06-1-.14-1.52-.2l-1.89-.25c-.65-.08-1.32-.2-2-.28-.28,0-.56-.06-.84-.11-2.57-.37-5.39-.74-8.4-1.19-.28,0-.56,0-.87-.11L268,306.1c-2.93-.42-6-.88-9.16-1.35-.79-.12-1.6-.23-2.39-.37l-4.91-.76c-2-.31-4-.62-6-1-1-.17-2-.31-3-.51-2-.31-4.09-.67-6.12-1-4.09-.71-8.17-1.41-12.15-2.17a118.31,118.31,0,0,1,9.64-8.66,114.75,114.75,0,0,1,54-23.93l1.58-.25-1.58.9Z"/><path class="cls-1" d="M318.56,300a12.55,12.55,0,1,1-25.09,0V265.62a117.78,117.78,0,0,1,25.09,0Z"/><path class="cls-1" d="M387.78,298.94c-11,2.06-22.63,4-33.2,5.58q-2.93.42-5.67.85a.12.12,0,0,1-.08,0c-1.81.26-3.58.51-5.3.77-.87.14-1.72.25-2.57.36a4.43,4.43,0,0,1-.73.11c-1.44.2-2.79.4-4.11.57a1.4,1.4,0,0,1-.34.05l-4.06.57c-.71.08-1.38.2-2,.28s-1.07.14-1.58.23c-.87.08-1.66.19-2.42.31-.43.05-.82.11-1.21.14s-1,.14-1.44.19l-1.27.17h-.08a17.74,17.74,0,0,0,2.5-9.16V267.09l-1.66-1,1.66.25a114.73,114.73,0,0,1,53.95,23.91A125.25,125.25,0,0,1,387.78,298.94Z"/><path class="cls-1" d="M413.55,338.53a13.67,13.67,0,0,1-7.08-1.57,10,10,0,0,1-1.15-.65,14.24,14.24,0,0,1-4.15-19.59l.54-.82a111.34,111.34,0,0,1,8.2,14.29C411.24,332.93,412.45,335.69,413.55,338.53Z"/><path class="cls-1" d="M421.29,377.49a11.31,11.31,0,0,1-7.78,1.89,7.62,7.62,0,0,1-.81-.14,9.78,9.78,0,0,1-4-2.08c-2.34,5-4.87,9.89-7.64,14.65-1.6,2.79-3.29,5.5-5,8.18-10.71,16.43-23.85,30.86-38.7,41.32a94.81,94.81,0,0,0,1.27-15.62c0-34.44-18-63.19-41.92-69.93-1.91,4.88-6,8.23-10.73,8.23s-8.85-3.35-10.77-8.23c-24,6.71-41.91,35.49-41.91,69.93a94.46,94.46,0,0,0,1.26,15.59c-14.93-10.52-28.15-25-38.86-41.6-1.27-1.95-2.51-3.95-3.72-6-3.19-5.36-6.12-10.91-8.77-16.54a9.74,9.74,0,0,1-4,2.08,8.62,8.62,0,0,1-2.43.25,12.48,12.48,0,0,1-6.17-2c0,.93,0,1.86,0,2.79a115.35,115.35,0,1,0,230.7,0C421.32,379.35,421.32,378.42,421.29,377.49ZM257,442.94c1.94-25.87,23.14-46.25,49-46.25s47,20.4,49,46.28C340,453,323.43,458.89,306,458.89S271.94,453,257,442.94Z"/><path class="cls-1" d="M205.06,335.94c-.17.14-.31.25-.48.37a14.17,14.17,0,0,1-15,.22,13.56,13.56,0,0,1-4.59-4.37l-.79-1.18-5.33-8.23a10.46,10.46,0,0,1,5.64-3.78,8.3,8.3,0,0,1,2.06-.25h.45c5.21.17,10.71,4.54,15,11.47A43.75,43.75,0,0,1,205.06,335.94Z"/><path class="cls-1" d="M431.87,321.45,426,330.53l-1.07,1.63a13.5,13.5,0,0,1-2.23,2.63,14.12,14.12,0,0,1-9.13,3.74,13.67,13.67,0,0,1-7.08-1.57,43.31,43.31,0,0,1,3.44-6.77c3.95-6.4,8.94-10.6,13.78-11.33a10.13,10.13,0,0,1,1.22-.14,9.64,9.64,0,0,1,2.51.25A10,10,0,0,1,431.87,321.45Z"/><path class="cls-1" d="M287.83,300a17.93,17.93,0,0,0,2.51,9.19l-2.14-.28-2.31-.31a.54.54,0,0,1-.23,0c-.48-.06-1-.14-1.52-.2l-1.89-.25c-.65-.08-1.32-.2-2-.28-.28,0-.56-.06-.84-.11-2.57-.37-5.39-.74-8.4-1.19-.28,0-.56,0-.87-.11L268,306.1c-2.93-.42-6-.88-9.16-1.35-.79-.12-1.6-.23-2.39-.37l-4.91-.76c-2-.31-4-.62-6-1-1-.17-2-.31-3-.51-2-.31-4.09-.67-6.12-1-4.09-.71-8.17-1.41-12.15-2.17-8.85-1.67-17.22-3.41-24.21-5.22-3.49-.9-6.68-1.8-9.36-2.7a14.07,14.07,0,0,1,4.09,4.08l1.89,2.91,12.17,18.68c.17.26.31.51.46.77A14.15,14.15,0,0,1,205.05,336a5,5,0,0,1-.48.36,13.81,13.81,0,0,1-6.14,2.17,14,14,0,0,1-8.82-1.94A151.62,151.62,0,0,1,187,318.73c0-.4-.06-.79-.11-1.19-.23-3.21-.34-6.37-.34-9.5,0-2.34.08-4.68.23-7,.16-3.35.5-6.65,1-9.92.06-.34.12-.67.2-1a.9.9,0,0,1,.09-.4,17.07,17.07,0,0,1,12.2-12.85.11.11,0,0,1,.09,0,16.69,16.69,0,0,1,7.55-.34,17.57,17.57,0,0,1,5.5,2l3.74,2.17,16.66,9.61,6.85,3.95L287.83,267Z"/><path class="cls-1" d="M289.41,266.13l1.24-.7V266C290.23,266,289.84,266.07,289.41,266.13Z"/><path class="cls-1" d="M317.4,263.17l1.16.68V300a12.55,12.55,0,1,1-25.09,0V263.79l1.07-.62L306,256.58Z"/><path class="cls-1" d="M322.53,266.13c-.39-.06-.76-.11-1.15-.14v-.54Z"/><path class="cls-1" d="M425.35,308c0,3.53-.14,7.08-.45,10.69-.08,1.18-.2,2.36-.34,3.58-.45,4.11-1.07,8.28-1.88,12.48a14.08,14.08,0,0,1-9.14,3.75,13.66,13.66,0,0,1-7.07-1.58,8.81,8.81,0,0,1-1.16-.65,14.23,14.23,0,0,1-4.14-19.59l.53-.81,11.81-18.15,1.7-2.63a13.88,13.88,0,0,1,2.62-3c-2.2.64-4.63,1.29-7.22,1.94-6.71,1.66-14.57,3.3-22.83,4.85-11,2.06-22.63,4-33.2,5.58q-2.93.42-5.67.85a.12.12,0,0,1-.08,0c-1.81.26-3.58.51-5.3.77-.87.14-1.72.25-2.57.36a4.43,4.43,0,0,1-.73.11c-1.44.2-2.79.4-4.11.57a1.4,1.4,0,0,1-.34.05l-4.06.57c-.71.08-1.38.2-2,.28s-1.07.14-1.58.23c-.87.08-1.66.19-2.42.31-.43.05-.82.11-1.21.14s-1,.14-1.44.19l-1.27.17h-.08a17.74,17.74,0,0,0,2.5-9.16V267.09l47.07,27.17,6.88-4L394,281.13l4.54-2.63a17.06,17.06,0,0,1,5.47-2h.05a17.2,17.2,0,0,1,19.65,12.65,3.92,3.92,0,0,1,.22,1c.09.34.14.65.2,1,.45,3.22.79,6.46,1,9.73C425.27,303.22,425.35,305.62,425.35,308Z"/><path class="cls-1" d="M287.83,266.38l1.58-.25-1.58.9v33a17.93,17.93,0,0,0,2.51,9.19l-2.14-.28-2.31-.31a.54.54,0,0,1-.23,0c-.48-.06-1-.14-1.52-.2l-1.89-.25c-.65-.08-1.32-.2-2-.28-.28,0-.56-.06-.84-.11-2.57-.37-5.39-.74-8.4-1.19-.28,0-.56,0-.87-.11L268,306.1c-2.93-.42-6-.88-9.16-1.35-.79-.12-1.6-.23-2.39-.37l-4.91-.76c-2-.31-4-.62-6-1-1-.17-2-.31-3-.51-2-.31-4.09-.67-6.12-1-4.09-.71-8.17-1.41-12.15-2.17-8.85-1.67-17.22-3.41-24.21-5.22-3.49-.9-6.68-1.8-9.36-2.7-.93-.31-1.8-.62-2.62-.93-1-.4-2-.79-2.79-1.19a13.84,13.84,0,0,1-3.21-2,2.89,2.89,0,0,1-1-1.55c-.06-.39-.12-.76-.17-1.13,0-.08,0-.14,0-.22-.4-2.34-.65-4.68-.82-7.08-.06-.53-.08-1.07-.11-1.6-.09-1.55-.14-3.1-.14-4.65,0-1.75.05-3.5.17-5.3,0-.93.11-1.86.19-2.82,0-.34.09-.71.12-1.05.05-.59.11-1.18.19-1.77,2.31-20.83,11.08-44.34,24.55-65.76.06-.11.12-.22.2-.34.51-.81,1-1.63,1.58-2.45,0,0,0,0,0-.06.59-.93,1.21-1.86,1.83-2.79,2.06-3,4.23-6.06,6.51-9,1.18-1.55,2.42-3.1,3.66-4.62,18.58-22.6,42.56-40.45,69.26-46.14a14.28,14.28,0,0,0-.12,2Z"/><path class="cls-1" d="M289.41,266.13l1.24-.7V266C290.23,266,289.84,266.07,289.41,266.13Z"/><path class="cls-1" d="M321.38,265.45l1.15.68c-.39-.06-.76-.11-1.15-.14Z"/><path class="cls-1" d="M318.16,127.6a11.51,11.51,0,0,1,.4,3V300a12.55,12.55,0,1,1-25.09,0V130.61a11.73,11.73,0,0,1,.4-3A86.88,86.88,0,0,1,306,126.7,84,84,0,0,1,318.16,127.6Z"/><path class="cls-1" d="M432.29,270.73c0,2-.09,4-.23,6.06a.74.74,0,0,1,0,.25c-.17,2.28-.39,4.54-.76,6.74-.08.53-.14,1-.25,1.57v0c-.2,1.1-1.55,2.2-3.83,3.33a30.05,30.05,0,0,1-3.25,1.41c-1.77.67-3.83,1.35-6.11,2s-4.63,1.29-7.22,1.94c-6.71,1.66-14.57,3.3-22.83,4.85-11,2.06-22.63,4-33.2,5.58q-2.93.42-5.67.85a.12.12,0,0,1-.08,0c-1.81.26-3.58.51-5.3.77-.87.14-1.72.25-2.57.36a4.43,4.43,0,0,1-.73.11c-1.44.2-2.79.4-4.11.57a1.4,1.4,0,0,1-.34.05c-1.41.23-2.79.4-4.06.57-.71.08-1.38.2-2,.28s-1.07.14-1.58.23c-.87.08-1.66.19-2.42.31-.43.05-.82.11-1.21.14s-1,.14-1.44.19l-1.27.17h-.08a17.74,17.74,0,0,0,2.5-9.16V267.09l-1.66-1,1.66.25V130.61a14.28,14.28,0,0,0-.11-2,103.27,103.27,0,0,1,32.81,13.61,149.84,149.84,0,0,1,36.36,32.53c1.27,1.55,2.51,3.13,3.72,4.71q3.34,4.35,6.4,8.9h0c.62.91,1.24,1.84,1.86,2.77,0,0,0,.05.05.08.59.9,1.19,1.83,1.75,2.76,13.42,21.37,22.18,44.79,24.55,65.59.08.57.14,1.13.2,1.69v0c0,.37.05.73.08,1.1.11,1,.17,1.92.23,2.85C432.23,267.09,432.29,268.92,432.29,270.73Z"/><path class="cls-1" d="M225.26,188.82a11,11,0,0,1-.08,1.27,14.62,14.62,0,0,1-.43,2.9,17.2,17.2,0,0,1-1.1,3.24l-29.42,65.36L193,264.33l-.34.73c-.31.68-.68,1.35-1,2a18.26,18.26,0,0,1-11.84,8.35,18.16,18.16,0,0,1-21.71-15.45,17.28,17.28,0,0,1-.16-2.4c0-.22,0-.42,0-.64a16.3,16.3,0,0,1,.34-2.85,18.58,18.58,0,0,1,1.24-3.92l25.9-57.55,1.19-2.63,1.21-2.7,2.68-6a18.23,18.23,0,0,1,24-9.1,18.68,18.68,0,0,1,4.14,2.59,18.24,18.24,0,0,1,6.49,12.46C225.23,187.75,225.26,188.28,225.26,188.82Z"/><path class="cls-1" d="M452.1,258.92c0,.42,0,.81-.05,1.24a18.22,18.22,0,0,1-10.66,15.39A17.82,17.82,0,0,1,432,277a18.16,18.16,0,0,1-14.32-9.87c-.14-.25-.25-.48-.36-.73l-.9-2-1.22-2.73h0l-28.84-64.1a17.68,17.68,0,0,1-1.38-4.76,14,14,0,0,1-.22-2.65V190a15.58,15.58,0,0,1,.28-2.82,18.16,18.16,0,0,1,8.2-12.37,19,19,0,0,1,2.23-1.21,18.23,18.23,0,0,1,24,9.1l2.14,4.74,1.21,2.7,1.19,2.65,26.43,58.74a15.14,15.14,0,0,1,1,2.91,19.51,19.51,0,0,1,.62,4.51Z"/><path class="cls-1" d="M205.06,335.94c-.17.14-.31.25-.48.37a14.17,14.17,0,0,1-15,.22,13.56,13.56,0,0,1-4.59-4.37l-.79-1.18-5.33-8.23L171,310.55A14.18,14.18,0,0,1,175.12,291a13.92,13.92,0,0,1,7.67-2.28,11.29,11.29,0,0,1,2.4.23,12.61,12.61,0,0,1,2.87.79A12.78,12.78,0,0,1,190.6,291a14,14,0,0,1,4.08,4.09l1.89,2.9,12.18,18.69c.17.25.31.51.45.76A14.14,14.14,0,0,1,205.06,335.94Z"/><path class="cls-1" d="M438.94,310.55l-7.07,10.9L426,330.53l-1.07,1.63a13.5,13.5,0,0,1-2.23,2.63,14.12,14.12,0,0,1-9.13,3.74,13.67,13.67,0,0,1-7.08-1.57,10,10,0,0,1-1.15-.65,14.24,14.24,0,0,1-4.15-19.59l.54-.82,11.81-18.15,1.69-2.62a14.13,14.13,0,0,1,8.51-6,13.91,13.91,0,0,1,3.41-.42h.06A13.8,13.8,0,0,1,434.8,291,14.2,14.2,0,0,1,438.94,310.55Z"/><path class="cls-1" d="M358.64,425.68a93.74,93.74,0,0,1-1.27,15.62,88.42,88.42,0,0,1-2.53,11.16,54,54,0,0,0,.28-5.58c0-1.32-.06-2.62-.17-3.92-1.95-25.87-23.14-46.28-49-46.28s-47,20.38-49,46.25c-.11,1.3-.17,2.63-.17,3.95a51.34,51.34,0,0,0,.29,5.58,88.9,88.9,0,0,1-2.54-11.19,93.37,93.37,0,0,1-1.27-15.59c0-34.44,18-63.22,41.91-69.92,1.92,4.87,6,8.23,10.77,8.23s8.82-3.36,10.74-8.23C340.66,362.49,358.64,391.24,358.64,425.68Z"/><path class="cls-1" d="M318.56,130.61V300a12.55,12.55,0,1,1-25.09,0V130.61a11.73,11.73,0,0,1,.4-3,12.51,12.51,0,0,1,24.29,0A11.51,11.51,0,0,1,318.56,130.61Z"/><path class="cls-1" d="M321.38,265.45V266c.39,0,.76.08,1.15.14Zm1.15.68,1.66,1v-.71Zm-33.12,0c.43-.06.82-.11,1.24-.14v-.56Zm-1.58.25V267l1.58-.9Z"/><path class="cls-1" d="M532.6,168.19l-1,.28q-2.53-4.28-5.3-8.37c-3.18-4.85-6.56-9.59-10.09-14.21l21.2-27.37,6-7.78-3.66-3.63c-15,34.92-44.06,62.17-79.63,76.3,2.68,3.35,5.22,6.76,7.64,10.26l1.1,1.09.62,1.44a198.4,198.4,0,0,1,20.07,38.45,139.54,139.54,0,0,0,15.64-13.28,133.17,133.17,0,0,0,34-55.16l-6.62,2ZM136.48,453.48l-3.41-3.55-.17.17L127.74,455l3.27,3.41a17.49,17.49,0,0,0,2.39,1.81,3.17,3.17,0,0,0,1.55.56,3.26,3.26,0,0,0,.54,0,3.36,3.36,0,0,0,2-1,3.31,3.31,0,0,0,1.18-2.67C138.62,456.19,137.89,455,136.48,453.48Zm48,42a7.68,7.68,0,0,0-6.7-6.09c-.31,0-.62-.06-1-.06a3.08,3.08,0,0,0-.73.06c-.34.06-.65.14-1,.23-2,.64-4,2.5-6,5.63s-2.79,5.72-2.48,7.78a7,7,0,0,0,3.44,5,7.46,7.46,0,0,0,3.89,1.27,5.93,5.93,0,0,0,2.09-.28c2-.65,4-2.68,6.17-6.12C184.08,500.07,184.84,497.59,184.5,495.51Zm0,0a7.68,7.68,0,0,0-6.7-6.09c-.31,0-.62-.06-1-.06a3.08,3.08,0,0,0-.73.06c-.34.06-.65.14-1,.23-2,.64-4,2.5-6,5.63s-2.79,5.72-2.48,7.78a7,7,0,0,0,3.44,5,7.46,7.46,0,0,0,3.89,1.27,5.93,5.93,0,0,0,2.09-.28c2-.65,4-2.68,6.17-6.12C184.08,500.07,184.84,497.59,184.5,495.51Zm-48-42-3.41-3.55-.17.17L127.74,455l3.27,3.41a17.49,17.49,0,0,0,2.39,1.81,3.17,3.17,0,0,0,1.55.56,3.26,3.26,0,0,0,.54,0,3.36,3.36,0,0,0,2-1,3.31,3.31,0,0,0,1.18-2.67C138.62,456.19,137.89,455,136.48,453.48Zm0,0-3.41-3.55-.17.17L127.74,455l3.27,3.41a17.49,17.49,0,0,0,2.39,1.81,3.17,3.17,0,0,0,1.55.56,3.26,3.26,0,0,0,.54,0,3.36,3.36,0,0,0,2-1,3.31,3.31,0,0,0,1.18-2.67C138.62,456.19,137.89,455,136.48,453.48Zm48,42a7.68,7.68,0,0,0-6.7-6.09c-.31,0-.62-.06-1-.06a3.08,3.08,0,0,0-.73.06c-.34.06-.65.14-1,.23-2,.64-4,2.5-6,5.63s-2.79,5.72-2.48,7.78a7,7,0,0,0,3.44,5,7.46,7.46,0,0,0,3.89,1.27,5.93,5.93,0,0,0,2.09-.28c2-.65,4-2.68,6.17-6.12C184.08,500.07,184.84,497.59,184.5,495.51Zm50.88,35.23c-.54-.87-1.75-1.61-3.64-2.2l-5.41-1.72,0,.09-2.22,6.9,5.47,1.75a9.41,9.41,0,0,0,2.76.51c.17,0,.34,0,.48,0a3.14,3.14,0,0,0,1-.23,3.46,3.46,0,0,0,2-2.25A3.11,3.11,0,0,0,235.38,530.74Zm3-13.64a5.61,5.61,0,0,0-3.16-1.92l-4.71-1.52,0,.11-2.08,6.46,4.65,1.49a9.72,9.72,0,0,0,2.34.48,3.21,3.21,0,0,0,1.44-.23,3.38,3.38,0,0,0,1.77-2.19A3.26,3.26,0,0,0,238.4,517.1Zm60,11.95a7,7,0,0,0-5.44-2.71,6.08,6.08,0,0,0-.74,0h-.11a6.68,6.68,0,0,0-4.74,2.09c-1.46,1.52-2.31,4.14-2.53,7.83s.34,6.32,1.6,8a6.94,6.94,0,0,0,5.42,2.71c.22,0,.42,0,.62,0a5.06,5.06,0,0,0,.56,0,6.58,6.58,0,0,0,4.54-2c1.41-1.49,2.22-4.28,2.45-8.34C300.21,533.22,299.67,530.68,298.38,529.05Zm0,0a7,7,0,0,0-5.44-2.71,6.08,6.08,0,0,0-.74,0h-.11a6.68,6.68,0,0,0-4.74,2.09c-1.46,1.52-2.31,4.14-2.53,7.83s.34,6.32,1.6,8a6.94,6.94,0,0,0,5.42,2.71c.22,0,.42,0,.62,0a5.06,5.06,0,0,0,.56,0,6.58,6.58,0,0,0,4.54-2c1.41-1.49,2.22-4.28,2.45-8.34C300.21,533.22,299.67,530.68,298.38,529.05Zm-60-11.95a5.61,5.61,0,0,0-3.16-1.92l-4.71-1.52,0,.11-2.08,6.46,4.65,1.49a9.72,9.72,0,0,0,2.34.48,3.21,3.21,0,0,0,1.44-.23,3.38,3.38,0,0,0,1.77-2.19A3.26,3.26,0,0,0,238.4,517.1Zm-3,13.64c-.54-.87-1.75-1.61-3.64-2.2l-5.41-1.72,0,.09-2.22,6.9,5.47,1.75a9.41,9.41,0,0,0,2.76.51c.17,0,.34,0,.48,0a3.14,3.14,0,0,0,1-.23,3.46,3.46,0,0,0,2-2.25A3.11,3.11,0,0,0,235.38,530.74ZM184.5,495.51a7.68,7.68,0,0,0-6.7-6.09c-.31,0-.62-.06-1-.06a3.08,3.08,0,0,0-.73.06c-.34.06-.65.14-1,.23-2,.64-4,2.5-6,5.63s-2.79,5.72-2.48,7.78a7,7,0,0,0,3.44,5,7.46,7.46,0,0,0,3.89,1.27,5.93,5.93,0,0,0,2.09-.28c2-.65,4-2.68,6.17-6.12C184.08,500.07,184.84,497.59,184.5,495.51Zm-48-42-3.41-3.55-.17.17L127.74,455l3.27,3.41a17.49,17.49,0,0,0,2.39,1.81,3.17,3.17,0,0,0,1.55.56,3.26,3.26,0,0,0,.54,0,3.36,3.36,0,0,0,2-1,3.31,3.31,0,0,0,1.18-2.67C138.62,456.19,137.89,455,136.48,453.48Zm0,0-3.41-3.55-.17.17L127.74,455l3.27,3.41a17.49,17.49,0,0,0,2.39,1.81,3.17,3.17,0,0,0,1.55.56,3.26,3.26,0,0,0,.54,0,3.36,3.36,0,0,0,2-1,3.31,3.31,0,0,0,1.18-2.67C138.62,456.19,137.89,455,136.48,453.48Zm48,42a7.68,7.68,0,0,0-6.7-6.09c-.31,0-.62-.06-1-.06a3.08,3.08,0,0,0-.73.06c-.34.06-.65.14-1,.23-2,.64-4,2.5-6,5.63s-2.79,5.72-2.48,7.78a7,7,0,0,0,3.44,5,7.46,7.46,0,0,0,3.89,1.27,5.93,5.93,0,0,0,2.09-.28c2-.65,4-2.68,6.17-6.12C184.08,500.07,184.84,497.59,184.5,495.51Zm50.88,35.23c-.54-.87-1.75-1.61-3.64-2.2l-5.41-1.72,0,.09-2.22,6.9,5.47,1.75a9.41,9.41,0,0,0,2.76.51c.17,0,.34,0,.48,0a3.14,3.14,0,0,0,1-.23,3.46,3.46,0,0,0,2-2.25A3.11,3.11,0,0,0,235.38,530.74Zm3-13.64a5.61,5.61,0,0,0-3.16-1.92l-4.71-1.52,0,.11-2.08,6.46,4.65,1.49a9.72,9.72,0,0,0,2.34.48,3.21,3.21,0,0,0,1.44-.23,3.38,3.38,0,0,0,1.77-2.19A3.26,3.26,0,0,0,238.4,517.1Zm60,11.95a7,7,0,0,0-5.44-2.71,6.08,6.08,0,0,0-.74,0h-.11a6.68,6.68,0,0,0-4.74,2.09c-1.46,1.52-2.31,4.14-2.53,7.83s.34,6.32,1.6,8a6.94,6.94,0,0,0,5.42,2.71c.22,0,.42,0,.62,0a5.06,5.06,0,0,0,.56,0,6.58,6.58,0,0,0,4.54-2c1.41-1.49,2.22-4.28,2.45-8.34C300.21,533.22,299.67,530.68,298.38,529.05Zm0,0a7,7,0,0,0-5.44-2.71,6.08,6.08,0,0,0-.74,0h-.11a6.68,6.68,0,0,0-4.74,2.09c-1.46,1.52-2.31,4.14-2.53,7.83s.34,6.32,1.6,8a6.94,6.94,0,0,0,5.42,2.71c.22,0,.42,0,.62,0a5.06,5.06,0,0,0,.56,0,6.58,6.58,0,0,0,4.54-2c1.41-1.49,2.22-4.28,2.45-8.34C300.21,533.22,299.67,530.68,298.38,529.05Zm-60-11.95a5.61,5.61,0,0,0-3.16-1.92l-4.71-1.52,0,.11-2.08,6.46,4.65,1.49a9.72,9.72,0,0,0,2.34.48,3.21,3.21,0,0,0,1.44-.23,3.38,3.38,0,0,0,1.77-2.19A3.26,3.26,0,0,0,238.4,517.1Zm-3,13.64c-.54-.87-1.75-1.61-3.64-2.2l-5.41-1.72,0,.09-2.22,6.9,5.47,1.75a9.41,9.41,0,0,0,2.76.51c.17,0,.34,0,.48,0a3.14,3.14,0,0,0,1-.23,3.46,3.46,0,0,0,2-2.25A3.11,3.11,0,0,0,235.38,530.74ZM184.5,495.51a7.68,7.68,0,0,0-6.7-6.09c-.31,0-.62-.06-1-.06a3.08,3.08,0,0,0-.73.06c-.34.06-.65.14-1,.23-2,.64-4,2.5-6,5.63s-2.79,5.72-2.48,7.78a7,7,0,0,0,3.44,5,7.46,7.46,0,0,0,3.89,1.27,5.93,5.93,0,0,0,2.09-.28c2-.65,4-2.68,6.17-6.12C184.08,500.07,184.84,497.59,184.5,495.51Zm-48-42-3.41-3.55-.17.17L127.74,455l3.27,3.41a17.49,17.49,0,0,0,2.39,1.81,3.17,3.17,0,0,0,1.55.56,3.26,3.26,0,0,0,.54,0,3.36,3.36,0,0,0,2-1,3.31,3.31,0,0,0,1.18-2.67C138.62,456.19,137.89,455,136.48,453.48Zm0,0-3.41-3.55-.17.17L127.74,455l3.27,3.41a17.49,17.49,0,0,0,2.39,1.81,3.17,3.17,0,0,0,1.55.56,3.26,3.26,0,0,0,.54,0,3.36,3.36,0,0,0,2-1,3.31,3.31,0,0,0,1.18-2.67C138.62,456.19,137.89,455,136.48,453.48Zm48,42a7.68,7.68,0,0,0-6.7-6.09c-.31,0-.62-.06-1-.06a3.08,3.08,0,0,0-.73.06c-.34.06-.65.14-1,.23-2,.64-4,2.5-6,5.63s-2.79,5.72-2.48,7.78a7,7,0,0,0,3.44,5,7.46,7.46,0,0,0,3.89,1.27,5.93,5.93,0,0,0,2.09-.28c2-.65,4-2.68,6.17-6.12C184.08,500.07,184.84,497.59,184.5,495.51Zm50.88,35.23c-.54-.87-1.75-1.61-3.64-2.2l-5.41-1.72,0,.09-2.22,6.9,5.47,1.75a9.41,9.41,0,0,0,2.76.51c.17,0,.34,0,.48,0a3.14,3.14,0,0,0,1-.23,3.46,3.46,0,0,0,2-2.25A3.11,3.11,0,0,0,235.38,530.74Zm3-13.64a5.61,5.61,0,0,0-3.16-1.92l-4.71-1.52,0,.11-2.08,6.46,4.65,1.49a9.72,9.72,0,0,0,2.34.48,3.21,3.21,0,0,0,1.44-.23,3.38,3.38,0,0,0,1.77-2.19A3.26,3.26,0,0,0,238.4,517.1Zm60,11.95a7,7,0,0,0-5.44-2.71,6.08,6.08,0,0,0-.74,0h-.11a6.68,6.68,0,0,0-4.74,2.09c-1.46,1.52-2.31,4.14-2.53,7.83s.34,6.32,1.6,8a6.94,6.94,0,0,0,5.42,2.71c.22,0,.42,0,.62,0a5.06,5.06,0,0,0,.56,0,6.58,6.58,0,0,0,4.54-2c1.41-1.49,2.22-4.28,2.45-8.34C300.21,533.22,299.67,530.68,298.38,529.05Zm0,0a7,7,0,0,0-5.44-2.71,6.08,6.08,0,0,0-.74,0h-.11a6.68,6.68,0,0,0-4.74,2.09c-1.46,1.52-2.31,4.14-2.53,7.83s.34,6.32,1.6,8a6.94,6.94,0,0,0,5.42,2.71c.22,0,.42,0,.62,0a5.06,5.06,0,0,0,.56,0,6.58,6.58,0,0,0,4.54-2c1.41-1.49,2.22-4.28,2.45-8.34C300.21,533.22,299.67,530.68,298.38,529.05Zm-60-11.95a5.61,5.61,0,0,0-3.16-1.92l-4.71-1.52,0,.11-2.08,6.46,4.65,1.49a9.72,9.72,0,0,0,2.34.48,3.21,3.21,0,0,0,1.44-.23,3.38,3.38,0,0,0,1.77-2.19A3.26,3.26,0,0,0,238.4,517.1Zm-3,13.64c-.54-.87-1.75-1.61-3.64-2.2l-5.41-1.72,0,.09-2.22,6.9,5.47,1.75a9.41,9.41,0,0,0,2.76.51c.17,0,.34,0,.48,0a3.14,3.14,0,0,0,1-.23,3.46,3.46,0,0,0,2-2.25A3.11,3.11,0,0,0,235.38,530.74ZM184.5,495.51a7.68,7.68,0,0,0-6.7-6.09c-.31,0-.62-.06-1-.06a3.08,3.08,0,0,0-.73.06c-.34.06-.65.14-1,.23-2,.64-4,2.5-6,5.63s-2.79,5.72-2.48,7.78a7,7,0,0,0,3.44,5,7.46,7.46,0,0,0,3.89,1.27,5.93,5.93,0,0,0,2.09-.28c2-.65,4-2.68,6.17-6.12C184.08,500.07,184.84,497.59,184.5,495.51Zm-48-42-3.41-3.55-.17.17L127.74,455l3.27,3.41a17.49,17.49,0,0,0,2.39,1.81,3.17,3.17,0,0,0,1.55.56,3.26,3.26,0,0,0,.54,0,3.36,3.36,0,0,0,2-1,3.31,3.31,0,0,0,1.18-2.67C138.62,456.19,137.89,455,136.48,453.48Zm0,0-3.41-3.55-.17.17L127.74,455l3.27,3.41a17.49,17.49,0,0,0,2.39,1.81,3.17,3.17,0,0,0,1.55.56,3.26,3.26,0,0,0,.54,0,3.36,3.36,0,0,0,2-1,3.31,3.31,0,0,0,1.18-2.67C138.62,456.19,137.89,455,136.48,453.48Zm48,42a7.68,7.68,0,0,0-6.7-6.09c-.31,0-.62-.06-1-.06a3.08,3.08,0,0,0-.73.06c-.34.06-.65.14-1,.23-2,.64-4,2.5-6,5.63s-2.79,5.72-2.48,7.78a7,7,0,0,0,3.44,5,7.46,7.46,0,0,0,3.89,1.27,5.93,5.93,0,0,0,2.09-.28c2-.65,4-2.68,6.17-6.12C184.08,500.07,184.84,497.59,184.5,495.51Zm50.88,35.23c-.54-.87-1.75-1.61-3.64-2.2l-5.41-1.72,0,.09-2.22,6.9,5.47,1.75a9.41,9.41,0,0,0,2.76.51c.17,0,.34,0,.48,0a3.14,3.14,0,0,0,1-.23,3.46,3.46,0,0,0,2-2.25A3.11,3.11,0,0,0,235.38,530.74Zm3-13.64a5.61,5.61,0,0,0-3.16-1.92l-4.71-1.52,0,.11-2.08,6.46,4.65,1.49a9.72,9.72,0,0,0,2.34.48,3.21,3.21,0,0,0,1.44-.23,3.38,3.38,0,0,0,1.77-2.19A3.26,3.26,0,0,0,238.4,517.1Zm60,11.95a7,7,0,0,0-5.44-2.71,6.08,6.08,0,0,0-.74,0h-.11a6.68,6.68,0,0,0-4.74,2.09c-1.46,1.52-2.31,4.14-2.53,7.83s.34,6.32,1.6,8a6.94,6.94,0,0,0,5.42,2.71c.22,0,.42,0,.62,0a5.06,5.06,0,0,0,.56,0,6.58,6.58,0,0,0,4.54-2c1.41-1.49,2.22-4.28,2.45-8.34C300.21,533.22,299.67,530.68,298.38,529.05Zm0,0a7,7,0,0,0-5.44-2.71,6.08,6.08,0,0,0-.74,0h-.11a6.68,6.68,0,0,0-4.74,2.09c-1.46,1.52-2.31,4.14-2.53,7.83s.34,6.32,1.6,8a6.94,6.94,0,0,0,5.42,2.71c.22,0,.42,0,.62,0a5.06,5.06,0,0,0,.56,0,6.58,6.58,0,0,0,4.54-2c1.41-1.49,2.22-4.28,2.45-8.34C300.21,533.22,299.67,530.68,298.38,529.05Zm-60-11.95a5.61,5.61,0,0,0-3.16-1.92l-4.71-1.52,0,.11-2.08,6.46,4.65,1.49a9.72,9.72,0,0,0,2.34.48,3.21,3.21,0,0,0,1.44-.23,3.38,3.38,0,0,0,1.77-2.19A3.26,3.26,0,0,0,238.4,517.1Zm-3,13.64c-.54-.87-1.75-1.61-3.64-2.2l-5.41-1.72,0,.09-2.22,6.9,5.47,1.75a9.41,9.41,0,0,0,2.76.51c.17,0,.34,0,.48,0a3.14,3.14,0,0,0,1-.23,3.46,3.46,0,0,0,2-2.25A3.11,3.11,0,0,0,235.38,530.74ZM184.5,495.51a7.68,7.68,0,0,0-6.7-6.09c-.31,0-.62-.06-1-.06a3.08,3.08,0,0,0-.73.06c-.34.06-.65.14-1,.23-2,.64-4,2.5-6,5.63s-2.79,5.72-2.48,7.78a7,7,0,0,0,3.44,5,7.46,7.46,0,0,0,3.89,1.27,5.93,5.93,0,0,0,2.09-.28c2-.65,4-2.68,6.17-6.12C184.08,500.07,184.84,497.59,184.5,495.51Zm-48-42-3.41-3.55-.17.17L127.74,455l3.27,3.41a17.49,17.49,0,0,0,2.39,1.81,3.17,3.17,0,0,0,1.55.56,3.26,3.26,0,0,0,.54,0,3.36,3.36,0,0,0,2-1,3.31,3.31,0,0,0,1.18-2.67C138.62,456.19,137.89,455,136.48,453.48Zm0,0-3.41-3.55-.17.17L127.74,455l3.27,3.41a17.49,17.49,0,0,0,2.39,1.81,3.17,3.17,0,0,0,1.55.56,3.26,3.26,0,0,0,.54,0,3.36,3.36,0,0,0,2-1,3.31,3.31,0,0,0,1.18-2.67C138.62,456.19,137.89,455,136.48,453.48Zm48,42a7.68,7.68,0,0,0-6.7-6.09c-.31,0-.62-.06-1-.06a3.08,3.08,0,0,0-.73.06c-.34.06-.65.14-1,.23-2,.64-4,2.5-6,5.63s-2.79,5.72-2.48,7.78a7,7,0,0,0,3.44,5,7.46,7.46,0,0,0,3.89,1.27,5.93,5.93,0,0,0,2.09-.28c2-.65,4-2.68,6.17-6.12C184.08,500.07,184.84,497.59,184.5,495.51Zm50.88,35.23c-.54-.87-1.75-1.61-3.64-2.2l-5.41-1.72,0,.09-2.22,6.9,5.47,1.75a9.41,9.41,0,0,0,2.76.51c.17,0,.34,0,.48,0a3.14,3.14,0,0,0,1-.23,3.46,3.46,0,0,0,2-2.25A3.11,3.11,0,0,0,235.38,530.74Zm3-13.64a5.61,5.61,0,0,0-3.16-1.92l-4.71-1.52,0,.11-2.08,6.46,4.65,1.49a9.72,9.72,0,0,0,2.34.48,3.21,3.21,0,0,0,1.44-.23,3.38,3.38,0,0,0,1.77-2.19A3.26,3.26,0,0,0,238.4,517.1Zm60,11.95a7,7,0,0,0-5.44-2.71,6.08,6.08,0,0,0-.74,0h-.11a6.68,6.68,0,0,0-4.74,2.09c-1.46,1.52-2.31,4.14-2.53,7.83s.34,6.32,1.6,8a6.94,6.94,0,0,0,5.42,2.71c.22,0,.42,0,.62,0a5.06,5.06,0,0,0,.56,0,6.58,6.58,0,0,0,4.54-2c1.41-1.49,2.22-4.28,2.45-8.34C300.21,533.22,299.67,530.68,298.38,529.05Zm0,0a7,7,0,0,0-5.44-2.71,6.08,6.08,0,0,0-.74,0h-.11a6.68,6.68,0,0,0-4.74,2.09c-1.46,1.52-2.31,4.14-2.53,7.83s.34,6.32,1.6,8a6.94,6.94,0,0,0,5.42,2.71c.22,0,.42,0,.62,0a5.06,5.06,0,0,0,.56,0,6.58,6.58,0,0,0,4.54-2c1.41-1.49,2.22-4.28,2.45-8.34C300.21,533.22,299.67,530.68,298.38,529.05Zm-60-11.95a5.61,5.61,0,0,0-3.16-1.92l-4.71-1.52,0,.11-2.08,6.46,4.65,1.49a9.72,9.72,0,0,0,2.34.48,3.21,3.21,0,0,0,1.44-.23,3.38,3.38,0,0,0,1.77-2.19A3.26,3.26,0,0,0,238.4,517.1Zm-3,13.64c-.54-.87-1.75-1.61-3.64-2.2l-5.41-1.72,0,.09-2.22,6.9,5.47,1.75a9.41,9.41,0,0,0,2.76.51c.17,0,.34,0,.48,0a3.14,3.14,0,0,0,1-.23,3.46,3.46,0,0,0,2-2.25A3.11,3.11,0,0,0,235.38,530.74ZM184.5,495.51a7.68,7.68,0,0,0-6.7-6.09c-.31,0-.62-.06-1-.06a3.08,3.08,0,0,0-.73.06c-.34.06-.65.14-1,.23-2,.64-4,2.5-6,5.63s-2.79,5.72-2.48,7.78a7,7,0,0,0,3.44,5,7.46,7.46,0,0,0,3.89,1.27,5.93,5.93,0,0,0,2.09-.28c2-.65,4-2.68,6.17-6.12C184.08,500.07,184.84,497.59,184.5,495.51Zm-48-42-3.41-3.55-.17.17L127.74,455l3.27,3.41a17.49,17.49,0,0,0,2.39,1.81,3.17,3.17,0,0,0,1.55.56,3.26,3.26,0,0,0,.54,0,3.36,3.36,0,0,0,2-1,3.31,3.31,0,0,0,1.18-2.67C138.62,456.19,137.89,455,136.48,453.48Zm0,0-3.41-3.55-.17.17L127.74,455l3.27,3.41a17.49,17.49,0,0,0,2.39,1.81,3.17,3.17,0,0,0,1.55.56,3.26,3.26,0,0,0,.54,0,3.36,3.36,0,0,0,2-1,3.31,3.31,0,0,0,1.18-2.67C138.62,456.19,137.89,455,136.48,453.48Zm48,42a7.68,7.68,0,0,0-6.7-6.09c-.31,0-.62-.06-1-.06a3.08,3.08,0,0,0-.73.06c-.34.06-.65.14-1,.23-2,.64-4,2.5-6,5.63s-2.79,5.72-2.48,7.78a7,7,0,0,0,3.44,5,7.46,7.46,0,0,0,3.89,1.27,5.93,5.93,0,0,0,2.09-.28c2-.65,4-2.68,6.17-6.12C184.08,500.07,184.84,497.59,184.5,495.51Zm50.88,35.23c-.54-.87-1.75-1.61-3.64-2.2l-5.41-1.72,0,.09-2.22,6.9,5.47,1.75a9.41,9.41,0,0,0,2.76.51c.17,0,.34,0,.48,0a3.14,3.14,0,0,0,1-.23,3.46,3.46,0,0,0,2-2.25A3.11,3.11,0,0,0,235.38,530.74Zm3-13.64a5.61,5.61,0,0,0-3.16-1.92l-4.71-1.52,0,.11-2.08,6.46,4.65,1.49a9.72,9.72,0,0,0,2.34.48,3.21,3.21,0,0,0,1.44-.23,3.38,3.38,0,0,0,1.77-2.19A3.26,3.26,0,0,0,238.4,517.1Zm60,11.95a7,7,0,0,0-5.44-2.71,6.08,6.08,0,0,0-.74,0h-.11a6.68,6.68,0,0,0-4.74,2.09c-1.46,1.52-2.31,4.14-2.53,7.83s.34,6.32,1.6,8a6.94,6.94,0,0,0,5.42,2.71c.22,0,.42,0,.62,0a5.06,5.06,0,0,0,.56,0,6.58,6.58,0,0,0,4.54-2c1.41-1.49,2.22-4.28,2.45-8.34C300.21,533.22,299.67,530.68,298.38,529.05Zm0,0a7,7,0,0,0-5.44-2.71,6.08,6.08,0,0,0-.74,0h-.11a6.68,6.68,0,0,0-4.74,2.09c-1.46,1.52-2.31,4.14-2.53,7.83s.34,6.32,1.6,8a6.94,6.94,0,0,0,5.42,2.71c.22,0,.42,0,.62,0a5.06,5.06,0,0,0,.56,0,6.58,6.58,0,0,0,4.54-2c1.41-1.49,2.22-4.28,2.45-8.34C300.21,533.22,299.67,530.68,298.38,529.05Zm-60-11.95a5.61,5.61,0,0,0-3.16-1.92l-4.71-1.52,0,.11-2.08,6.46,4.65,1.49a9.72,9.72,0,0,0,2.34.48,3.21,3.21,0,0,0,1.44-.23,3.38,3.38,0,0,0,1.77-2.19A3.26,3.26,0,0,0,238.4,517.1Zm-3,13.64c-.54-.87-1.75-1.61-3.64-2.2l-5.41-1.72,0,.09-2.22,6.9,5.47,1.75a9.41,9.41,0,0,0,2.76.51c.17,0,.34,0,.48,0a3.14,3.14,0,0,0,1-.23,3.46,3.46,0,0,0,2-2.25A3.11,3.11,0,0,0,235.38,530.74ZM184.5,495.51a7.68,7.68,0,0,0-6.7-6.09c-.31,0-.62-.06-1-.06a3.08,3.08,0,0,0-.73.06c-.34.06-.65.14-1,.23-2,.64-4,2.5-6,5.63s-2.79,5.72-2.48,7.78a7,7,0,0,0,3.44,5,7.46,7.46,0,0,0,3.89,1.27,5.93,5.93,0,0,0,2.09-.28c2-.65,4-2.68,6.17-6.12C184.08,500.07,184.84,497.59,184.5,495.51Zm-48-42-3.41-3.55-.17.17L127.74,455l3.27,3.41a17.49,17.49,0,0,0,2.39,1.81,3.17,3.17,0,0,0,1.55.56,3.26,3.26,0,0,0,.54,0,3.36,3.36,0,0,0,2-1,3.31,3.31,0,0,0,1.18-2.67C138.62,456.19,137.89,455,136.48,453.48Zm0,0-3.41-3.55-.17.17L127.74,455l3.27,3.41a17.49,17.49,0,0,0,2.39,1.81,3.17,3.17,0,0,0,1.55.56,3.26,3.26,0,0,0,.54,0,3.36,3.36,0,0,0,2-1,3.31,3.31,0,0,0,1.18-2.67C138.62,456.19,137.89,455,136.48,453.48Zm48,42a7.68,7.68,0,0,0-6.7-6.09c-.31,0-.62-.06-1-.06a3.08,3.08,0,0,0-.73.06c-.34.06-.65.14-1,.23-2,.64-4,2.5-6,5.63s-2.79,5.72-2.48,7.78a7,7,0,0,0,3.44,5,7.46,7.46,0,0,0,3.89,1.27,5.93,5.93,0,0,0,2.09-.28c2-.65,4-2.68,6.17-6.12C184.08,500.07,184.84,497.59,184.5,495.51Zm50.88,35.23c-.54-.87-1.75-1.61-3.64-2.2l-5.41-1.72,0,.09-2.22,6.9,5.47,1.75a9.41,9.41,0,0,0,2.76.51c.17,0,.34,0,.48,0a3.14,3.14,0,0,0,1-.23,3.46,3.46,0,0,0,2-2.25A3.11,3.11,0,0,0,235.38,530.74Zm3-13.64a5.61,5.61,0,0,0-3.16-1.92l-4.71-1.52,0,.11-2.08,6.46,4.65,1.49a9.72,9.72,0,0,0,2.34.48,3.21,3.21,0,0,0,1.44-.23,3.38,3.38,0,0,0,1.77-2.19A3.26,3.26,0,0,0,238.4,517.1Zm60,11.95a7,7,0,0,0-5.44-2.71,6.08,6.08,0,0,0-.74,0h-.11a6.68,6.68,0,0,0-4.74,2.09c-1.46,1.52-2.31,4.14-2.53,7.83s.34,6.32,1.6,8a6.94,6.94,0,0,0,5.42,2.71c.22,0,.42,0,.62,0a5.06,5.06,0,0,0,.56,0,6.58,6.58,0,0,0,4.54-2c1.41-1.49,2.22-4.28,2.45-8.34C300.21,533.22,299.67,530.68,298.38,529.05Zm0,0a7,7,0,0,0-5.44-2.71,6.08,6.08,0,0,0-.74,0h-.11a6.68,6.68,0,0,0-4.74,2.09c-1.46,1.52-2.31,4.14-2.53,7.83s.34,6.32,1.6,8a6.94,6.94,0,0,0,5.42,2.71c.22,0,.42,0,.62,0a5.06,5.06,0,0,0,.56,0,6.58,6.58,0,0,0,4.54-2c1.41-1.49,2.22-4.28,2.45-8.34C300.21,533.22,299.67,530.68,298.38,529.05Zm-60-11.95a5.61,5.61,0,0,0-3.16-1.92l-4.71-1.52,0,.11-2.08,6.46,4.65,1.49a9.72,9.72,0,0,0,2.34.48,3.21,3.21,0,0,0,1.44-.23,3.38,3.38,0,0,0,1.77-2.19A3.26,3.26,0,0,0,238.4,517.1Zm-6.66,11.44-5.41-1.72,0,.09-2.22,6.9,5.47,1.75a9.41,9.41,0,0,0,2.76.51c.17,0,.34,0,.48,0a3.14,3.14,0,0,0,1-.23,3.46,3.46,0,0,0,2-2.25,3.11,3.11,0,0,0-.34-2.82C234.84,529.87,233.63,529.13,231.74,528.54Zm-47.24-33a7.68,7.68,0,0,0-6.7-6.09c-.31,0-.62-.06-1-.06a3.08,3.08,0,0,0-.73.06c-.34.06-.65.14-1,.23-2,.64-4,2.5-6,5.63s-2.79,5.72-2.48,7.78a7,7,0,0,0,3.44,5,7.46,7.46,0,0,0,3.89,1.27,5.93,5.93,0,0,0,2.09-.28c2-.65,4-2.68,6.17-6.12C184.08,500.07,184.84,497.59,184.5,495.51Zm-48-42-3.41-3.55-.17.17L127.74,455l3.27,3.41a17.49,17.49,0,0,0,2.39,1.81,3.17,3.17,0,0,0,1.55.56,3.26,3.26,0,0,0,.54,0,3.36,3.36,0,0,0,2-1,3.31,3.31,0,0,0,1.18-2.67C138.62,456.19,137.89,455,136.48,453.48ZM565,358.64c1.16-5.75,2.14-11.47,2.91-17.22l44-5.56-.37-63.33-44.16-5c-1.07-7.24-2.43-14.37-4.12-21.47q-1.14-4.83-2.45-9.62L599.37,214l-25-58.18-28.59,8.46a139,139,0,0,1-36.52,61.1,145.06,145.06,0,0,1-17.56,14.72,198.85,198.85,0,0,1,6.48,22.38v0l1.3,6.29a194.69,194.69,0,0,1,.45,72.13l-.57,3v0a198,198,0,0,1-26.75,67.28l-3.32,5.11v0a196.61,196.61,0,0,1-50.88,51.5h0l-2.42,1.66,0,0a198.51,198.51,0,0,1-66.46,28.64l-6.12,1.27h-.08a194.53,194.53,0,0,1-72.1.45l-3.07-.6-.14,0a195.82,195.82,0,0,1-34.64-10.18A199.13,199.13,0,0,1,201,472.65l-.17-.09-5.15-3.35a195,195,0,0,1-51.47-50.85l-1.07-1.1-.59-1.38-.09-.11a197.89,197.89,0,0,1-28.52-66.15l0-.12-1.3-6.2v-.05a194.69,194.69,0,0,1-.45-72.13v-1.66l.62-1.55a198.8,198.8,0,0,1,7.41-27.09,146.09,146.09,0,0,1-18.54-15.42,138.87,138.87,0,0,1-33.82-52.71l-34.31-9.07L10.12,222.47,49.18,243.7c-.78,3.21-1.52,6.45-2.17,9.66-1.18,5.75-2.14,11.47-2.9,17.22L0,276.14.37,339.5l44.16,5C45.6,351.79,47,359,48.62,366.05c.76,3.21,1.55,6.43,2.45,9.58L12.63,398l25.08,58.18,42.68-12.6c1.72,2.85,3.49,5.61,5.32,8.37,3.19,4.82,6.54,9.59,10.09,14.18L68.52,501.29l45.07,44.5,34.75-27.65q8.76,6.51,18.13,12.32c2.81,1.75,5.63,3.41,8.51,5.07l-11.33,43,58.82,23.42,21.25-39.07c3.22.79,6.43,1.53,9.67,2.15,5.72,1.18,11.47,2.14,17.19,2.93L276.17,612l63.33-.37,5-44.14c7.25-1.07,14.38-2.45,21.48-4.11,3.21-.76,6.43-1.58,9.61-2.48L398,599.37l58.18-25-12.63-42.68q4.28-2.58,8.37-5.33c4.88-3.18,9.59-6.53,14.24-10.09l35.12,27.26,44.5-45-27.65-34.75q6.51-8.76,12.32-18.16,2.63-4.18,5.07-8.51l43,11.36,23.42-58.82-39-21.26C563.66,365.06,564.37,361.85,565,358.64ZM149,462.08a11.11,11.11,0,0,1-7.75,7.95,8,8,0,0,1-1.44.22h-.17a3.38,3.38,0,0,1-.79.06,9.32,9.32,0,0,1-2.62-.4,13.67,13.67,0,0,1-3.75-1.83,1.32,1.32,0,0,1,.11.28,9.73,9.73,0,0,1,.93,2.74,10,10,0,0,1-.14,2.62,15.61,15.61,0,0,1-.53,2.71L129,487.62l-.26-.26-8.51-8.9,3.89-12a8.76,8.76,0,0,0,.62-3.41,4.66,4.66,0,0,0-1.3-2.57l-.67-.7-.17.17-10.49,10-.17-.17-7.63-8,26.1-24.92.17-.17,12.9,13.5a27,27,0,0,1,4.85,6.37A8.41,8.41,0,0,1,149,462.08Zm42.67,47a22.89,22.89,0,0,1-7.38,7.69,15,15,0,0,1-6.94,2.06,7.86,7.86,0,0,1-.84,0l-.85,0a20.33,20.33,0,0,1-9.75-3.44,23.21,23.21,0,0,1-7.55-7.08,15.37,15.37,0,0,1-2.23-8.71,20.47,20.47,0,0,1,3.52-10.31c3.16-5,7-8.06,11.56-9.08a14.73,14.73,0,0,1,3.33-.39c.36,0,.73,0,1.12.05a20.76,20.76,0,0,1,9.87,3.5q7.69,4.81,9.24,11.56C195.84,499.4,194.79,504.1,191.69,509.07Zm57.9,12.45a7.79,7.79,0,0,1-7.08,5.7,6.3,6.3,0,0,1-1,.08,10.08,10.08,0,0,1,4.51,4.82,8.87,8.87,0,0,1,0,6.06,9.74,9.74,0,0,1-7.3,6.74,4.14,4.14,0,0,1-.64.08,1.34,1.34,0,0,1-.34,0,3,3,0,0,1-.74.06,2,2,0,0,1-.42,0,15.2,15.2,0,0,1-2.28-.31,49.65,49.65,0,0,1-4.93-1l-18.47-5.9L222,503.32l0-.12,20,6.4c3.33,1.07,5.61,2.71,6.88,4.93A8.34,8.34,0,0,1,249.59,521.52Zm61.64,15.93a22.68,22.68,0,0,1-2.76,10.29,15.23,15.23,0,0,1-6.54,6,17.32,17.32,0,0,1-6.37,1.64c-.76,0-1.52.11-2.34.11-.48,0-1,0-1.5-.06a24,24,0,0,1-10.06-2.53,15.47,15.47,0,0,1-6.14-6.57,20.52,20.52,0,0,1-1.89-10.74q.51-8.88,5.75-13.53a17,17,0,0,1,10.43-4.14,30.07,30.07,0,0,1,3.29,0h.34c6,.34,10.6,2.22,13.67,5.66S311.54,531.61,311.23,537.45Zm43.86-14.4L360,550l-11.05,2v-.05l-4.88-26.86-.33.05-10.94,2v0l-1.61-8.8,33.24-6,.33-.05,1.61,8.82Zm44.84,15.44-.06-.11-13.41-33.63,10.14-4.06.31-.11,13.48,33.74Zm62.94-39.66a13.71,13.71,0,0,1-2.12,6.43,19.33,19.33,0,0,1-5.91,5.61,23.48,23.48,0,0,1-9,3.92,7,7,0,0,1-1.29.11,6.52,6.52,0,0,1-.76,0,17.19,17.19,0,0,1-6.71-1.61c-3.1-1.41-5.89-4-8.4-7.75-3.3-5-4.54-9.72-3.64-14.18s3.75-8.31,8.63-11.53a19.85,19.85,0,0,1,9-3.6c.39,0,.79-.06,1.18-.06h.34a16.3,16.3,0,0,1,9.58,3.89l-7,7.3a.81.81,0,0,0-.2-.14,8.14,8.14,0,0,0-2.06-1.27,6.38,6.38,0,0,0-2.51-.42,3,3,0,0,0-.53,0,6.9,6.9,0,0,0-2.9,1.12,6.54,6.54,0,0,0-3.16,5.78c0,1.83.87,4.09,2.65,6.82,2.23,3.36,4.28,5.3,6.11,5.87a6.26,6.26,0,0,0,1.58.25,6.65,6.65,0,0,0,3.95-1.24,6.21,6.21,0,0,0,3.07-4.17,10.9,10.9,0,0,0-.93-5.72l9.56-2.85.31-.09A18.83,18.83,0,0,1,462.87,498.83ZM507,462.92a22,22,0,0,1-4.85,7.47c-4.2,4.54-8,6.85-11.33,7h-.48a14.06,14.06,0,0,1-8.9-3.21L488,466l.11-.15a7.91,7.91,0,0,0,3.86,1.67,1.34,1.34,0,0,0,.34,0c.17,0,.31,0,.45,0a6.15,6.15,0,0,0,4.2-2.14,5.62,5.62,0,0,0,1.69-3.47,3.41,3.41,0,0,0-1-2.74,3.09,3.09,0,0,0-2.48-.81h-.23c-1.1.11-2.9,1-5.44,2.79q-6.21,4.26-10.4,4.73a6.59,6.59,0,0,1-1.32.06,4.72,4.72,0,0,1-.65,0,8.84,8.84,0,0,1-5.3-2.48A9.43,9.43,0,0,1,469,458.7a10.76,10.76,0,0,1,.45-6.26,22.73,22.73,0,0,1,5-7.53c3.16-3.41,6.2-5.41,9.1-6,.29-.05.54-.08.82-.11a3.51,3.51,0,0,1,.79-.06,8.43,8.43,0,0,1,.87,0,12,12,0,0,1,6.51,2.57l-6.7,8.17-.23-.14a5.94,5.94,0,0,0-3.33-1,1,1,0,0,0-.28,0,5.78,5.78,0,0,0-3.35,2,4.5,4.5,0,0,0-1.38,2.73,2.55,2.55,0,0,0,.79,2.11,1.82,1.82,0,0,0,1.15.48,3.83,3.83,0,0,0,.57,0,8.8,8.8,0,0,0,3.52-1.86,47.68,47.68,0,0,1,9.53-5.55,16.23,16.23,0,0,1,3.12-.79,6.37,6.37,0,0,1,1-.05c.29,0,.57,0,.85.05a5.4,5.4,0,0,1,1.15.14,10.17,10.17,0,0,1,4.94,2.57,11.59,11.59,0,0,1,3.41,5.8A12.14,12.14,0,0,1,507,462.92Zm-214,63.42a6.08,6.08,0,0,0-.74,0h-.11a6.68,6.68,0,0,0-4.74,2.09c-1.46,1.52-2.31,4.14-2.53,7.83s.34,6.32,1.6,8a6.94,6.94,0,0,0,5.42,2.71c.22,0,.42,0,.62,0a5.06,5.06,0,0,0,.56,0,6.58,6.58,0,0,0,4.54-2c1.41-1.49,2.22-4.28,2.45-8.34.2-3.41-.34-6-1.63-7.58A7,7,0,0,0,292.94,526.34Zm-57.7-11.16-4.71-1.52,0,.11-2.08,6.46,4.65,1.49a9.72,9.72,0,0,0,2.34.48,3.21,3.21,0,0,0,1.44-.23,3.38,3.38,0,0,0,1.77-2.19,3.26,3.26,0,0,0-.22-2.68A5.61,5.61,0,0,0,235.24,515.18Zm-3.5,13.36-5.41-1.72,0,.09-2.22,6.9,5.47,1.75a9.41,9.41,0,0,0,2.76.51c.17,0,.34,0,.48,0a3.14,3.14,0,0,0,1-.23,3.46,3.46,0,0,0,2-2.25,3.11,3.11,0,0,0-.34-2.82C234.84,529.87,233.63,529.13,231.74,528.54Zm-50.73-38a7.09,7.09,0,0,0-3.21-1.1c-.31,0-.62-.06-1-.06a3.08,3.08,0,0,0-.73.06c-.34.06-.65.14-1,.23-2,.64-4,2.5-6,5.63s-2.79,5.72-2.48,7.78a7,7,0,0,0,3.44,5,7.46,7.46,0,0,0,3.89,1.27,5.93,5.93,0,0,0,2.09-.28c2-.65,4-2.68,6.17-6.12,1.83-2.88,2.59-5.36,2.25-7.44A7.12,7.12,0,0,0,181,490.52Zm-47.94-40.59-.17.17L127.74,455l3.27,3.41a17.49,17.49,0,0,0,2.39,1.81,3.17,3.17,0,0,0,1.55.56,3.26,3.26,0,0,0,.54,0,3.36,3.36,0,0,0,2-1,3.31,3.31,0,0,0,1.18-2.67c-.08-1-.81-2.17-2.22-3.67Zm3.41,3.55-3.41-3.55-.17.17L127.74,455l3.27,3.41a17.49,17.49,0,0,0,2.39,1.81,3.17,3.17,0,0,0,1.55.56,3.26,3.26,0,0,0,.54,0,3.36,3.36,0,0,0,2-1,3.31,3.31,0,0,0,1.18-2.67C138.62,456.19,137.89,455,136.48,453.48Zm48,42a7.68,7.68,0,0,0-6.7-6.09c-.31,0-.62-.06-1-.06a3.08,3.08,0,0,0-.73.06c-.34.06-.65.14-1,.23-2,.64-4,2.5-6,5.63s-2.79,5.72-2.48,7.78a7,7,0,0,0,3.44,5,7.46,7.46,0,0,0,3.89,1.27,5.93,5.93,0,0,0,2.09-.28c2-.65,4-2.68,6.17-6.12C184.08,500.07,184.84,497.59,184.5,495.51Zm50.88,35.23c-.54-.87-1.75-1.61-3.64-2.2l-5.41-1.72,0,.09-2.22,6.9,5.47,1.75a9.41,9.41,0,0,0,2.76.51c.17,0,.34,0,.48,0a3.14,3.14,0,0,0,1-.23,3.46,3.46,0,0,0,2-2.25A3.11,3.11,0,0,0,235.38,530.74Zm3-13.64a5.61,5.61,0,0,0-3.16-1.92l-4.71-1.52,0,.11-2.08,6.46,4.65,1.49a9.72,9.72,0,0,0,2.34.48,3.21,3.21,0,0,0,1.44-.23,3.38,3.38,0,0,0,1.77-2.19A3.26,3.26,0,0,0,238.4,517.1Zm60,11.95a7,7,0,0,0-5.44-2.71,6.08,6.08,0,0,0-.74,0h-.11a6.68,6.68,0,0,0-4.74,2.09c-1.46,1.52-2.31,4.14-2.53,7.83s.34,6.32,1.6,8a6.94,6.94,0,0,0,5.42,2.71c.22,0,.42,0,.62,0a5.06,5.06,0,0,0,.56,0,6.58,6.58,0,0,0,4.54-2c1.41-1.49,2.22-4.28,2.45-8.34C300.21,533.22,299.67,530.68,298.38,529.05Zm0,0a7,7,0,0,0-5.44-2.71,6.08,6.08,0,0,0-.74,0h-.11a6.68,6.68,0,0,0-4.74,2.09c-1.46,1.52-2.31,4.14-2.53,7.83s.34,6.32,1.6,8a6.94,6.94,0,0,0,5.42,2.71c.22,0,.42,0,.62,0a5.06,5.06,0,0,0,.56,0,6.58,6.58,0,0,0,4.54-2c1.41-1.49,2.22-4.28,2.45-8.34C300.21,533.22,299.67,530.68,298.38,529.05Zm-60-11.95a5.61,5.61,0,0,0-3.16-1.92l-4.71-1.52,0,.11-2.08,6.46,4.65,1.49a9.72,9.72,0,0,0,2.34.48,3.21,3.21,0,0,0,1.44-.23,3.38,3.38,0,0,0,1.77-2.19A3.26,3.26,0,0,0,238.4,517.1Zm-3,13.64c-.54-.87-1.75-1.61-3.64-2.2l-5.41-1.72,0,.09-2.22,6.9,5.47,1.75a9.41,9.41,0,0,0,2.76.51c.17,0,.34,0,.48,0a3.14,3.14,0,0,0,1-.23,3.46,3.46,0,0,0,2-2.25A3.11,3.11,0,0,0,235.38,530.74ZM184.5,495.51a7.68,7.68,0,0,0-6.7-6.09c-.31,0-.62-.06-1-.06a3.08,3.08,0,0,0-.73.06c-.34.06-.65.14-1,.23-2,.64-4,2.5-6,5.63s-2.79,5.72-2.48,7.78a7,7,0,0,0,3.44,5,7.46,7.46,0,0,0,3.89,1.27,5.93,5.93,0,0,0,2.09-.28c2-.65,4-2.68,6.17-6.12C184.08,500.07,184.84,497.59,184.5,495.51Zm-48-42-3.41-3.55-.17.17L127.74,455l3.27,3.41a17.49,17.49,0,0,0,2.39,1.81,3.17,3.17,0,0,0,1.55.56,3.26,3.26,0,0,0,.54,0,3.36,3.36,0,0,0,2-1,3.31,3.31,0,0,0,1.18-2.67C138.62,456.19,137.89,455,136.48,453.48Zm0,0-3.41-3.55-.17.17L127.74,455l3.27,3.41a17.49,17.49,0,0,0,2.39,1.81,3.17,3.17,0,0,0,1.55.56,3.26,3.26,0,0,0,.54,0,3.36,3.36,0,0,0,2-1,3.31,3.31,0,0,0,1.18-2.67C138.62,456.19,137.89,455,136.48,453.48Zm48,42a7.68,7.68,0,0,0-6.7-6.09c-.31,0-.62-.06-1-.06a3.08,3.08,0,0,0-.73.06c-.34.06-.65.14-1,.23-2,.64-4,2.5-6,5.63s-2.79,5.72-2.48,7.78a7,7,0,0,0,3.44,5,7.46,7.46,0,0,0,3.89,1.27,5.93,5.93,0,0,0,2.09-.28c2-.65,4-2.68,6.17-6.12C184.08,500.07,184.84,497.59,184.5,495.51Zm50.88,35.23c-.54-.87-1.75-1.61-3.64-2.2l-5.41-1.72,0,.09-2.22,6.9,5.47,1.75a9.41,9.41,0,0,0,2.76.51c.17,0,.34,0,.48,0a3.14,3.14,0,0,0,1-.23,3.46,3.46,0,0,0,2-2.25A3.11,3.11,0,0,0,235.38,530.74Zm3-13.64a5.61,5.61,0,0,0-3.16-1.92l-4.71-1.52,0,.11-2.08,6.46,4.65,1.49a9.72,9.72,0,0,0,2.34.48,3.21,3.21,0,0,0,1.44-.23,3.38,3.38,0,0,0,1.77-2.19A3.26,3.26,0,0,0,238.4,517.1Zm60,11.95a7,7,0,0,0-5.44-2.71,6.08,6.08,0,0,0-.74,0h-.11a6.68,6.68,0,0,0-4.74,2.09c-1.46,1.52-2.31,4.14-2.53,7.83s.34,6.32,1.6,8a6.94,6.94,0,0,0,5.42,2.71c.22,0,.42,0,.62,0a5.06,5.06,0,0,0,.56,0,6.58,6.58,0,0,0,4.54-2c1.41-1.49,2.22-4.28,2.45-8.34C300.21,533.22,299.67,530.68,298.38,529.05Zm0,0a7,7,0,0,0-5.44-2.71,6.08,6.08,0,0,0-.74,0h-.11a6.68,6.68,0,0,0-4.74,2.09c-1.46,1.52-2.31,4.14-2.53,7.83s.34,6.32,1.6,8a6.94,6.94,0,0,0,5.42,2.71c.22,0,.42,0,.62,0a5.06,5.06,0,0,0,.56,0,6.58,6.58,0,0,0,4.54-2c1.41-1.49,2.22-4.28,2.45-8.34C300.21,533.22,299.67,530.68,298.38,529.05Zm-60-11.95a5.61,5.61,0,0,0-3.16-1.92l-4.71-1.52,0,.11-2.08,6.46,4.65,1.49a9.72,9.72,0,0,0,2.34.48,3.21,3.21,0,0,0,1.44-.23,3.38,3.38,0,0,0,1.77-2.19A3.26,3.26,0,0,0,238.4,517.1Zm-3,13.64c-.54-.87-1.75-1.61-3.64-2.2l-5.41-1.72,0,.09-2.22,6.9,5.47,1.75a9.41,9.41,0,0,0,2.76.51c.17,0,.34,0,.48,0a3.14,3.14,0,0,0,1-.23,3.46,3.46,0,0,0,2-2.25A3.11,3.11,0,0,0,235.38,530.74ZM184.5,495.51a7.68,7.68,0,0,0-6.7-6.09c-.31,0-.62-.06-1-.06a3.08,3.08,0,0,0-.73.06c-.34.06-.65.14-1,.23-2,.64-4,2.5-6,5.63s-2.79,5.72-2.48,7.78a7,7,0,0,0,3.44,5,7.46,7.46,0,0,0,3.89,1.27,5.93,5.93,0,0,0,2.09-.28c2-.65,4-2.68,6.17-6.12C184.08,500.07,184.84,497.59,184.5,495.51Zm-48-42-3.41-3.55-.17.17L127.74,455l3.27,3.41a17.49,17.49,0,0,0,2.39,1.81,3.17,3.17,0,0,0,1.55.56,3.26,3.26,0,0,0,.54,0,3.36,3.36,0,0,0,2-1,3.31,3.31,0,0,0,1.18-2.67C138.62,456.19,137.89,455,136.48,453.48Zm0,0-3.41-3.55-.17.17L127.74,455l3.27,3.41a17.49,17.49,0,0,0,2.39,1.81,3.17,3.17,0,0,0,1.55.56,3.26,3.26,0,0,0,.54,0,3.36,3.36,0,0,0,2-1,3.31,3.31,0,0,0,1.18-2.67C138.62,456.19,137.89,455,136.48,453.48Zm48,42a7.68,7.68,0,0,0-6.7-6.09c-.31,0-.62-.06-1-.06a3.08,3.08,0,0,0-.73.06c-.34.06-.65.14-1,.23-2,.64-4,2.5-6,5.63s-2.79,5.72-2.48,7.78a7,7,0,0,0,3.44,5,7.46,7.46,0,0,0,3.89,1.27,5.93,5.93,0,0,0,2.09-.28c2-.65,4-2.68,6.17-6.12C184.08,500.07,184.84,497.59,184.5,495.51Zm50.88,35.23c-.54-.87-1.75-1.61-3.64-2.2l-5.41-1.72,0,.09-2.22,6.9,5.47,1.75a9.41,9.41,0,0,0,2.76.51c.17,0,.34,0,.48,0a3.14,3.14,0,0,0,1-.23,3.46,3.46,0,0,0,2-2.25A3.11,3.11,0,0,0,235.38,530.74Zm3-13.64a5.61,5.61,0,0,0-3.16-1.92l-4.71-1.52,0,.11-2.08,6.46,4.65,1.49a9.72,9.72,0,0,0,2.34.48,3.21,3.21,0,0,0,1.44-.23,3.38,3.38,0,0,0,1.77-2.19A3.26,3.26,0,0,0,238.4,517.1Zm60,11.95a7,7,0,0,0-5.44-2.71,6.08,6.08,0,0,0-.74,0h-.11a6.68,6.68,0,0,0-4.74,2.09c-1.46,1.52-2.31,4.14-2.53,7.83s.34,6.32,1.6,8a6.94,6.94,0,0,0,5.42,2.71c.22,0,.42,0,.62,0a5.06,5.06,0,0,0,.56,0,6.58,6.58,0,0,0,4.54-2c1.41-1.49,2.22-4.28,2.45-8.34C300.21,533.22,299.67,530.68,298.38,529.05Zm0,0a7,7,0,0,0-5.44-2.71,6.08,6.08,0,0,0-.74,0h-.11a6.68,6.68,0,0,0-4.74,2.09c-1.46,1.52-2.31,4.14-2.53,7.83s.34,6.32,1.6,8a6.94,6.94,0,0,0,5.42,2.71c.22,0,.42,0,.62,0a5.06,5.06,0,0,0,.56,0,6.58,6.58,0,0,0,4.54-2c1.41-1.49,2.22-4.28,2.45-8.34C300.21,533.22,299.67,530.68,298.38,529.05Zm-60-11.95a5.61,5.61,0,0,0-3.16-1.92l-4.71-1.52,0,.11-2.08,6.46,4.65,1.49a9.72,9.72,0,0,0,2.34.48,3.21,3.21,0,0,0,1.44-.23,3.38,3.38,0,0,0,1.77-2.19A3.26,3.26,0,0,0,238.4,517.1Zm-3,13.64c-.54-.87-1.75-1.61-3.64-2.2l-5.41-1.72,0,.09-2.22,6.9,5.47,1.75a9.41,9.41,0,0,0,2.76.51c.17,0,.34,0,.48,0a3.14,3.14,0,0,0,1-.23,3.46,3.46,0,0,0,2-2.25A3.11,3.11,0,0,0,235.38,530.74ZM184.5,495.51a7.68,7.68,0,0,0-6.7-6.09c-.31,0-.62-.06-1-.06a3.08,3.08,0,0,0-.73.06c-.34.06-.65.14-1,.23-2,.64-4,2.5-6,5.63s-2.79,5.72-2.48,7.78a7,7,0,0,0,3.44,5,7.46,7.46,0,0,0,3.89,1.27,5.93,5.93,0,0,0,2.09-.28c2-.65,4-2.68,6.17-6.12C184.08,500.07,184.84,497.59,184.5,495.51Zm-48-42-3.41-3.55-.17.17L127.74,455l3.27,3.41a17.49,17.49,0,0,0,2.39,1.81,3.17,3.17,0,0,0,1.55.56,3.26,3.26,0,0,0,.54,0,3.36,3.36,0,0,0,2-1,3.31,3.31,0,0,0,1.18-2.67C138.62,456.19,137.89,455,136.48,453.48Zm0,0-3.41-3.55-.17.17L127.74,455l3.27,3.41a17.49,17.49,0,0,0,2.39,1.81,3.17,3.17,0,0,0,1.55.56,3.26,3.26,0,0,0,.54,0,3.36,3.36,0,0,0,2-1,3.31,3.31,0,0,0,1.18-2.67C138.62,456.19,137.89,455,136.48,453.48Zm48,42a7.68,7.68,0,0,0-6.7-6.09c-.31,0-.62-.06-1-.06a3.08,3.08,0,0,0-.73.06c-.34.06-.65.14-1,.23-2,.64-4,2.5-6,5.63s-2.79,5.72-2.48,7.78a7,7,0,0,0,3.44,5,7.46,7.46,0,0,0,3.89,1.27,5.93,5.93,0,0,0,2.09-.28c2-.65,4-2.68,6.17-6.12C184.08,500.07,184.84,497.59,184.5,495.51Zm50.88,35.23c-.54-.87-1.75-1.61-3.64-2.2l-5.41-1.72,0,.09-2.22,6.9,5.47,1.75a9.41,9.41,0,0,0,2.76.51c.17,0,.34,0,.48,0a3.14,3.14,0,0,0,1-.23,3.46,3.46,0,0,0,2-2.25A3.11,3.11,0,0,0,235.38,530.74Zm3-13.64a5.61,5.61,0,0,0-3.16-1.92l-4.71-1.52,0,.11-2.08,6.46,4.65,1.49a9.72,9.72,0,0,0,2.34.48,3.21,3.21,0,0,0,1.44-.23,3.38,3.38,0,0,0,1.77-2.19A3.26,3.26,0,0,0,238.4,517.1Zm60,11.95a7,7,0,0,0-5.44-2.71,6.08,6.08,0,0,0-.74,0h-.11a6.68,6.68,0,0,0-4.74,2.09c-1.46,1.52-2.31,4.14-2.53,7.83s.34,6.32,1.6,8a6.94,6.94,0,0,0,5.42,2.71c.22,0,.42,0,.62,0a5.06,5.06,0,0,0,.56,0,6.58,6.58,0,0,0,4.54-2c1.41-1.49,2.22-4.28,2.45-8.34C300.21,533.22,299.67,530.68,298.38,529.05Zm0,0a7,7,0,0,0-5.44-2.71,6.08,6.08,0,0,0-.74,0h-.11a6.68,6.68,0,0,0-4.74,2.09c-1.46,1.52-2.31,4.14-2.53,7.83s.34,6.32,1.6,8a6.94,6.94,0,0,0,5.42,2.71c.22,0,.42,0,.62,0a5.06,5.06,0,0,0,.56,0,6.58,6.58,0,0,0,4.54-2c1.41-1.49,2.22-4.28,2.45-8.34C300.21,533.22,299.67,530.68,298.38,529.05Zm-60-11.95a5.61,5.61,0,0,0-3.16-1.92l-4.71-1.52,0,.11-2.08,6.46,4.65,1.49a9.72,9.72,0,0,0,2.34.48,3.21,3.21,0,0,0,1.44-.23,3.38,3.38,0,0,0,1.77-2.19A3.26,3.26,0,0,0,238.4,517.1Zm-3,13.64c-.54-.87-1.75-1.61-3.64-2.2l-5.41-1.72,0,.09-2.22,6.9,5.47,1.75a9.41,9.41,0,0,0,2.76.51c.17,0,.34,0,.48,0a3.14,3.14,0,0,0,1-.23,3.46,3.46,0,0,0,2-2.25A3.11,3.11,0,0,0,235.38,530.74ZM184.5,495.51a7.68,7.68,0,0,0-6.7-6.09c-.31,0-.62-.06-1-.06a3.08,3.08,0,0,0-.73.06c-.34.06-.65.14-1,.23-2,.64-4,2.5-6,5.63s-2.79,5.72-2.48,7.78a7,7,0,0,0,3.44,5,7.46,7.46,0,0,0,3.89,1.27,5.93,5.93,0,0,0,2.09-.28c2-.65,4-2.68,6.17-6.12C184.08,500.07,184.84,497.59,184.5,495.51Zm-48-42-3.41-3.55-.17.17L127.74,455l3.27,3.41a17.49,17.49,0,0,0,2.39,1.81,3.17,3.17,0,0,0,1.55.56,3.26,3.26,0,0,0,.54,0,3.36,3.36,0,0,0,2-1,3.31,3.31,0,0,0,1.18-2.67C138.62,456.19,137.89,455,136.48,453.48Zm0,0-3.41-3.55-.17.17L127.74,455l3.27,3.41a17.49,17.49,0,0,0,2.39,1.81,3.17,3.17,0,0,0,1.55.56,3.26,3.26,0,0,0,.54,0,3.36,3.36,0,0,0,2-1,3.31,3.31,0,0,0,1.18-2.67C138.62,456.19,137.89,455,136.48,453.48Zm48,42a7.68,7.68,0,0,0-6.7-6.09c-.31,0-.62-.06-1-.06a3.08,3.08,0,0,0-.73.06c-.34.06-.65.14-1,.23-2,.64-4,2.5-6,5.63s-2.79,5.72-2.48,7.78a7,7,0,0,0,3.44,5,7.46,7.46,0,0,0,3.89,1.27,5.93,5.93,0,0,0,2.09-.28c2-.65,4-2.68,6.17-6.12C184.08,500.07,184.84,497.59,184.5,495.51Zm50.88,35.23c-.54-.87-1.75-1.61-3.64-2.2l-5.41-1.72,0,.09-2.22,6.9,5.47,1.75a9.41,9.41,0,0,0,2.76.51c.17,0,.34,0,.48,0a3.14,3.14,0,0,0,1-.23,3.46,3.46,0,0,0,2-2.25A3.11,3.11,0,0,0,235.38,530.74Zm3-13.64a5.61,5.61,0,0,0-3.16-1.92l-4.71-1.52,0,.11-2.08,6.46,4.65,1.49a9.72,9.72,0,0,0,2.34.48,3.21,3.21,0,0,0,1.44-.23,3.38,3.38,0,0,0,1.77-2.19A3.26,3.26,0,0,0,238.4,517.1Zm60,11.95a7,7,0,0,0-5.44-2.71,6.08,6.08,0,0,0-.74,0h-.11a6.68,6.68,0,0,0-4.74,2.09c-1.46,1.52-2.31,4.14-2.53,7.83s.34,6.32,1.6,8a6.94,6.94,0,0,0,5.42,2.71c.22,0,.42,0,.62,0a5.06,5.06,0,0,0,.56,0,6.58,6.58,0,0,0,4.54-2c1.41-1.49,2.22-4.28,2.45-8.34C300.21,533.22,299.67,530.68,298.38,529.05Zm0,0a7,7,0,0,0-5.44-2.71,6.08,6.08,0,0,0-.74,0h-.11a6.68,6.68,0,0,0-4.74,2.09c-1.46,1.52-2.31,4.14-2.53,7.83s.34,6.32,1.6,8a6.94,6.94,0,0,0,5.42,2.71c.22,0,.42,0,.62,0a5.06,5.06,0,0,0,.56,0,6.58,6.58,0,0,0,4.54-2c1.41-1.49,2.22-4.28,2.45-8.34C300.21,533.22,299.67,530.68,298.38,529.05Zm-60-11.95a5.61,5.61,0,0,0-3.16-1.92l-4.71-1.52,0,.11-2.08,6.46,4.65,1.49a9.72,9.72,0,0,0,2.34.48,3.21,3.21,0,0,0,1.44-.23,3.38,3.38,0,0,0,1.77-2.19A3.26,3.26,0,0,0,238.4,517.1Zm-3,13.64c-.54-.87-1.75-1.61-3.64-2.2l-5.41-1.72,0,.09-2.22,6.9,5.47,1.75a9.41,9.41,0,0,0,2.76.51c.17,0,.34,0,.48,0a3.14,3.14,0,0,0,1-.23,3.46,3.46,0,0,0,2-2.25A3.11,3.11,0,0,0,235.38,530.74ZM184.5,495.51a7.68,7.68,0,0,0-6.7-6.09c-.31,0-.62-.06-1-.06a3.08,3.08,0,0,0-.73.06c-.34.06-.65.14-1,.23-2,.64-4,2.5-6,5.63s-2.79,5.72-2.48,7.78a7,7,0,0,0,3.44,5,7.46,7.46,0,0,0,3.89,1.27,5.93,5.93,0,0,0,2.09-.28c2-.65,4-2.68,6.17-6.12C184.08,500.07,184.84,497.59,184.5,495.51Zm-48-42-3.41-3.55-.17.17L127.74,455l3.27,3.41a17.49,17.49,0,0,0,2.39,1.81,3.17,3.17,0,0,0,1.55.56,3.26,3.26,0,0,0,.54,0,3.36,3.36,0,0,0,2-1,3.31,3.31,0,0,0,1.18-2.67C138.62,456.19,137.89,455,136.48,453.48Zm0,0-3.41-3.55-.17.17L127.74,455l3.27,3.41a17.49,17.49,0,0,0,2.39,1.81,3.17,3.17,0,0,0,1.55.56,3.26,3.26,0,0,0,.54,0,3.36,3.36,0,0,0,2-1,3.31,3.31,0,0,0,1.18-2.67C138.62,456.19,137.89,455,136.48,453.48Zm48,42a7.68,7.68,0,0,0-6.7-6.09c-.31,0-.62-.06-1-.06a3.08,3.08,0,0,0-.73.06c-.34.06-.65.14-1,.23-2,.64-4,2.5-6,5.63s-2.79,5.72-2.48,7.78a7,7,0,0,0,3.44,5,7.46,7.46,0,0,0,3.89,1.27,5.93,5.93,0,0,0,2.09-.28c2-.65,4-2.68,6.17-6.12C184.08,500.07,184.84,497.59,184.5,495.51Zm50.88,35.23c-.54-.87-1.75-1.61-3.64-2.2l-5.41-1.72,0,.09-2.22,6.9,5.47,1.75a9.41,9.41,0,0,0,2.76.51c.17,0,.34,0,.48,0a3.14,3.14,0,0,0,1-.23,3.46,3.46,0,0,0,2-2.25A3.11,3.11,0,0,0,235.38,530.74Zm3-13.64a5.61,5.61,0,0,0-3.16-1.92l-4.71-1.52,0,.11-2.08,6.46,4.65,1.49a9.72,9.72,0,0,0,2.34.48,3.21,3.21,0,0,0,1.44-.23,3.38,3.38,0,0,0,1.77-2.19A3.26,3.26,0,0,0,238.4,517.1Zm60,11.95a7,7,0,0,0-5.44-2.71,6.08,6.08,0,0,0-.74,0h-.11a6.68,6.68,0,0,0-4.74,2.09c-1.46,1.52-2.31,4.14-2.53,7.83s.34,6.32,1.6,8a6.94,6.94,0,0,0,5.42,2.71c.22,0,.42,0,.62,0a5.06,5.06,0,0,0,.56,0,6.58,6.58,0,0,0,4.54-2c1.41-1.49,2.22-4.28,2.45-8.34C300.21,533.22,299.67,530.68,298.38,529.05Zm0,0a7,7,0,0,0-5.44-2.71,6.08,6.08,0,0,0-.74,0h-.11a6.68,6.68,0,0,0-4.74,2.09c-1.46,1.52-2.31,4.14-2.53,7.83s.34,6.32,1.6,8a6.94,6.94,0,0,0,5.42,2.71c.22,0,.42,0,.62,0a5.06,5.06,0,0,0,.56,0,6.58,6.58,0,0,0,4.54-2c1.41-1.49,2.22-4.28,2.45-8.34C300.21,533.22,299.67,530.68,298.38,529.05Zm-60-11.95a5.61,5.61,0,0,0-3.16-1.92l-4.71-1.52,0,.11-2.08,6.46,4.65,1.49a9.72,9.72,0,0,0,2.34.48,3.21,3.21,0,0,0,1.44-.23,3.38,3.38,0,0,0,1.77-2.19A3.26,3.26,0,0,0,238.4,517.1Zm-3,13.64c-.54-.87-1.75-1.61-3.64-2.2l-5.41-1.72,0,.09-2.22,6.9,5.47,1.75a9.41,9.41,0,0,0,2.76.51c.17,0,.34,0,.48,0a3.14,3.14,0,0,0,1-.23,3.46,3.46,0,0,0,2-2.25A3.11,3.11,0,0,0,235.38,530.74ZM184.5,495.51a7.68,7.68,0,0,0-6.7-6.09c-.31,0-.62-.06-1-.06a3.08,3.08,0,0,0-.73.06c-.34.06-.65.14-1,.23-2,.64-4,2.5-6,5.63s-2.79,5.72-2.48,7.78a7,7,0,0,0,3.44,5,7.46,7.46,0,0,0,3.89,1.27,5.93,5.93,0,0,0,2.09-.28c2-.65,4-2.68,6.17-6.12C184.08,500.07,184.84,497.59,184.5,495.51Zm-48-42-3.41-3.55-.17.17L127.74,455l3.27,3.41a17.49,17.49,0,0,0,2.39,1.81,3.17,3.17,0,0,0,1.55.56,3.26,3.26,0,0,0,.54,0,3.36,3.36,0,0,0,2-1,3.31,3.31,0,0,0,1.18-2.67C138.62,456.19,137.89,455,136.48,453.48Zm0,0-3.41-3.55-.17.17L127.74,455l3.27,3.41a17.49,17.49,0,0,0,2.39,1.81,3.17,3.17,0,0,0,1.55.56,3.26,3.26,0,0,0,.54,0,3.36,3.36,0,0,0,2-1,3.31,3.31,0,0,0,1.18-2.67C138.62,456.19,137.89,455,136.48,453.48Zm48,42a7.68,7.68,0,0,0-6.7-6.09c-.31,0-.62-.06-1-.06a3.08,3.08,0,0,0-.73.06c-.34.06-.65.14-1,.23-2,.64-4,2.5-6,5.63s-2.79,5.72-2.48,7.78a7,7,0,0,0,3.44,5,7.46,7.46,0,0,0,3.89,1.27,5.93,5.93,0,0,0,2.09-.28c2-.65,4-2.68,6.17-6.12C184.08,500.07,184.84,497.59,184.5,495.51Zm50.88,35.23c-.54-.87-1.75-1.61-3.64-2.2l-5.41-1.72,0,.09-2.22,6.9,5.47,1.75a9.41,9.41,0,0,0,2.76.51c.17,0,.34,0,.48,0a3.14,3.14,0,0,0,1-.23,3.46,3.46,0,0,0,2-2.25A3.11,3.11,0,0,0,235.38,530.74Zm3-13.64a5.61,5.61,0,0,0-3.16-1.92l-4.71-1.52,0,.11-2.08,6.46,4.65,1.49a9.72,9.72,0,0,0,2.34.48,3.21,3.21,0,0,0,1.44-.23,3.38,3.38,0,0,0,1.77-2.19A3.26,3.26,0,0,0,238.4,517.1Zm0,0a5.61,5.61,0,0,0-3.16-1.92l-4.71-1.52,0,.11-2.08,6.46,4.65,1.49a9.72,9.72,0,0,0,2.34.48,3.21,3.21,0,0,0,1.44-.23,3.38,3.38,0,0,0,1.77-2.19A3.26,3.26,0,0,0,238.4,517.1Zm-3,13.64c-.54-.87-1.75-1.61-3.64-2.2l-5.41-1.72,0,.09-2.22,6.9,5.47,1.75a9.41,9.41,0,0,0,2.76.51c.17,0,.34,0,.48,0a3.14,3.14,0,0,0,1-.23,3.46,3.46,0,0,0,2-2.25A3.11,3.11,0,0,0,235.38,530.74ZM184.5,495.51a7.68,7.68,0,0,0-6.7-6.09c-.31,0-.62-.06-1-.06a3.08,3.08,0,0,0-.73.06c-.34.06-.65.14-1,.23-2,.64-4,2.5-6,5.63s-2.79,5.72-2.48,7.78a7,7,0,0,0,3.44,5,7.46,7.46,0,0,0,3.89,1.27,5.93,5.93,0,0,0,2.09-.28c2-.65,4-2.68,6.17-6.12C184.08,500.07,184.84,497.59,184.5,495.51Zm-48-42-3.41-3.55-.17.17L127.74,455l3.27,3.41a17.49,17.49,0,0,0,2.39,1.81,3.17,3.17,0,0,0,1.55.56,3.26,3.26,0,0,0,.54,0,3.36,3.36,0,0,0,2-1,3.31,3.31,0,0,0,1.18-2.67C138.62,456.19,137.89,455,136.48,453.48Zm0,0-3.41-3.55-.17.17L127.74,455l3.27,3.41a17.49,17.49,0,0,0,2.39,1.81,3.17,3.17,0,0,0,1.55.56,3.26,3.26,0,0,0,.54,0,3.36,3.36,0,0,0,2-1,3.31,3.31,0,0,0,1.18-2.67C138.62,456.19,137.89,455,136.48,453.48Zm0,0-3.41-3.55-.17.17L127.74,455l3.27,3.41a17.49,17.49,0,0,0,2.39,1.81,3.17,3.17,0,0,0,1.55.56,3.26,3.26,0,0,0,.54,0,3.36,3.36,0,0,0,2-1,3.31,3.31,0,0,0,1.18-2.67C138.62,456.19,137.89,455,136.48,453.48ZM71.54,108.23l-5.19,5.25-.11.11.08.11,6.79,8.54,20.75,26.1q-6.51,8.76-12.32,18.13c-.87,1.38-1.72,2.79-2.56,4.2v0c-.85,1.41-1.69,2.85-2.51,4.29l-2-.54a134.2,134.2,0,0,0,31.11,46.93,136.65,136.65,0,0,0,16.61,13.95c.25-.67.5-1.38.78-2A198.63,198.63,0,0,1,139.35,201l0,0,3.52-5.42q4.14-6.09,8.66-11.81C116,169.9,86.78,142.9,71.54,108.23Z"/><path class="cls-1" d="M300.62,331.91,298,338a6.58,6.58,0,0,1-8,3.66l-48.48-15.1L219.38,337,232.27,317a9.82,9.82,0,0,1,10.54-4.2l55,13.5A4.15,4.15,0,0,1,300.62,331.91Z"/><path class="cls-1" d="M392.64,337l-22.15-10.48L322,341.66a6.58,6.58,0,0,1-8-3.66l-2.62-6.09a4.14,4.14,0,0,1,2.82-5.64l55-13.5a9.82,9.82,0,0,1,10.54,4.2Z"/></g></svg>